<mxfile host="app.diagrams.net" modified="2024-05-15T21:17:10.679Z" agent="Mozilla/5.0 (Windows NT 10.0; Win64; x64) AppleWebKit/537.36 (KHTML, like Gecko) Chrome/124.0.0.0 Safari/537.36 Edg/124.0.0.0" etag="qB1WrD94zUtlhb_funZY" version="24.3.0" type="github" pages="5">
  <diagram id="DcVJZMuD3yvpH-XxqjJy" name="Idea inicial Cas portgres y mongodb">
    <mxGraphModel dx="2788" dy="2442" grid="1" gridSize="10" guides="1" tooltips="1" connect="1" arrows="1" fold="1" page="1" pageScale="1" pageWidth="1169" pageHeight="827" math="0" shadow="0">
      <root>
        <mxCell id="0" />
        <mxCell id="1" parent="0" />
        <mxCell id="MjbWYDBfPJHvn3c8HX3L-1" value="cvv" style="rounded=0;whiteSpace=wrap;html=1;" parent="1" vertex="1">
          <mxGeometry x="-130" y="-1280" width="1170" height="950" as="geometry" />
        </mxCell>
        <mxCell id="MjbWYDBfPJHvn3c8HX3L-2" style="edgeStyle=orthogonalEdgeStyle;rounded=0;orthogonalLoop=1;jettySize=auto;html=1;exitX=0;exitY=1;exitDx=0;exitDy=0;" parent="1" source="MjbWYDBfPJHvn3c8HX3L-3" edge="1">
          <mxGeometry relative="1" as="geometry">
            <mxPoint x="-160" y="860" as="targetPoint" />
          </mxGeometry>
        </mxCell>
        <mxCell id="MjbWYDBfPJHvn3c8HX3L-3" value="cvv" style="rounded=0;whiteSpace=wrap;html=1;" parent="1" vertex="1">
          <mxGeometry x="-290" y="-160" width="1320" height="1010" as="geometry" />
        </mxCell>
        <mxCell id="MjbWYDBfPJHvn3c8HX3L-4" value="service_type" style="swimlane;fontStyle=0;childLayout=stackLayout;horizontal=1;startSize=30;horizontalStack=0;resizeParent=1;resizeParentMax=0;resizeLast=0;collapsible=1;marginBottom=0;whiteSpace=wrap;html=1;" parent="1" vertex="1">
          <mxGeometry x="20" y="50" width="140" height="120" as="geometry" />
        </mxCell>
        <mxCell id="MjbWYDBfPJHvn3c8HX3L-5" value="id" style="text;strokeColor=none;fillColor=none;align=left;verticalAlign=middle;spacingLeft=4;spacingRight=4;overflow=hidden;points=[[0,0.5],[1,0.5]];portConstraint=eastwest;rotatable=0;whiteSpace=wrap;html=1;" parent="MjbWYDBfPJHvn3c8HX3L-4" vertex="1">
          <mxGeometry y="30" width="140" height="30" as="geometry" />
        </mxCell>
        <mxCell id="MjbWYDBfPJHvn3c8HX3L-6" value="name" style="text;strokeColor=none;fillColor=none;align=left;verticalAlign=middle;spacingLeft=4;spacingRight=4;overflow=hidden;points=[[0,0.5],[1,0.5]];portConstraint=eastwest;rotatable=0;whiteSpace=wrap;html=1;" parent="MjbWYDBfPJHvn3c8HX3L-4" vertex="1">
          <mxGeometry y="60" width="140" height="30" as="geometry" />
        </mxCell>
        <mxCell id="MjbWYDBfPJHvn3c8HX3L-7" value="descripcion&amp;nbsp;" style="text;strokeColor=none;fillColor=none;align=left;verticalAlign=middle;spacingLeft=4;spacingRight=4;overflow=hidden;points=[[0,0.5],[1,0.5]];portConstraint=eastwest;rotatable=0;whiteSpace=wrap;html=1;" parent="MjbWYDBfPJHvn3c8HX3L-4" vertex="1">
          <mxGeometry y="90" width="140" height="30" as="geometry" />
        </mxCell>
        <mxCell id="MjbWYDBfPJHvn3c8HX3L-8" value="" style="edgeStyle=orthogonalEdgeStyle;rounded=0;orthogonalLoop=1;jettySize=auto;html=1;" parent="1" source="MjbWYDBfPJHvn3c8HX3L-9" target="MjbWYDBfPJHvn3c8HX3L-17" edge="1">
          <mxGeometry relative="1" as="geometry" />
        </mxCell>
        <mxCell id="MjbWYDBfPJHvn3c8HX3L-9" value="empresa_user" style="swimlane;fontStyle=0;childLayout=stackLayout;horizontal=1;startSize=30;horizontalStack=0;resizeParent=1;resizeParentMax=0;resizeLast=0;collapsible=1;marginBottom=0;whiteSpace=wrap;html=1;" parent="1" vertex="1">
          <mxGeometry x="650" y="100" width="140" height="110" as="geometry" />
        </mxCell>
        <mxCell id="MjbWYDBfPJHvn3c8HX3L-10" value="id" style="text;strokeColor=none;fillColor=none;align=left;verticalAlign=middle;spacingLeft=4;spacingRight=4;overflow=hidden;points=[[0,0.5],[1,0.5]];portConstraint=eastwest;rotatable=0;whiteSpace=wrap;html=1;" parent="MjbWYDBfPJHvn3c8HX3L-9" vertex="1">
          <mxGeometry y="30" width="140" height="30" as="geometry" />
        </mxCell>
        <mxCell id="MjbWYDBfPJHvn3c8HX3L-11" value="users_id" style="text;strokeColor=none;fillColor=none;align=left;verticalAlign=middle;spacingLeft=4;spacingRight=4;overflow=hidden;points=[[0,0.5],[1,0.5]];portConstraint=eastwest;rotatable=0;whiteSpace=wrap;html=1;" parent="MjbWYDBfPJHvn3c8HX3L-9" vertex="1">
          <mxGeometry y="60" width="140" height="30" as="geometry" />
        </mxCell>
        <mxCell id="MjbWYDBfPJHvn3c8HX3L-12" value="empresa_id" style="text;strokeColor=none;fillColor=none;align=left;verticalAlign=middle;spacingLeft=4;spacingRight=4;overflow=hidden;points=[[0,0.5],[1,0.5]];portConstraint=eastwest;rotatable=0;whiteSpace=wrap;html=1;" parent="MjbWYDBfPJHvn3c8HX3L-9" vertex="1">
          <mxGeometry y="90" width="140" height="20" as="geometry" />
        </mxCell>
        <mxCell id="MjbWYDBfPJHvn3c8HX3L-13" value="Empresa" style="swimlane;fontStyle=0;childLayout=stackLayout;horizontal=1;startSize=30;horizontalStack=0;resizeParent=1;resizeParentMax=0;resizeLast=0;collapsible=1;marginBottom=0;whiteSpace=wrap;html=1;" parent="1" vertex="1">
          <mxGeometry x="360" y="20" width="140" height="120" as="geometry" />
        </mxCell>
        <mxCell id="MjbWYDBfPJHvn3c8HX3L-14" value="id" style="text;strokeColor=none;fillColor=none;align=left;verticalAlign=middle;spacingLeft=4;spacingRight=4;overflow=hidden;points=[[0,0.5],[1,0.5]];portConstraint=eastwest;rotatable=0;whiteSpace=wrap;html=1;" parent="MjbWYDBfPJHvn3c8HX3L-13" vertex="1">
          <mxGeometry y="30" width="140" height="30" as="geometry" />
        </mxCell>
        <mxCell id="MjbWYDBfPJHvn3c8HX3L-15" value="service_type_id" style="text;strokeColor=none;fillColor=none;align=left;verticalAlign=middle;spacingLeft=4;spacingRight=4;overflow=hidden;points=[[0,0.5],[1,0.5]];portConstraint=eastwest;rotatable=0;whiteSpace=wrap;html=1;" parent="MjbWYDBfPJHvn3c8HX3L-13" vertex="1">
          <mxGeometry y="60" width="140" height="30" as="geometry" />
        </mxCell>
        <mxCell id="MjbWYDBfPJHvn3c8HX3L-16" value="name" style="text;strokeColor=none;fillColor=none;align=left;verticalAlign=middle;spacingLeft=4;spacingRight=4;overflow=hidden;points=[[0,0.5],[1,0.5]];portConstraint=eastwest;rotatable=0;whiteSpace=wrap;html=1;" parent="MjbWYDBfPJHvn3c8HX3L-13" vertex="1">
          <mxGeometry y="90" width="140" height="30" as="geometry" />
        </mxCell>
        <mxCell id="MjbWYDBfPJHvn3c8HX3L-17" value="Users&lt;br&gt;" style="swimlane;fontStyle=0;childLayout=stackLayout;horizontal=1;startSize=30;horizontalStack=0;resizeParent=1;resizeParentMax=0;resizeLast=0;collapsible=1;marginBottom=0;whiteSpace=wrap;html=1;" parent="1" vertex="1">
          <mxGeometry x="790" y="260" width="140" height="60" as="geometry" />
        </mxCell>
        <mxCell id="MjbWYDBfPJHvn3c8HX3L-18" value="roles_id" style="text;strokeColor=none;fillColor=none;align=left;verticalAlign=middle;spacingLeft=4;spacingRight=4;overflow=hidden;points=[[0,0.5],[1,0.5]];portConstraint=eastwest;rotatable=0;whiteSpace=wrap;html=1;" parent="MjbWYDBfPJHvn3c8HX3L-17" vertex="1">
          <mxGeometry y="30" width="140" height="30" as="geometry" />
        </mxCell>
        <mxCell id="MjbWYDBfPJHvn3c8HX3L-19" value="tipo_ticket" style="swimlane;fontStyle=0;childLayout=stackLayout;horizontal=1;startSize=30;horizontalStack=0;resizeParent=1;resizeParentMax=0;resizeLast=0;collapsible=1;marginBottom=0;whiteSpace=wrap;html=1;" parent="1" vertex="1">
          <mxGeometry x="40" y="320" width="140" height="240" as="geometry" />
        </mxCell>
        <mxCell id="MjbWYDBfPJHvn3c8HX3L-20" value="id" style="text;strokeColor=none;fillColor=none;align=left;verticalAlign=middle;spacingLeft=4;spacingRight=4;overflow=hidden;points=[[0,0.5],[1,0.5]];portConstraint=eastwest;rotatable=0;whiteSpace=wrap;html=1;" parent="MjbWYDBfPJHvn3c8HX3L-19" vertex="1">
          <mxGeometry y="30" width="140" height="30" as="geometry" />
        </mxCell>
        <mxCell id="MjbWYDBfPJHvn3c8HX3L-21" value="name" style="text;strokeColor=none;fillColor=none;align=left;verticalAlign=middle;spacingLeft=4;spacingRight=4;overflow=hidden;points=[[0,0.5],[1,0.5]];portConstraint=eastwest;rotatable=0;whiteSpace=wrap;html=1;" parent="MjbWYDBfPJHvn3c8HX3L-19" vertex="1">
          <mxGeometry y="60" width="140" height="30" as="geometry" />
        </mxCell>
        <mxCell id="MjbWYDBfPJHvn3c8HX3L-22" value="descripcion" style="text;strokeColor=none;fillColor=none;align=left;verticalAlign=middle;spacingLeft=4;spacingRight=4;overflow=hidden;points=[[0,0.5],[1,0.5]];portConstraint=eastwest;rotatable=0;whiteSpace=wrap;html=1;" parent="MjbWYDBfPJHvn3c8HX3L-19" vertex="1">
          <mxGeometry y="90" width="140" height="30" as="geometry" />
        </mxCell>
        <mxCell id="MjbWYDBfPJHvn3c8HX3L-23" value="service_type_id" style="text;strokeColor=none;fillColor=none;align=left;verticalAlign=middle;spacingLeft=4;spacingRight=4;overflow=hidden;points=[[0,0.5],[1,0.5]];portConstraint=eastwest;rotatable=0;whiteSpace=wrap;html=1;" parent="MjbWYDBfPJHvn3c8HX3L-19" vertex="1">
          <mxGeometry y="120" width="140" height="30" as="geometry" />
        </mxCell>
        <mxCell id="MjbWYDBfPJHvn3c8HX3L-24" value="tiempo_de atenc" style="text;strokeColor=none;fillColor=none;align=left;verticalAlign=middle;spacingLeft=4;spacingRight=4;overflow=hidden;points=[[0,0.5],[1,0.5]];portConstraint=eastwest;rotatable=0;whiteSpace=wrap;html=1;" parent="MjbWYDBfPJHvn3c8HX3L-19" vertex="1">
          <mxGeometry y="150" width="140" height="30" as="geometry" />
        </mxCell>
        <mxCell id="MjbWYDBfPJHvn3c8HX3L-25" value="prioridad_id" style="text;strokeColor=none;fillColor=none;align=left;verticalAlign=middle;spacingLeft=4;spacingRight=4;overflow=hidden;points=[[0,0.5],[1,0.5]];portConstraint=eastwest;rotatable=0;whiteSpace=wrap;html=1;" parent="MjbWYDBfPJHvn3c8HX3L-19" vertex="1">
          <mxGeometry y="180" width="140" height="30" as="geometry" />
        </mxCell>
        <mxCell id="MjbWYDBfPJHvn3c8HX3L-26" value="empresa_id" style="text;strokeColor=none;fillColor=none;align=left;verticalAlign=middle;spacingLeft=4;spacingRight=4;overflow=hidden;points=[[0,0.5],[1,0.5]];portConstraint=eastwest;rotatable=0;whiteSpace=wrap;html=1;" parent="MjbWYDBfPJHvn3c8HX3L-19" vertex="1">
          <mxGeometry y="210" width="140" height="30" as="geometry" />
        </mxCell>
        <mxCell id="MjbWYDBfPJHvn3c8HX3L-27" value="" style="edgeStyle=entityRelationEdgeStyle;fontSize=12;html=1;endArrow=ERoneToMany;startArrow=ERzeroToOne;rounded=0;exitX=1;exitY=0.5;exitDx=0;exitDy=0;entryX=0;entryY=0.5;entryDx=0;entryDy=0;" parent="1" source="MjbWYDBfPJHvn3c8HX3L-5" target="MjbWYDBfPJHvn3c8HX3L-15" edge="1">
          <mxGeometry width="100" height="100" relative="1" as="geometry">
            <mxPoint x="320" y="275" as="sourcePoint" />
            <mxPoint x="400" y="230" as="targetPoint" />
            <Array as="points">
              <mxPoint x="200" y="140" />
              <mxPoint x="170" y="100" />
            </Array>
          </mxGeometry>
        </mxCell>
        <mxCell id="MjbWYDBfPJHvn3c8HX3L-28" value="" style="edgeStyle=entityRelationEdgeStyle;fontSize=12;html=1;endArrow=ERoneToMany;rounded=0;exitX=1;exitY=0.5;exitDx=0;exitDy=0;entryX=0;entryY=0.5;entryDx=0;entryDy=0;" parent="1" source="MjbWYDBfPJHvn3c8HX3L-14" target="MjbWYDBfPJHvn3c8HX3L-12" edge="1">
          <mxGeometry width="100" height="100" relative="1" as="geometry">
            <mxPoint x="550" y="360" as="sourcePoint" />
            <mxPoint x="650" y="260" as="targetPoint" />
            <Array as="points">
              <mxPoint x="410" y="370" />
              <mxPoint x="640" y="300" />
              <mxPoint x="590" y="330" />
            </Array>
          </mxGeometry>
        </mxCell>
        <mxCell id="MjbWYDBfPJHvn3c8HX3L-29" value="Roles" style="swimlane;fontStyle=0;childLayout=stackLayout;horizontal=1;startSize=26;horizontalStack=0;resizeParent=1;resizeParentMax=0;resizeLast=0;collapsible=1;marginBottom=0;align=center;fontSize=14;" parent="1" vertex="1">
          <mxGeometry x="680" y="427" width="110" height="56" as="geometry" />
        </mxCell>
        <mxCell id="MjbWYDBfPJHvn3c8HX3L-30" value="id" style="text;strokeColor=none;fillColor=none;spacingLeft=4;spacingRight=4;overflow=hidden;rotatable=0;points=[[0,0.5],[1,0.5]];portConstraint=eastwest;fontSize=12;whiteSpace=wrap;html=1;" parent="MjbWYDBfPJHvn3c8HX3L-29" vertex="1">
          <mxGeometry y="26" width="110" height="30" as="geometry" />
        </mxCell>
        <mxCell id="MjbWYDBfPJHvn3c8HX3L-31" value="" style="edgeStyle=entityRelationEdgeStyle;fontSize=12;html=1;endArrow=ERzeroToMany;endFill=1;rounded=0;exitX=1;exitY=0.5;exitDx=0;exitDy=0;" parent="1" source="MjbWYDBfPJHvn3c8HX3L-30" target="MjbWYDBfPJHvn3c8HX3L-18" edge="1">
          <mxGeometry width="100" height="100" relative="1" as="geometry">
            <mxPoint x="610" y="450.99" as="sourcePoint" />
            <mxPoint x="757" y="300.0000000000002" as="targetPoint" />
            <Array as="points">
              <mxPoint x="540" y="335.99" />
              <mxPoint x="620" y="275.99" />
              <mxPoint x="620" y="325.99" />
            </Array>
          </mxGeometry>
        </mxCell>
        <mxCell id="MjbWYDBfPJHvn3c8HX3L-32" value="" style="edgeStyle=entityRelationEdgeStyle;fontSize=12;html=1;endArrow=ERzeroToMany;endFill=1;rounded=0;exitX=1;exitY=0.5;exitDx=0;exitDy=0;" parent="1" source="MjbWYDBfPJHvn3c8HX3L-5" target="MjbWYDBfPJHvn3c8HX3L-23" edge="1">
          <mxGeometry width="100" height="100" relative="1" as="geometry">
            <mxPoint x="20" y="90" as="sourcePoint" />
            <mxPoint x="100" y="570" as="targetPoint" />
            <Array as="points">
              <mxPoint x="170" y="515" />
            </Array>
          </mxGeometry>
        </mxCell>
        <mxCell id="MjbWYDBfPJHvn3c8HX3L-33" value="" style="edgeStyle=orthogonalEdgeStyle;rounded=0;orthogonalLoop=1;jettySize=auto;html=1;" parent="1" source="MjbWYDBfPJHvn3c8HX3L-34" target="MjbWYDBfPJHvn3c8HX3L-26" edge="1">
          <mxGeometry relative="1" as="geometry" />
        </mxCell>
        <mxCell id="MjbWYDBfPJHvn3c8HX3L-34" value="prioridad" style="swimlane;fontStyle=0;childLayout=stackLayout;horizontal=1;startSize=26;horizontalStack=0;resizeParent=1;resizeParentMax=0;resizeLast=0;collapsible=1;marginBottom=0;align=center;fontSize=14;" parent="1" vertex="1">
          <mxGeometry x="-150" y="680" width="160" height="146" as="geometry" />
        </mxCell>
        <mxCell id="MjbWYDBfPJHvn3c8HX3L-35" value="id" style="text;strokeColor=none;fillColor=none;spacingLeft=4;spacingRight=4;overflow=hidden;rotatable=0;points=[[0,0.5],[1,0.5]];portConstraint=eastwest;fontSize=12;whiteSpace=wrap;html=1;" parent="MjbWYDBfPJHvn3c8HX3L-34" vertex="1">
          <mxGeometry y="26" width="160" height="30" as="geometry" />
        </mxCell>
        <mxCell id="MjbWYDBfPJHvn3c8HX3L-36" value="name" style="text;strokeColor=none;fillColor=none;spacingLeft=4;spacingRight=4;overflow=hidden;rotatable=0;points=[[0,0.5],[1,0.5]];portConstraint=eastwest;fontSize=12;whiteSpace=wrap;html=1;" parent="MjbWYDBfPJHvn3c8HX3L-34" vertex="1">
          <mxGeometry y="56" width="160" height="30" as="geometry" />
        </mxCell>
        <mxCell id="MjbWYDBfPJHvn3c8HX3L-37" value="tiempo de atencion" style="text;strokeColor=none;fillColor=none;spacingLeft=4;spacingRight=4;overflow=hidden;rotatable=0;points=[[0,0.5],[1,0.5]];portConstraint=eastwest;fontSize=12;whiteSpace=wrap;html=1;" parent="MjbWYDBfPJHvn3c8HX3L-34" vertex="1">
          <mxGeometry y="86" width="160" height="30" as="geometry" />
        </mxCell>
        <mxCell id="MjbWYDBfPJHvn3c8HX3L-38" value="status&lt;br&gt;" style="text;strokeColor=none;fillColor=none;spacingLeft=4;spacingRight=4;overflow=hidden;rotatable=0;points=[[0,0.5],[1,0.5]];portConstraint=eastwest;fontSize=12;whiteSpace=wrap;html=1;" parent="MjbWYDBfPJHvn3c8HX3L-34" vertex="1">
          <mxGeometry y="116" width="160" height="30" as="geometry" />
        </mxCell>
        <mxCell id="MjbWYDBfPJHvn3c8HX3L-39" value="" style="edgeStyle=orthogonalEdgeStyle;rounded=0;orthogonalLoop=1;jettySize=auto;html=1;entryX=0.5;entryY=0;entryDx=0;entryDy=0;" parent="1" source="MjbWYDBfPJHvn3c8HX3L-40" target="MjbWYDBfPJHvn3c8HX3L-4" edge="1">
          <mxGeometry relative="1" as="geometry">
            <Array as="points">
              <mxPoint x="85" y="50" />
            </Array>
          </mxGeometry>
        </mxCell>
        <mxCell id="MjbWYDBfPJHvn3c8HX3L-40" value="esta tabla es para crear el tipo de de proveedor de servicio&amp;nbsp;" style="shape=note;whiteSpace=wrap;html=1;backgroundOutline=1;darkOpacity=0.05;" parent="1" vertex="1">
          <mxGeometry x="20" y="-130" width="110" height="100" as="geometry" />
        </mxCell>
        <mxCell id="MjbWYDBfPJHvn3c8HX3L-41" value="" style="edgeStyle=orthogonalEdgeStyle;rounded=0;orthogonalLoop=1;jettySize=auto;html=1;entryX=0.379;entryY=1.033;entryDx=0;entryDy=0;entryPerimeter=0;" parent="1" source="MjbWYDBfPJHvn3c8HX3L-42" target="MjbWYDBfPJHvn3c8HX3L-16" edge="1">
          <mxGeometry relative="1" as="geometry">
            <mxPoint x="365" y="200" as="targetPoint" />
          </mxGeometry>
        </mxCell>
        <mxCell id="MjbWYDBfPJHvn3c8HX3L-42" value="Esta tabla contiene las empresas, para la parte de los proveedores creamos una empresa genérica que diga Proveedores&lt;br&gt;&lt;br&gt;Proveedores : tendrá todos los usuarios que tengan el rol proveedor" style="shape=note;whiteSpace=wrap;html=1;backgroundOutline=1;darkOpacity=0.05;" parent="1" vertex="1">
          <mxGeometry x="279" y="200" width="270" height="120" as="geometry" />
        </mxCell>
        <mxCell id="MjbWYDBfPJHvn3c8HX3L-43" value="roles_tipoticket" style="swimlane;fontStyle=0;childLayout=stackLayout;horizontal=1;startSize=30;horizontalStack=0;resizeParent=1;resizeParentMax=0;resizeLast=0;collapsible=1;marginBottom=0;whiteSpace=wrap;html=1;" parent="1" vertex="1">
          <mxGeometry x="460" y="465" width="140" height="120" as="geometry" />
        </mxCell>
        <mxCell id="MjbWYDBfPJHvn3c8HX3L-44" value="id" style="text;strokeColor=none;fillColor=none;align=left;verticalAlign=middle;spacingLeft=4;spacingRight=4;overflow=hidden;points=[[0,0.5],[1,0.5]];portConstraint=eastwest;rotatable=0;whiteSpace=wrap;html=1;" parent="MjbWYDBfPJHvn3c8HX3L-43" vertex="1">
          <mxGeometry y="30" width="140" height="30" as="geometry" />
        </mxCell>
        <mxCell id="MjbWYDBfPJHvn3c8HX3L-45" value="tipo_ticket_id" style="text;strokeColor=none;fillColor=none;align=left;verticalAlign=middle;spacingLeft=4;spacingRight=4;overflow=hidden;points=[[0,0.5],[1,0.5]];portConstraint=eastwest;rotatable=0;whiteSpace=wrap;html=1;" parent="MjbWYDBfPJHvn3c8HX3L-43" vertex="1">
          <mxGeometry y="60" width="140" height="30" as="geometry" />
        </mxCell>
        <mxCell id="MjbWYDBfPJHvn3c8HX3L-46" value="roles_id" style="text;strokeColor=none;fillColor=none;align=left;verticalAlign=middle;spacingLeft=4;spacingRight=4;overflow=hidden;points=[[0,0.5],[1,0.5]];portConstraint=eastwest;rotatable=0;whiteSpace=wrap;html=1;" parent="MjbWYDBfPJHvn3c8HX3L-43" vertex="1">
          <mxGeometry y="90" width="140" height="30" as="geometry" />
        </mxCell>
        <mxCell id="MjbWYDBfPJHvn3c8HX3L-47" value="" style="edgeStyle=orthogonalEdgeStyle;rounded=0;orthogonalLoop=1;jettySize=auto;html=1;entryX=0.514;entryY=1.033;entryDx=0;entryDy=0;entryPerimeter=0;" parent="1" source="MjbWYDBfPJHvn3c8HX3L-48" target="MjbWYDBfPJHvn3c8HX3L-46" edge="1">
          <mxGeometry relative="1" as="geometry" />
        </mxCell>
        <mxCell id="MjbWYDBfPJHvn3c8HX3L-48" value="&lt;br&gt;Esta tabla&amp;nbsp; asignamos que rol puede reportar cada tipo de ticket ejemplo: supplier -&amp;gt; error de recolecciones&amp;nbsp;&amp;nbsp;" style="shape=note;whiteSpace=wrap;html=1;backgroundOutline=1;darkOpacity=0.05;" parent="1" vertex="1">
          <mxGeometry x="400" y="630" width="270" height="120" as="geometry" />
        </mxCell>
        <mxCell id="MjbWYDBfPJHvn3c8HX3L-49" value="" style="edgeStyle=entityRelationEdgeStyle;fontSize=12;html=1;endArrow=ERoneToMany;rounded=0;exitX=1;exitY=0.5;exitDx=0;exitDy=0;" parent="1" target="MjbWYDBfPJHvn3c8HX3L-45" edge="1">
          <mxGeometry width="100" height="100" relative="1" as="geometry">
            <mxPoint x="180" y="395" as="sourcePoint" />
            <mxPoint x="460" y="360" as="targetPoint" />
          </mxGeometry>
        </mxCell>
        <mxCell id="MjbWYDBfPJHvn3c8HX3L-50" value="" style="edgeStyle=entityRelationEdgeStyle;fontSize=12;html=1;endArrow=ERoneToMany;rounded=0;exitX=0;exitY=0.5;exitDx=0;exitDy=0;entryX=1;entryY=0.5;entryDx=0;entryDy=0;" parent="1" source="MjbWYDBfPJHvn3c8HX3L-30" target="MjbWYDBfPJHvn3c8HX3L-46" edge="1">
          <mxGeometry width="100" height="100" relative="1" as="geometry">
            <mxPoint x="360" y="460" as="sourcePoint" />
            <mxPoint x="460" y="360" as="targetPoint" />
            <Array as="points">
              <mxPoint x="570" y="380" />
            </Array>
          </mxGeometry>
        </mxCell>
        <mxCell id="MjbWYDBfPJHvn3c8HX3L-51" value="ticket" style="swimlane;fontStyle=0;childLayout=stackLayout;horizontal=1;startSize=26;horizontalStack=0;resizeParent=1;resizeParentMax=0;resizeLast=0;collapsible=1;marginBottom=0;align=center;fontSize=14;" parent="1" vertex="1">
          <mxGeometry x="-100" y="-550" width="290" height="176" as="geometry" />
        </mxCell>
        <mxCell id="MjbWYDBfPJHvn3c8HX3L-52" value="tipo_ticket_id" style="text;strokeColor=none;fillColor=none;spacingLeft=4;spacingRight=4;overflow=hidden;rotatable=0;points=[[0,0.5],[1,0.5]];portConstraint=eastwest;fontSize=12;whiteSpace=wrap;html=1;" parent="MjbWYDBfPJHvn3c8HX3L-51" vertex="1">
          <mxGeometry y="26" width="290" height="30" as="geometry" />
        </mxCell>
        <mxCell id="MjbWYDBfPJHvn3c8HX3L-53" value="objeto&amp;nbsp; &amp;nbsp;---&amp;nbsp; puede ser de garantia , ordenes etc" style="text;strokeColor=none;fillColor=none;spacingLeft=4;spacingRight=4;overflow=hidden;rotatable=0;points=[[0,0.5],[1,0.5]];portConstraint=eastwest;fontSize=12;whiteSpace=wrap;html=1;" parent="MjbWYDBfPJHvn3c8HX3L-51" vertex="1">
          <mxGeometry y="56" width="290" height="30" as="geometry" />
        </mxCell>
        <mxCell id="MjbWYDBfPJHvn3c8HX3L-54" value="users_id" style="text;strokeColor=none;fillColor=none;spacingLeft=4;spacingRight=4;overflow=hidden;rotatable=0;points=[[0,0.5],[1,0.5]];portConstraint=eastwest;fontSize=12;whiteSpace=wrap;html=1;" parent="MjbWYDBfPJHvn3c8HX3L-51" vertex="1">
          <mxGeometry y="86" width="290" height="30" as="geometry" />
        </mxCell>
        <mxCell id="MjbWYDBfPJHvn3c8HX3L-55" value="fecha_creacion&lt;br&gt;" style="text;strokeColor=none;fillColor=none;spacingLeft=4;spacingRight=4;overflow=hidden;rotatable=0;points=[[0,0.5],[1,0.5]];portConstraint=eastwest;fontSize=12;whiteSpace=wrap;html=1;" parent="MjbWYDBfPJHvn3c8HX3L-51" vertex="1">
          <mxGeometry y="116" width="290" height="30" as="geometry" />
        </mxCell>
        <mxCell id="MjbWYDBfPJHvn3c8HX3L-56" value="campos JSONB{ .... }" style="text;strokeColor=none;fillColor=none;spacingLeft=4;spacingRight=4;overflow=hidden;rotatable=0;points=[[0,0.5],[1,0.5]];portConstraint=eastwest;fontSize=12;whiteSpace=wrap;html=1;" parent="MjbWYDBfPJHvn3c8HX3L-51" vertex="1">
          <mxGeometry y="146" width="290" height="30" as="geometry" />
        </mxCell>
        <mxCell id="MjbWYDBfPJHvn3c8HX3L-57" value="" style="image;aspect=fixed;html=1;points=[];align=center;fontSize=12;image=img/lib/azure2/databases/Azure_Database_PostgreSQL_Server.svg;" parent="1" vertex="1">
          <mxGeometry x="-110" y="-194" width="48" height="64" as="geometry" />
        </mxCell>
        <mxCell id="MjbWYDBfPJHvn3c8HX3L-58" value="MONGO DB" style="text;html=1;align=center;verticalAlign=middle;resizable=0;points=[];autosize=1;strokeColor=none;fillColor=none;" parent="1" vertex="1">
          <mxGeometry x="-130" y="-1290" width="90" height="30" as="geometry" />
        </mxCell>
        <mxCell id="MjbWYDBfPJHvn3c8HX3L-59" value="Formulario" style="swimlane;fontStyle=0;childLayout=stackLayout;horizontal=1;startSize=30;horizontalStack=0;resizeParent=1;resizeParentMax=0;resizeLast=0;collapsible=1;marginBottom=0;whiteSpace=wrap;html=1;" parent="1" vertex="1">
          <mxGeometry x="-230" y="240" width="140" height="120" as="geometry" />
        </mxCell>
        <mxCell id="MjbWYDBfPJHvn3c8HX3L-60" value="id" style="text;strokeColor=none;fillColor=none;align=left;verticalAlign=middle;spacingLeft=4;spacingRight=4;overflow=hidden;points=[[0,0.5],[1,0.5]];portConstraint=eastwest;rotatable=0;whiteSpace=wrap;html=1;" parent="MjbWYDBfPJHvn3c8HX3L-59" vertex="1">
          <mxGeometry y="30" width="140" height="30" as="geometry" />
        </mxCell>
        <mxCell id="MjbWYDBfPJHvn3c8HX3L-61" value="tipo_ticket_id" style="text;strokeColor=none;fillColor=none;align=left;verticalAlign=middle;spacingLeft=4;spacingRight=4;overflow=hidden;points=[[0,0.5],[1,0.5]];portConstraint=eastwest;rotatable=0;whiteSpace=wrap;html=1;" parent="MjbWYDBfPJHvn3c8HX3L-59" vertex="1">
          <mxGeometry y="60" width="140" height="30" as="geometry" />
        </mxCell>
        <mxCell id="MjbWYDBfPJHvn3c8HX3L-63" value="requiere (si el campo es requerido)" style="text;strokeColor=none;fillColor=none;align=left;verticalAlign=middle;spacingLeft=4;spacingRight=4;overflow=hidden;points=[[0,0.5],[1,0.5]];portConstraint=eastwest;rotatable=0;whiteSpace=wrap;html=1;" parent="MjbWYDBfPJHvn3c8HX3L-59" vertex="1">
          <mxGeometry y="90" width="140" height="30" as="geometry" />
        </mxCell>
        <mxCell id="MjbWYDBfPJHvn3c8HX3L-64" value="tipo_ticket_users" style="swimlane;fontStyle=0;childLayout=stackLayout;horizontal=1;startSize=30;horizontalStack=0;resizeParent=1;resizeParentMax=0;resizeLast=0;collapsible=1;marginBottom=0;whiteSpace=wrap;html=1;" parent="1" vertex="1">
          <mxGeometry x="740" y="560" width="140" height="150" as="geometry" />
        </mxCell>
        <mxCell id="MjbWYDBfPJHvn3c8HX3L-65" value="id" style="text;strokeColor=none;fillColor=none;align=left;verticalAlign=middle;spacingLeft=4;spacingRight=4;overflow=hidden;points=[[0,0.5],[1,0.5]];portConstraint=eastwest;rotatable=0;whiteSpace=wrap;html=1;" parent="MjbWYDBfPJHvn3c8HX3L-64" vertex="1">
          <mxGeometry y="30" width="140" height="30" as="geometry" />
        </mxCell>
        <mxCell id="MjbWYDBfPJHvn3c8HX3L-66" value="users_id" style="text;strokeColor=none;fillColor=none;align=left;verticalAlign=middle;spacingLeft=4;spacingRight=4;overflow=hidden;points=[[0,0.5],[1,0.5]];portConstraint=eastwest;rotatable=0;whiteSpace=wrap;html=1;" parent="MjbWYDBfPJHvn3c8HX3L-64" vertex="1">
          <mxGeometry y="60" width="140" height="30" as="geometry" />
        </mxCell>
        <mxCell id="MjbWYDBfPJHvn3c8HX3L-67" value="tipo_ticket_id" style="text;strokeColor=none;fillColor=none;align=left;verticalAlign=middle;spacingLeft=4;spacingRight=4;overflow=hidden;points=[[0,0.5],[1,0.5]];portConstraint=eastwest;rotatable=0;whiteSpace=wrap;html=1;" parent="MjbWYDBfPJHvn3c8HX3L-64" vertex="1">
          <mxGeometry y="90" width="140" height="30" as="geometry" />
        </mxCell>
        <mxCell id="MjbWYDBfPJHvn3c8HX3L-68" value="status" style="text;strokeColor=none;fillColor=none;align=left;verticalAlign=middle;spacingLeft=4;spacingRight=4;overflow=hidden;points=[[0,0.5],[1,0.5]];portConstraint=eastwest;rotatable=0;whiteSpace=wrap;html=1;" parent="MjbWYDBfPJHvn3c8HX3L-64" vertex="1">
          <mxGeometry y="120" width="140" height="30" as="geometry" />
        </mxCell>
        <mxCell id="MjbWYDBfPJHvn3c8HX3L-69" value="" style="edgeStyle=orthogonalEdgeStyle;rounded=0;orthogonalLoop=1;jettySize=auto;html=1;" parent="1" source="MjbWYDBfPJHvn3c8HX3L-70" target="MjbWYDBfPJHvn3c8HX3L-63" edge="1">
          <mxGeometry relative="1" as="geometry" />
        </mxCell>
        <mxCell id="MjbWYDBfPJHvn3c8HX3L-70" value="CAMPOS_FORMULARIOS" style="swimlane;fontStyle=0;childLayout=stackLayout;horizontal=1;startSize=30;horizontalStack=0;resizeParent=1;resizeParentMax=0;resizeLast=0;collapsible=1;marginBottom=0;whiteSpace=wrap;html=1;" parent="1" vertex="1">
          <mxGeometry x="-245" y="480" width="160" height="150" as="geometry" />
        </mxCell>
        <mxCell id="MjbWYDBfPJHvn3c8HX3L-71" value="ID" style="text;strokeColor=none;fillColor=none;align=left;verticalAlign=middle;spacingLeft=4;spacingRight=4;overflow=hidden;points=[[0,0.5],[1,0.5]];portConstraint=eastwest;rotatable=0;whiteSpace=wrap;html=1;" parent="MjbWYDBfPJHvn3c8HX3L-70" vertex="1">
          <mxGeometry y="30" width="160" height="30" as="geometry" />
        </mxCell>
        <mxCell id="MjbWYDBfPJHvn3c8HX3L-72" value="NAME" style="text;strokeColor=none;fillColor=none;align=left;verticalAlign=middle;spacingLeft=4;spacingRight=4;overflow=hidden;points=[[0,0.5],[1,0.5]];portConstraint=eastwest;rotatable=0;whiteSpace=wrap;html=1;" parent="MjbWYDBfPJHvn3c8HX3L-70" vertex="1">
          <mxGeometry y="60" width="160" height="30" as="geometry" />
        </mxCell>
        <mxCell id="MjbWYDBfPJHvn3c8HX3L-73" value="tipo_componente" style="text;strokeColor=none;fillColor=none;align=left;verticalAlign=middle;spacingLeft=4;spacingRight=4;overflow=hidden;points=[[0,0.5],[1,0.5]];portConstraint=eastwest;rotatable=0;whiteSpace=wrap;html=1;" parent="MjbWYDBfPJHvn3c8HX3L-70" vertex="1">
          <mxGeometry y="90" width="160" height="30" as="geometry" />
        </mxCell>
        <mxCell id="MjbWYDBfPJHvn3c8HX3L-74" value="html_nombre componente&lt;br&gt;" style="text;strokeColor=none;fillColor=none;align=left;verticalAlign=middle;spacingLeft=4;spacingRight=4;overflow=hidden;points=[[0,0.5],[1,0.5]];portConstraint=eastwest;rotatable=0;whiteSpace=wrap;html=1;" parent="MjbWYDBfPJHvn3c8HX3L-70" vertex="1">
          <mxGeometry y="120" width="160" height="30" as="geometry" />
        </mxCell>
        <mxCell id="MjbWYDBfPJHvn3c8HX3L-75" value="" style="edgeStyle=orthogonalEdgeStyle;rounded=0;orthogonalLoop=1;jettySize=auto;html=1;" parent="1" source="MjbWYDBfPJHvn3c8HX3L-76" target="MjbWYDBfPJHvn3c8HX3L-60" edge="1">
          <mxGeometry relative="1" as="geometry" />
        </mxCell>
        <mxCell id="MjbWYDBfPJHvn3c8HX3L-76" value="es la union de tipo_ticket con campo_formularios, esto es para crear campos dinamicos o formularios dinamicos" style="shape=note;whiteSpace=wrap;html=1;backgroundOutline=1;darkOpacity=0.05;" parent="1" vertex="1">
          <mxGeometry x="-220" y="70" width="110" height="100" as="geometry" />
        </mxCell>
        <mxCell id="MjbWYDBfPJHvn3c8HX3L-77" value="" style="endArrow=classic;startArrow=classic;html=1;rounded=0;entryX=1;entryY=0.5;entryDx=0;entryDy=0;exitX=0;exitY=0.5;exitDx=0;exitDy=0;" parent="1" source="MjbWYDBfPJHvn3c8HX3L-20" target="MjbWYDBfPJHvn3c8HX3L-61" edge="1">
          <mxGeometry width="50" height="50" relative="1" as="geometry">
            <mxPoint x="350" y="350" as="sourcePoint" />
            <mxPoint x="400" y="300" as="targetPoint" />
          </mxGeometry>
        </mxCell>
        <mxCell id="MjbWYDBfPJHvn3c8HX3L-78" value="" style="edgeStyle=orthogonalEdgeStyle;rounded=0;orthogonalLoop=1;jettySize=auto;html=1;" parent="1" source="MjbWYDBfPJHvn3c8HX3L-79" target="MjbWYDBfPJHvn3c8HX3L-53" edge="1">
          <mxGeometry relative="1" as="geometry" />
        </mxCell>
        <mxCell id="MjbWYDBfPJHvn3c8HX3L-79" value="en campos : todos los campos dinamicos,&amp;nbsp;&lt;br&gt;&lt;br&gt;objeto: de de donde viene,&lt;br&gt;&lt;br&gt;users_id : el usuario que realiza la solicitud.&lt;br&gt;&lt;br&gt;" style="shape=note;whiteSpace=wrap;html=1;backgroundOutline=1;darkOpacity=0.05;" parent="1" vertex="1">
          <mxGeometry x="-62" y="-760" width="212" height="120" as="geometry" />
        </mxCell>
        <mxCell id="MjbWYDBfPJHvn3c8HX3L-80" value="STATUS_TICKET" style="swimlane;fontStyle=0;childLayout=stackLayout;horizontal=1;startSize=30;horizontalStack=0;resizeParent=1;resizeParentMax=0;resizeLast=0;collapsible=1;marginBottom=0;whiteSpace=wrap;html=1;" parent="1" vertex="1">
          <mxGeometry x="390" y="-550" width="200" height="150" as="geometry" />
        </mxCell>
        <mxCell id="MjbWYDBfPJHvn3c8HX3L-81" value="ticket_uid" style="text;strokeColor=none;fillColor=none;align=left;verticalAlign=middle;spacingLeft=4;spacingRight=4;overflow=hidden;points=[[0,0.5],[1,0.5]];portConstraint=eastwest;rotatable=0;whiteSpace=wrap;html=1;" parent="MjbWYDBfPJHvn3c8HX3L-80" vertex="1">
          <mxGeometry y="30" width="200" height="30" as="geometry" />
        </mxCell>
        <mxCell id="MjbWYDBfPJHvn3c8HX3L-82" value="status_name" style="text;strokeColor=none;fillColor=none;align=left;verticalAlign=middle;spacingLeft=4;spacingRight=4;overflow=hidden;points=[[0,0.5],[1,0.5]];portConstraint=eastwest;rotatable=0;whiteSpace=wrap;html=1;" parent="MjbWYDBfPJHvn3c8HX3L-80" vertex="1">
          <mxGeometry y="60" width="200" height="30" as="geometry" />
        </mxCell>
        <mxCell id="MjbWYDBfPJHvn3c8HX3L-83" value="fecha&amp;nbsp;" style="text;strokeColor=none;fillColor=none;align=left;verticalAlign=middle;spacingLeft=4;spacingRight=4;overflow=hidden;points=[[0,0.5],[1,0.5]];portConstraint=eastwest;rotatable=0;whiteSpace=wrap;html=1;" parent="MjbWYDBfPJHvn3c8HX3L-80" vertex="1">
          <mxGeometry y="90" width="200" height="30" as="geometry" />
        </mxCell>
        <mxCell id="MjbWYDBfPJHvn3c8HX3L-84" value="users_id" style="text;strokeColor=none;fillColor=none;align=left;verticalAlign=middle;spacingLeft=4;spacingRight=4;overflow=hidden;points=[[0,0.5],[1,0.5]];portConstraint=eastwest;rotatable=0;whiteSpace=wrap;html=1;" parent="MjbWYDBfPJHvn3c8HX3L-80" vertex="1">
          <mxGeometry y="120" width="200" height="30" as="geometry" />
        </mxCell>
        <mxCell id="MjbWYDBfPJHvn3c8HX3L-85" value="historial de asigna" style="swimlane;fontStyle=0;childLayout=stackLayout;horizontal=1;startSize=30;horizontalStack=0;resizeParent=1;resizeParentMax=0;resizeLast=0;collapsible=1;marginBottom=0;whiteSpace=wrap;html=1;" parent="1" vertex="1">
          <mxGeometry x="450" y="-775" width="140" height="150" as="geometry" />
        </mxCell>
        <mxCell id="MjbWYDBfPJHvn3c8HX3L-86" value="ticket_uid" style="text;strokeColor=none;fillColor=none;align=left;verticalAlign=middle;spacingLeft=4;spacingRight=4;overflow=hidden;points=[[0,0.5],[1,0.5]];portConstraint=eastwest;rotatable=0;whiteSpace=wrap;html=1;" parent="MjbWYDBfPJHvn3c8HX3L-85" vertex="1">
          <mxGeometry y="30" width="140" height="30" as="geometry" />
        </mxCell>
        <mxCell id="MjbWYDBfPJHvn3c8HX3L-87" value="users_id (quien realiza la asignacion )" style="text;strokeColor=none;fillColor=none;align=left;verticalAlign=middle;spacingLeft=4;spacingRight=4;overflow=hidden;points=[[0,0.5],[1,0.5]];portConstraint=eastwest;rotatable=0;whiteSpace=wrap;html=1;" parent="MjbWYDBfPJHvn3c8HX3L-85" vertex="1">
          <mxGeometry y="60" width="140" height="30" as="geometry" />
        </mxCell>
        <mxCell id="MjbWYDBfPJHvn3c8HX3L-88" value="fecha" style="text;strokeColor=none;fillColor=none;align=left;verticalAlign=middle;spacingLeft=4;spacingRight=4;overflow=hidden;points=[[0,0.5],[1,0.5]];portConstraint=eastwest;rotatable=0;whiteSpace=wrap;html=1;" parent="MjbWYDBfPJHvn3c8HX3L-85" vertex="1">
          <mxGeometry y="90" width="140" height="30" as="geometry" />
        </mxCell>
        <mxCell id="MjbWYDBfPJHvn3c8HX3L-89" value="users_id (a quien se asigna )" style="text;strokeColor=none;fillColor=none;align=left;verticalAlign=middle;spacingLeft=4;spacingRight=4;overflow=hidden;points=[[0,0.5],[1,0.5]];portConstraint=eastwest;rotatable=0;whiteSpace=wrap;html=1;" parent="MjbWYDBfPJHvn3c8HX3L-85" vertex="1">
          <mxGeometry y="120" width="140" height="30" as="geometry" />
        </mxCell>
        <mxCell id="MjbWYDBfPJHvn3c8HX3L-90" value="" style="edgeStyle=orthogonalEdgeStyle;rounded=0;orthogonalLoop=1;jettySize=auto;html=1;" parent="1" source="MjbWYDBfPJHvn3c8HX3L-91" target="MjbWYDBfPJHvn3c8HX3L-86" edge="1">
          <mxGeometry relative="1" as="geometry" />
        </mxCell>
        <mxCell id="MjbWYDBfPJHvn3c8HX3L-91" value="el historial de asignacion de ticket, puede ser en el caso de cuando es cogido por un usuario o es asignado a otra persona&amp;nbsp;" style="shape=note;whiteSpace=wrap;html=1;backgroundOutline=1;darkOpacity=0.05;" parent="1" vertex="1">
          <mxGeometry x="800" y="-790" width="150" height="120" as="geometry" />
        </mxCell>
        <mxCell id="MjbWYDBfPJHvn3c8HX3L-92" value="" style="edgeStyle=entityRelationEdgeStyle;fontSize=12;html=1;endArrow=ERoneToMany;rounded=0;" parent="1" target="MjbWYDBfPJHvn3c8HX3L-81" edge="1">
          <mxGeometry width="100" height="100" relative="1" as="geometry">
            <mxPoint x="190" y="-460" as="sourcePoint" />
            <mxPoint x="290" y="-560" as="targetPoint" />
          </mxGeometry>
        </mxCell>
        <mxCell id="MjbWYDBfPJHvn3c8HX3L-93" value="" style="edgeStyle=entityRelationEdgeStyle;fontSize=12;html=1;endArrow=ERoneToMany;rounded=0;" parent="1" source="MjbWYDBfPJHvn3c8HX3L-52" target="MjbWYDBfPJHvn3c8HX3L-86" edge="1">
          <mxGeometry width="100" height="100" relative="1" as="geometry">
            <mxPoint x="190" y="-510" as="sourcePoint" />
            <mxPoint x="290" y="-610" as="targetPoint" />
          </mxGeometry>
        </mxCell>
        <mxCell id="MjbWYDBfPJHvn3c8HX3L-94" value="intera_ticket" style="swimlane;fontStyle=0;childLayout=stackLayout;horizontal=1;startSize=26;horizontalStack=0;resizeParent=1;resizeParentMax=0;resizeLast=0;collapsible=1;marginBottom=0;align=center;fontSize=14;" parent="1" vertex="1">
          <mxGeometry x="340" y="-1130" width="160" height="260" as="geometry" />
        </mxCell>
        <mxCell id="MjbWYDBfPJHvn3c8HX3L-95" value="ticket_uid" style="text;strokeColor=none;fillColor=none;spacingLeft=4;spacingRight=4;overflow=hidden;rotatable=0;points=[[0,0.5],[1,0.5]];portConstraint=eastwest;fontSize=12;whiteSpace=wrap;html=1;" parent="MjbWYDBfPJHvn3c8HX3L-94" vertex="1">
          <mxGeometry y="26" width="160" height="30" as="geometry" />
        </mxCell>
        <mxCell id="MjbWYDBfPJHvn3c8HX3L-96" value="&amp;nbsp;type (salidas, entradas )" style="text;strokeColor=none;fillColor=none;spacingLeft=4;spacingRight=4;overflow=hidden;rotatable=0;points=[[0,0.5],[1,0.5]];portConstraint=eastwest;fontSize=12;whiteSpace=wrap;html=1;" parent="MjbWYDBfPJHvn3c8HX3L-94" vertex="1">
          <mxGeometry y="56" width="160" height="30" as="geometry" />
        </mxCell>
        <mxCell id="MjbWYDBfPJHvn3c8HX3L-97" value="mensaje" style="text;strokeColor=none;fillColor=none;spacingLeft=4;spacingRight=4;overflow=hidden;rotatable=0;points=[[0,0.5],[1,0.5]];portConstraint=eastwest;fontSize=12;whiteSpace=wrap;html=1;" parent="MjbWYDBfPJHvn3c8HX3L-94" vertex="1">
          <mxGeometry y="86" width="160" height="30" as="geometry" />
        </mxCell>
        <mxCell id="MjbWYDBfPJHvn3c8HX3L-98" value="url S3" style="text;strokeColor=none;fillColor=none;spacingLeft=4;spacingRight=4;overflow=hidden;rotatable=0;points=[[0,0.5],[1,0.5]];portConstraint=eastwest;fontSize=12;whiteSpace=wrap;html=1;" parent="MjbWYDBfPJHvn3c8HX3L-94" vertex="1">
          <mxGeometry y="116" width="160" height="30" as="geometry" />
        </mxCell>
        <mxCell id="MjbWYDBfPJHvn3c8HX3L-99" value="users_id&amp;nbsp;" style="text;strokeColor=none;fillColor=none;spacingLeft=4;spacingRight=4;overflow=hidden;rotatable=0;points=[[0,0.5],[1,0.5]];portConstraint=eastwest;fontSize=12;whiteSpace=wrap;html=1;" parent="MjbWYDBfPJHvn3c8HX3L-94" vertex="1">
          <mxGeometry y="146" width="160" height="30" as="geometry" />
        </mxCell>
        <mxCell id="MjbWYDBfPJHvn3c8HX3L-100" value="fecha" style="text;strokeColor=none;fillColor=none;spacingLeft=4;spacingRight=4;overflow=hidden;rotatable=0;points=[[0,0.5],[1,0.5]];portConstraint=eastwest;fontSize=12;whiteSpace=wrap;html=1;" parent="MjbWYDBfPJHvn3c8HX3L-94" vertex="1">
          <mxGeometry y="176" width="160" height="30" as="geometry" />
        </mxCell>
        <mxCell id="MjbWYDBfPJHvn3c8HX3L-101" value="tiempo_espera (dejar guardado para reportes mas faciles)" style="text;strokeColor=none;fillColor=none;spacingLeft=4;spacingRight=4;overflow=hidden;rotatable=0;points=[[0,0.5],[1,0.5]];portConstraint=eastwest;fontSize=12;whiteSpace=wrap;html=1;" parent="MjbWYDBfPJHvn3c8HX3L-94" vertex="1">
          <mxGeometry y="206" width="160" height="54" as="geometry" />
        </mxCell>
        <mxCell id="MjbWYDBfPJHvn3c8HX3L-102" value="" style="edgeStyle=entityRelationEdgeStyle;fontSize=12;html=1;endArrow=ERoneToMany;rounded=0;" parent="1" source="MjbWYDBfPJHvn3c8HX3L-52" target="MjbWYDBfPJHvn3c8HX3L-95" edge="1">
          <mxGeometry width="100" height="100" relative="1" as="geometry">
            <mxPoint x="190" y="-510" as="sourcePoint" />
            <mxPoint x="290" y="-610" as="targetPoint" />
          </mxGeometry>
        </mxCell>
        <mxCell id="MjbWYDBfPJHvn3c8HX3L-62" value="campos_formulario_id" style="text;strokeColor=none;fillColor=none;align=left;verticalAlign=middle;spacingLeft=4;spacingRight=4;overflow=hidden;points=[[0,0.5],[1,0.5]];portConstraint=eastwest;rotatable=0;whiteSpace=wrap;html=1;" parent="1" vertex="1">
          <mxGeometry x="-260" y="399" width="140" height="30" as="geometry" />
        </mxCell>
      </root>
    </mxGraphModel>
  </diagram>
  <diagram id="GSUsNTU1SXdacRka6mWq" name="base de datos final Cas">
    <mxGraphModel dx="3957" dy="5750" grid="1" gridSize="10" guides="1" tooltips="1" connect="1" arrows="1" fold="1" page="1" pageScale="1" pageWidth="1169" pageHeight="827" math="0" shadow="0">
      <root>
        <mxCell id="0" />
        <mxCell id="1" parent="0" />
        <mxCell id="Z3TldACRxIbbbuszhCg8-1" value="Meaning" style="html=1;outlineConnect=0;whiteSpace=wrap;fillColor=#CCCCFF;shape=mxgraph.archimate3.application;appType=meaning;archiType=oct;" parent="1" vertex="1">
          <mxGeometry x="816.25" y="-2940" width="150" height="75" as="geometry" />
        </mxCell>
        <mxCell id="Z3TldACRxIbbbuszhCg8-2" value="" style="whiteSpace=wrap;html=1;aspect=fixed;fillColor=#E6D0DE;" parent="1" vertex="1">
          <mxGeometry x="-1181" y="-3900" width="3231" height="3231" as="geometry" />
        </mxCell>
        <mxCell id="Z3TldACRxIbbbuszhCg8-3" value="" style="edgeStyle=elbowEdgeStyle;fontSize=12;html=1;endArrow=ERoneToMany;rounded=0;entryX=0;entryY=0.5;entryDx=0;entryDy=0;elbow=vertical;exitX=0;exitY=0.5;exitDx=0;exitDy=0;" parent="1" source="Z3TldACRxIbbbuszhCg8-73" target="Z3TldACRxIbbbuszhCg8-115" edge="1">
          <mxGeometry width="100" height="100" relative="1" as="geometry">
            <mxPoint x="840" y="-2573.5" as="sourcePoint" />
            <mxPoint x="690" y="-2408.5" as="targetPoint" />
            <Array as="points">
              <mxPoint x="700" y="-2583.5" />
            </Array>
          </mxGeometry>
        </mxCell>
        <mxCell id="Z3TldACRxIbbbuszhCg8-72" value="CAS_REQUEST(COLAS)" style="swimlane;fontStyle=0;childLayout=stackLayout;horizontal=1;startSize=26;horizontalStack=0;resizeParent=1;resizeParentMax=0;resizeLast=0;collapsible=1;marginBottom=0;align=center;fontSize=14;fillColor=#99CCFF;" parent="1" vertex="1">
          <mxGeometry x="720" y="-2853.5" width="190" height="100" as="geometry" />
        </mxCell>
        <mxCell id="Z3TldACRxIbbbuszhCg8-73" value="ID_CAS" style="text;strokeColor=none;fillColor=none;spacingLeft=4;spacingRight=4;overflow=hidden;rotatable=0;points=[[0,0.5],[1,0.5]];portConstraint=eastwest;fontSize=12;whiteSpace=wrap;html=1;" parent="Z3TldACRxIbbbuszhCg8-72" vertex="1">
          <mxGeometry y="26" width="190" height="30" as="geometry" />
        </mxCell>
        <mxCell id="Z3TldACRxIbbbuszhCg8-75" value="userId" style="text;strokeColor=none;fillColor=none;spacingLeft=4;spacingRight=4;overflow=hidden;rotatable=0;points=[[0,0.5],[1,0.5]];portConstraint=eastwest;fontSize=12;whiteSpace=wrap;html=1;" parent="Z3TldACRxIbbbuszhCg8-72" vertex="1">
          <mxGeometry y="56" width="190" height="44" as="geometry" />
        </mxCell>
        <mxCell id="Z3TldACRxIbbbuszhCg8-78" value="CAS_DATA_OBJET" style="swimlane;fontStyle=0;childLayout=stackLayout;horizontal=1;startSize=26;horizontalStack=0;resizeParent=1;resizeParentMax=0;resizeLast=0;collapsible=1;marginBottom=0;align=center;fontSize=14;fillColor=#99CCFF;" parent="1" vertex="1">
          <mxGeometry x="1260" y="-2873.5" width="200" height="218" as="geometry" />
        </mxCell>
        <mxCell id="Z3TldACRxIbbbuszhCg8-79" value="id" style="text;strokeColor=none;fillColor=none;spacingLeft=4;spacingRight=4;overflow=hidden;rotatable=0;points=[[0,0.5],[1,0.5]];portConstraint=eastwest;fontSize=12;whiteSpace=wrap;html=1;" parent="Z3TldACRxIbbbuszhCg8-78" vertex="1">
          <mxGeometry y="26" width="200" height="30" as="geometry" />
        </mxCell>
        <mxCell id="Z3TldACRxIbbbuszhCg8-80" value="CAS_CHAT_ID" style="text;strokeColor=none;fillColor=none;spacingLeft=4;spacingRight=4;overflow=hidden;rotatable=0;points=[[0,0.5],[1,0.5]];portConstraint=eastwest;fontSize=12;whiteSpace=wrap;html=1;" parent="Z3TldACRxIbbbuszhCg8-78" vertex="1">
          <mxGeometry y="56" width="200" height="30" as="geometry" />
        </mxCell>
        <mxCell id="Z3TldACRxIbbbuszhCg8-81" value="object_id( id de la orden, garantia, erc)" style="text;strokeColor=none;fillColor=none;spacingLeft=4;spacingRight=4;overflow=hidden;rotatable=0;points=[[0,0.5],[1,0.5]];portConstraint=eastwest;fontSize=12;whiteSpace=wrap;html=1;" parent="Z3TldACRxIbbbuszhCg8-78" vertex="1">
          <mxGeometry y="86" width="200" height="44" as="geometry" />
        </mxCell>
        <mxCell id="KwM5DHQT_85kAxJ4NMOj-2" value="object_type (garantia, orden , etc)" style="text;strokeColor=none;fillColor=none;spacingLeft=4;spacingRight=4;overflow=hidden;rotatable=0;points=[[0,0.5],[1,0.5]];portConstraint=eastwest;fontSize=12;whiteSpace=wrap;html=1;" parent="Z3TldACRxIbbbuszhCg8-78" vertex="1">
          <mxGeometry y="130" width="200" height="44" as="geometry" />
        </mxCell>
        <mxCell id="Z3TldACRxIbbbuszhCg8-82" value="users_id" style="text;strokeColor=none;fillColor=none;spacingLeft=4;spacingRight=4;overflow=hidden;rotatable=0;points=[[0,0.5],[1,0.5]];portConstraint=eastwest;fontSize=12;whiteSpace=wrap;html=1;" parent="Z3TldACRxIbbbuszhCg8-78" vertex="1">
          <mxGeometry y="174" width="200" height="44" as="geometry" />
        </mxCell>
        <mxCell id="Z3TldACRxIbbbuszhCg8-83" value="" style="edgeStyle=orthogonalEdgeStyle;rounded=0;orthogonalLoop=1;jettySize=auto;html=1;" parent="1" source="Z3TldACRxIbbbuszhCg8-84" target="Z3TldACRxIbbbuszhCg8-81" edge="1">
          <mxGeometry relative="1" as="geometry" />
        </mxCell>
        <mxCell id="Z3TldACRxIbbbuszhCg8-84" value="EN ESTA TABLA AMARRAMOS CADA OBJETO ID , CON EL CAS INICIAL&amp;nbsp;" style="shape=note;whiteSpace=wrap;html=1;backgroundOutline=1;darkOpacity=0.05;fillColor=#66FF66;" parent="1" vertex="1">
          <mxGeometry x="1500" y="-2913" width="160" height="120" as="geometry" />
        </mxCell>
        <mxCell id="Z3TldACRxIbbbuszhCg8-85" value="" style="edgeStyle=orthogonalEdgeStyle;rounded=0;orthogonalLoop=1;jettySize=auto;html=1;" parent="1" source="Z3TldACRxIbbbuszhCg8-86" target="Z3TldACRxIbbbuszhCg8-121" edge="1">
          <mxGeometry relative="1" as="geometry" />
        </mxCell>
        <mxCell id="Z3TldACRxIbbbuszhCg8-86" value="CAS_chat&#xa;" style="swimlane;fontStyle=0;childLayout=stackLayout;horizontal=1;startSize=30;horizontalStack=0;resizeParent=1;resizeParentMax=0;resizeLast=0;collapsible=1;marginBottom=0;align=center;fontSize=14;fillColor=#99CCFF;" parent="1" vertex="1">
          <mxGeometry x="1030" y="-2290" width="160" height="120" as="geometry" />
        </mxCell>
        <mxCell id="Z3TldACRxIbbbuszhCg8-90" value="user_id&amp;nbsp;" style="text;strokeColor=none;fillColor=none;spacingLeft=4;spacingRight=4;overflow=hidden;rotatable=0;points=[[0,0.5],[1,0.5]];portConstraint=eastwest;fontSize=12;whiteSpace=wrap;html=1;" parent="Z3TldACRxIbbbuszhCg8-86" vertex="1">
          <mxGeometry y="30" width="160" height="30" as="geometry" />
        </mxCell>
        <mxCell id="Z3TldACRxIbbbuszhCg8-91" value="fecha_creacion" style="text;strokeColor=none;fillColor=none;spacingLeft=4;spacingRight=4;overflow=hidden;rotatable=0;points=[[0,0.5],[1,0.5]];portConstraint=eastwest;fontSize=12;whiteSpace=wrap;html=1;" parent="Z3TldACRxIbbbuszhCg8-86" vertex="1">
          <mxGeometry y="60" width="160" height="30" as="geometry" />
        </mxCell>
        <mxCell id="ggjGAcgSAJ4QRRsHwEoL-16" value="empresa_id" style="text;strokeColor=none;fillColor=none;spacingLeft=4;spacingRight=4;overflow=hidden;rotatable=0;points=[[0,0.5],[1,0.5]];portConstraint=eastwest;fontSize=12;whiteSpace=wrap;html=1;" parent="Z3TldACRxIbbbuszhCg8-86" vertex="1">
          <mxGeometry y="90" width="160" height="30" as="geometry" />
        </mxCell>
        <mxCell id="Z3TldACRxIbbbuszhCg8-95" value="" style="edgeStyle=orthogonalEdgeStyle;rounded=0;orthogonalLoop=1;jettySize=auto;html=1;" parent="1" source="Z3TldACRxIbbbuszhCg8-96" target="Z3TldACRxIbbbuszhCg8-91" edge="1">
          <mxGeometry relative="1" as="geometry">
            <mxPoint x="1057.4400000000005" y="-2102.096" as="targetPoint" />
          </mxGeometry>
        </mxCell>
        <mxCell id="Z3TldACRxIbbbuszhCg8-96" value="esta tabla la amarramos a la solicitud , y sobre la solicitud trabajamos los interacciones que se tiene con el usuario&amp;nbsp;" style="shape=note;whiteSpace=wrap;html=1;backgroundOutline=1;darkOpacity=0.05;fillColor=#33FF33;" parent="1" vertex="1">
          <mxGeometry x="877.5" y="-2050" width="182.5" height="120" as="geometry" />
        </mxCell>
        <mxCell id="Z3TldACRxIbbbuszhCg8-97" value="CAS_TICKET" style="swimlane;fontStyle=0;childLayout=stackLayout;horizontal=1;startSize=26;horizontalStack=0;resizeParent=1;resizeParentMax=0;resizeLast=0;collapsible=1;marginBottom=0;align=center;fontSize=14;fillColor=#99CCFF;" parent="1" vertex="1">
          <mxGeometry x="1400" y="-2433.5" width="290" height="176" as="geometry" />
        </mxCell>
        <mxCell id="Z3TldACRxIbbbuszhCg8-98" value="objeto&amp;nbsp; &amp;nbsp;---&amp;nbsp; puede ser de garantia , ordenes etc" style="text;strokeColor=none;fillColor=none;spacingLeft=4;spacingRight=4;overflow=hidden;rotatable=0;points=[[0,0.5],[1,0.5]];portConstraint=eastwest;fontSize=12;whiteSpace=wrap;html=1;" parent="Z3TldACRxIbbbuszhCg8-97" vertex="1">
          <mxGeometry y="26" width="290" height="30" as="geometry" />
        </mxCell>
        <mxCell id="Z3TldACRxIbbbuszhCg8-99" value="users_id" style="text;strokeColor=none;fillColor=none;spacingLeft=4;spacingRight=4;overflow=hidden;rotatable=0;points=[[0,0.5],[1,0.5]];portConstraint=eastwest;fontSize=12;whiteSpace=wrap;html=1;" parent="Z3TldACRxIbbbuszhCg8-97" vertex="1">
          <mxGeometry y="56" width="290" height="30" as="geometry" />
        </mxCell>
        <mxCell id="Z3TldACRxIbbbuszhCg8-100" value="fecha_creacion&lt;br&gt;" style="text;strokeColor=none;fillColor=none;spacingLeft=4;spacingRight=4;overflow=hidden;rotatable=0;points=[[0,0.5],[1,0.5]];portConstraint=eastwest;fontSize=12;whiteSpace=wrap;html=1;" parent="Z3TldACRxIbbbuszhCg8-97" vertex="1">
          <mxGeometry y="86" width="290" height="30" as="geometry" />
        </mxCell>
        <mxCell id="Z3TldACRxIbbbuszhCg8-101" value="campos JSONB{ .... }" style="text;strokeColor=none;fillColor=none;spacingLeft=4;spacingRight=4;overflow=hidden;rotatable=0;points=[[0,0.5],[1,0.5]];portConstraint=eastwest;fontSize=12;whiteSpace=wrap;html=1;" parent="Z3TldACRxIbbbuszhCg8-97" vertex="1">
          <mxGeometry y="116" width="290" height="30" as="geometry" />
        </mxCell>
        <mxCell id="Z3TldACRxIbbbuszhCg8-102" value="CAS_DATA_OBJET_uid" style="text;strokeColor=none;fillColor=none;spacingLeft=4;spacingRight=4;overflow=hidden;rotatable=0;points=[[0,0.5],[1,0.5]];portConstraint=eastwest;fontSize=12;whiteSpace=wrap;html=1;" parent="Z3TldACRxIbbbuszhCg8-97" vertex="1">
          <mxGeometry y="146" width="290" height="30" as="geometry" />
        </mxCell>
        <mxCell id="Z3TldACRxIbbbuszhCg8-103" value="" style="edgeStyle=entityRelationEdgeStyle;fontSize=12;html=1;endArrow=ERmandOne;startArrow=ERmandOne;rounded=0;" parent="1" source="Z3TldACRxIbbbuszhCg8-82" target="Z3TldACRxIbbbuszhCg8-102" edge="1">
          <mxGeometry width="100" height="100" relative="1" as="geometry">
            <mxPoint x="1350" y="-2653.5" as="sourcePoint" />
            <mxPoint x="1450" y="-2753.5" as="targetPoint" />
          </mxGeometry>
        </mxCell>
        <mxCell id="Z3TldACRxIbbbuszhCg8-104" value="" style="edgeStyle=orthogonalEdgeStyle;rounded=0;orthogonalLoop=1;jettySize=auto;html=1;entryX=0.5;entryY=0;entryDx=0;entryDy=0;" parent="1" source="Z3TldACRxIbbbuszhCg8-105" target="Z3TldACRxIbbbuszhCg8-97" edge="1">
          <mxGeometry relative="1" as="geometry" />
        </mxCell>
        <mxCell id="Z3TldACRxIbbbuszhCg8-105" value="cada id de solicitud tendrá un ticket independiste&amp;nbsp;" style="shape=note;whiteSpace=wrap;html=1;backgroundOutline=1;darkOpacity=0.05;fillColor=#33FF33;" parent="1" vertex="1">
          <mxGeometry x="1400" y="-2573.5" width="155" height="110" as="geometry" />
        </mxCell>
        <mxCell id="Z3TldACRxIbbbuszhCg8-106" value="CAS_STATUS_TICKET" style="swimlane;fontStyle=0;childLayout=stackLayout;horizontal=1;startSize=30;horizontalStack=0;resizeParent=1;resizeParentMax=0;resizeLast=0;collapsible=1;marginBottom=0;whiteSpace=wrap;html=1;fillColor=#99CCFF;" parent="1" vertex="1">
          <mxGeometry x="1790" y="-2593.5" width="200" height="180" as="geometry" />
        </mxCell>
        <mxCell id="Z3TldACRxIbbbuszhCg8-107" value="ticket_uid" style="text;strokeColor=none;fillColor=none;align=left;verticalAlign=middle;spacingLeft=4;spacingRight=4;overflow=hidden;points=[[0,0.5],[1,0.5]];portConstraint=eastwest;rotatable=0;whiteSpace=wrap;html=1;" parent="Z3TldACRxIbbbuszhCg8-106" vertex="1">
          <mxGeometry y="30" width="200" height="30" as="geometry" />
        </mxCell>
        <mxCell id="Z3TldACRxIbbbuszhCg8-108" value="status_name" style="text;strokeColor=none;fillColor=none;align=left;verticalAlign=middle;spacingLeft=4;spacingRight=4;overflow=hidden;points=[[0,0.5],[1,0.5]];portConstraint=eastwest;rotatable=0;whiteSpace=wrap;html=1;" parent="Z3TldACRxIbbbuszhCg8-106" vertex="1">
          <mxGeometry y="60" width="200" height="30" as="geometry" />
        </mxCell>
        <mxCell id="Z3TldACRxIbbbuszhCg8-109" value="fecha&amp;nbsp;" style="text;strokeColor=none;fillColor=none;align=left;verticalAlign=middle;spacingLeft=4;spacingRight=4;overflow=hidden;points=[[0,0.5],[1,0.5]];portConstraint=eastwest;rotatable=0;whiteSpace=wrap;html=1;" parent="Z3TldACRxIbbbuszhCg8-106" vertex="1">
          <mxGeometry y="90" width="200" height="30" as="geometry" />
        </mxCell>
        <mxCell id="Z3TldACRxIbbbuszhCg8-110" value="users_id" style="text;strokeColor=none;fillColor=none;align=left;verticalAlign=middle;spacingLeft=4;spacingRight=4;overflow=hidden;points=[[0,0.5],[1,0.5]];portConstraint=eastwest;rotatable=0;whiteSpace=wrap;html=1;" parent="Z3TldACRxIbbbuszhCg8-106" vertex="1">
          <mxGeometry y="120" width="200" height="30" as="geometry" />
        </mxCell>
        <mxCell id="Z3TldACRxIbbbuszhCg8-111" value="TIME_RESULT" style="text;strokeColor=none;fillColor=none;align=left;verticalAlign=middle;spacingLeft=4;spacingRight=4;overflow=hidden;points=[[0,0.5],[1,0.5]];portConstraint=eastwest;rotatable=0;whiteSpace=wrap;html=1;" parent="Z3TldACRxIbbbuszhCg8-106" vertex="1">
          <mxGeometry y="150" width="200" height="30" as="geometry" />
        </mxCell>
        <mxCell id="Z3TldACRxIbbbuszhCg8-112" value="" style="edgeStyle=entityRelationEdgeStyle;fontSize=12;html=1;endArrow=ERoneToMany;rounded=0;exitX=1.003;exitY=0.091;exitDx=0;exitDy=0;exitPerimeter=0;" parent="1" source="Z3TldACRxIbbbuszhCg8-97" target="Z3TldACRxIbbbuszhCg8-107" edge="1">
          <mxGeometry width="100" height="100" relative="1" as="geometry">
            <mxPoint x="1280" y="-2503.5" as="sourcePoint" />
            <mxPoint x="1380" y="-2603.5" as="targetPoint" />
          </mxGeometry>
        </mxCell>
        <mxCell id="Z3TldACRxIbbbuszhCg8-113" value="CAS_ASSIG_USER_SOPOR" style="swimlane;fontStyle=0;childLayout=stackLayout;horizontal=1;startSize=30;horizontalStack=0;resizeParent=1;resizeParentMax=0;resizeLast=0;collapsible=1;marginBottom=0;whiteSpace=wrap;html=1;fillColor=#66B2FF;" parent="1" vertex="1">
          <mxGeometry x="760" y="-2680" width="210" height="180" as="geometry" />
        </mxCell>
        <mxCell id="Z3TldACRxIbbbuszhCg8-116" value="fecha" style="text;strokeColor=none;fillColor=none;align=left;verticalAlign=middle;spacingLeft=4;spacingRight=4;overflow=hidden;points=[[0,0.5],[1,0.5]];portConstraint=eastwest;rotatable=0;whiteSpace=wrap;html=1;" parent="Z3TldACRxIbbbuszhCg8-113" vertex="1">
          <mxGeometry y="30" width="210" height="30" as="geometry" />
        </mxCell>
        <mxCell id="Z3TldACRxIbbbuszhCg8-114" value="users_id (quien realiza la asignacion )" style="text;strokeColor=none;fillColor=none;align=left;verticalAlign=middle;spacingLeft=4;spacingRight=4;overflow=hidden;points=[[0,0.5],[1,0.5]];portConstraint=eastwest;rotatable=0;whiteSpace=wrap;html=1;" parent="Z3TldACRxIbbbuszhCg8-113" vertex="1">
          <mxGeometry y="60" width="210" height="30" as="geometry" />
        </mxCell>
        <mxCell id="Z3TldACRxIbbbuszhCg8-117" value="users_id (a quien se asigna )" style="text;strokeColor=none;fillColor=none;align=left;verticalAlign=middle;spacingLeft=4;spacingRight=4;overflow=hidden;points=[[0,0.5],[1,0.5]];portConstraint=eastwest;rotatable=0;whiteSpace=wrap;html=1;" parent="Z3TldACRxIbbbuszhCg8-113" vertex="1">
          <mxGeometry y="90" width="210" height="30" as="geometry" />
        </mxCell>
        <mxCell id="Z3TldACRxIbbbuszhCg8-118" value="cas_chat_id" style="text;strokeColor=none;fillColor=none;align=left;verticalAlign=middle;spacingLeft=4;spacingRight=4;overflow=hidden;points=[[0,0.5],[1,0.5]];portConstraint=eastwest;rotatable=0;whiteSpace=wrap;html=1;" parent="Z3TldACRxIbbbuszhCg8-113" vertex="1">
          <mxGeometry y="120" width="210" height="30" as="geometry" />
        </mxCell>
        <mxCell id="Z3TldACRxIbbbuszhCg8-115" value="cas_request_id" style="text;strokeColor=none;fillColor=none;align=left;verticalAlign=middle;spacingLeft=4;spacingRight=4;overflow=hidden;points=[[0,0.5],[1,0.5]];portConstraint=eastwest;rotatable=0;whiteSpace=wrap;html=1;" parent="Z3TldACRxIbbbuszhCg8-113" vertex="1">
          <mxGeometry y="150" width="210" height="30" as="geometry" />
        </mxCell>
        <mxCell id="Z3TldACRxIbbbuszhCg8-120" value="" style="edgeStyle=orthogonalEdgeStyle;rounded=0;orthogonalLoop=1;jettySize=auto;html=1;" parent="1" source="Z3TldACRxIbbbuszhCg8-121" target="Z3TldACRxIbbbuszhCg8-116" edge="1">
          <mxGeometry relative="1" as="geometry" />
        </mxCell>
        <mxCell id="Z3TldACRxIbbbuszhCg8-121" value="el historial de asignacion de ticket, puede ser en el caso de cuando es cogido por un usuario o es asignado a otra persona&amp;nbsp;" style="shape=note;whiteSpace=wrap;html=1;backgroundOutline=1;darkOpacity=0.05;fillColor=#66FF66;" parent="1" vertex="1">
          <mxGeometry x="1040" y="-2600.25" width="160" height="140" as="geometry" />
        </mxCell>
        <mxCell id="Z3TldACRxIbbbuszhCg8-122" value="CAS_CHAT_STATUS" style="swimlane;fontStyle=0;childLayout=stackLayout;horizontal=1;startSize=30;horizontalStack=0;resizeParent=1;resizeParentMax=0;resizeLast=0;collapsible=1;marginBottom=0;whiteSpace=wrap;html=1;fillColor=#99CCFF;" parent="1" vertex="1">
          <mxGeometry x="1330" y="-2223.5" width="200" height="180" as="geometry" />
        </mxCell>
        <mxCell id="Z3TldACRxIbbbuszhCg8-123" value="CAS_CHAT_ID" style="text;strokeColor=none;fillColor=none;align=left;verticalAlign=middle;spacingLeft=4;spacingRight=4;overflow=hidden;points=[[0,0.5],[1,0.5]];portConstraint=eastwest;rotatable=0;whiteSpace=wrap;html=1;" parent="Z3TldACRxIbbbuszhCg8-122" vertex="1">
          <mxGeometry y="30" width="200" height="30" as="geometry" />
        </mxCell>
        <mxCell id="Z3TldACRxIbbbuszhCg8-124" value="status_name" style="text;strokeColor=none;fillColor=none;align=left;verticalAlign=middle;spacingLeft=4;spacingRight=4;overflow=hidden;points=[[0,0.5],[1,0.5]];portConstraint=eastwest;rotatable=0;whiteSpace=wrap;html=1;" parent="Z3TldACRxIbbbuszhCg8-122" vertex="1">
          <mxGeometry y="60" width="200" height="30" as="geometry" />
        </mxCell>
        <mxCell id="Z3TldACRxIbbbuszhCg8-125" value="fecha&amp;nbsp;" style="text;strokeColor=none;fillColor=none;align=left;verticalAlign=middle;spacingLeft=4;spacingRight=4;overflow=hidden;points=[[0,0.5],[1,0.5]];portConstraint=eastwest;rotatable=0;whiteSpace=wrap;html=1;" parent="Z3TldACRxIbbbuszhCg8-122" vertex="1">
          <mxGeometry y="90" width="200" height="30" as="geometry" />
        </mxCell>
        <mxCell id="Z3TldACRxIbbbuszhCg8-126" value="users_id" style="text;strokeColor=none;fillColor=none;align=left;verticalAlign=middle;spacingLeft=4;spacingRight=4;overflow=hidden;points=[[0,0.5],[1,0.5]];portConstraint=eastwest;rotatable=0;whiteSpace=wrap;html=1;" parent="Z3TldACRxIbbbuszhCg8-122" vertex="1">
          <mxGeometry y="120" width="200" height="30" as="geometry" />
        </mxCell>
        <mxCell id="Z3TldACRxIbbbuszhCg8-127" value="TIME_RESULT" style="text;strokeColor=none;fillColor=none;align=left;verticalAlign=middle;spacingLeft=4;spacingRight=4;overflow=hidden;points=[[0,0.5],[1,0.5]];portConstraint=eastwest;rotatable=0;whiteSpace=wrap;html=1;" parent="Z3TldACRxIbbbuszhCg8-122" vertex="1">
          <mxGeometry y="150" width="200" height="30" as="geometry" />
        </mxCell>
        <mxCell id="Z3TldACRxIbbbuszhCg8-128" value="" style="edgeStyle=entityRelationEdgeStyle;fontSize=12;html=1;endArrow=ERoneToMany;rounded=0;exitX=1;exitY=0.5;exitDx=0;exitDy=0;" parent="1" source="ggjGAcgSAJ4QRRsHwEoL-16" edge="1">
          <mxGeometry width="100" height="100" relative="1" as="geometry">
            <mxPoint x="1220" y="-2173.5" as="sourcePoint" />
            <mxPoint x="1327.92" y="-2172.54" as="targetPoint" />
            <Array as="points">
              <mxPoint x="1317.92" y="-2127.54" />
            </Array>
          </mxGeometry>
        </mxCell>
        <mxCell id="Z3TldACRxIbbbuszhCg8-129" value="" style="edgeStyle=orthogonalEdgeStyle;rounded=0;orthogonalLoop=1;jettySize=auto;html=1;" parent="1" source="Z3TldACRxIbbbuszhCg8-130" edge="1">
          <mxGeometry relative="1" as="geometry">
            <mxPoint x="910" y="-2782.5" as="targetPoint" />
          </mxGeometry>
        </mxCell>
        <mxCell id="Z3TldACRxIbbbuszhCg8-130" value="&lt;font style=&quot;font-size: 10px;&quot;&gt;ESTA TABLA TIENE LO QUE SE LE HACE REFERENTE A LA SOLICITUD INICIAL AL MOMENTO DE QUE SE CREA EL CASO DEL CAS&lt;/font&gt;" style="shape=note;whiteSpace=wrap;html=1;backgroundOutline=1;darkOpacity=0.05;fillColor=#66FF66;" parent="1" vertex="1">
          <mxGeometry x="950" y="-2873.5" width="230" height="130" as="geometry" />
        </mxCell>
        <mxCell id="Z3TldACRxIbbbuszhCg8-131" style="edgeStyle=orthogonalEdgeStyle;rounded=0;orthogonalLoop=1;jettySize=auto;html=1;exitX=0.5;exitY=1;exitDx=0;exitDy=0;" parent="1" source="Z3TldACRxIbbbuszhCg8-2" target="Z3TldACRxIbbbuszhCg8-2" edge="1">
          <mxGeometry relative="1" as="geometry" />
        </mxCell>
        <mxCell id="Z3TldACRxIbbbuszhCg8-133" value="CAS_TICKET_DESCRIPCION(NOTA)" style="swimlane;fontStyle=0;childLayout=stackLayout;horizontal=1;startSize=30;horizontalStack=0;resizeParent=1;resizeParentMax=0;resizeLast=0;collapsible=1;marginBottom=0;whiteSpace=wrap;html=1;fillColor=#99CCFF;" parent="1" vertex="1">
          <mxGeometry x="1780" y="-2353.5" width="220" height="180" as="geometry" />
        </mxCell>
        <mxCell id="Z3TldACRxIbbbuszhCg8-134" value="CAS_TICKET_ID" style="text;strokeColor=none;fillColor=none;align=left;verticalAlign=middle;spacingLeft=4;spacingRight=4;overflow=hidden;points=[[0,0.5],[1,0.5]];portConstraint=eastwest;rotatable=0;whiteSpace=wrap;html=1;" parent="Z3TldACRxIbbbuszhCg8-133" vertex="1">
          <mxGeometry y="30" width="220" height="30" as="geometry" />
        </mxCell>
        <mxCell id="Z3TldACRxIbbbuszhCg8-135" value="descriocion" style="text;strokeColor=none;fillColor=none;align=left;verticalAlign=middle;spacingLeft=4;spacingRight=4;overflow=hidden;points=[[0,0.5],[1,0.5]];portConstraint=eastwest;rotatable=0;whiteSpace=wrap;html=1;" parent="Z3TldACRxIbbbuszhCg8-133" vertex="1">
          <mxGeometry y="60" width="220" height="30" as="geometry" />
        </mxCell>
        <mxCell id="Z3TldACRxIbbbuszhCg8-136" value="fecha&amp;nbsp;" style="text;strokeColor=none;fillColor=none;align=left;verticalAlign=middle;spacingLeft=4;spacingRight=4;overflow=hidden;points=[[0,0.5],[1,0.5]];portConstraint=eastwest;rotatable=0;whiteSpace=wrap;html=1;" parent="Z3TldACRxIbbbuszhCg8-133" vertex="1">
          <mxGeometry y="90" width="220" height="30" as="geometry" />
        </mxCell>
        <mxCell id="Z3TldACRxIbbbuszhCg8-137" value="users_id" style="text;strokeColor=none;fillColor=none;align=left;verticalAlign=middle;spacingLeft=4;spacingRight=4;overflow=hidden;points=[[0,0.5],[1,0.5]];portConstraint=eastwest;rotatable=0;whiteSpace=wrap;html=1;" parent="Z3TldACRxIbbbuszhCg8-133" vertex="1">
          <mxGeometry y="120" width="220" height="30" as="geometry" />
        </mxCell>
        <mxCell id="Z3TldACRxIbbbuszhCg8-138" value="TIME_RESULT" style="text;strokeColor=none;fillColor=none;align=left;verticalAlign=middle;spacingLeft=4;spacingRight=4;overflow=hidden;points=[[0,0.5],[1,0.5]];portConstraint=eastwest;rotatable=0;whiteSpace=wrap;html=1;" parent="Z3TldACRxIbbbuszhCg8-133" vertex="1">
          <mxGeometry y="150" width="220" height="30" as="geometry" />
        </mxCell>
        <mxCell id="Z3TldACRxIbbbuszhCg8-139" value="" style="edgeStyle=entityRelationEdgeStyle;fontSize=12;html=1;endArrow=ERoneToMany;rounded=0;entryX=0;entryY=0.5;entryDx=0;entryDy=0;" parent="1" source="Z3TldACRxIbbbuszhCg8-97" target="Z3TldACRxIbbbuszhCg8-134" edge="1">
          <mxGeometry width="100" height="100" relative="1" as="geometry">
            <mxPoint x="1710" y="-2293.5" as="sourcePoint" />
            <mxPoint x="1810" y="-2393.5" as="targetPoint" />
          </mxGeometry>
        </mxCell>
        <mxCell id="Z3TldACRxIbbbuszhCg8-140" value="" style="edgeStyle=orthogonalEdgeStyle;rounded=0;orthogonalLoop=1;jettySize=auto;html=1;" parent="1" source="Z3TldACRxIbbbuszhCg8-141" target="Z3TldACRxIbbbuszhCg8-138" edge="1">
          <mxGeometry relative="1" as="geometry" />
        </mxCell>
        <mxCell id="Z3TldACRxIbbbuszhCg8-141" value="las notas o seguimiento de cada ticket&lt;br&gt;" style="shape=note;whiteSpace=wrap;html=1;backgroundOutline=1;darkOpacity=0.05;fillColor=#66FF66;" parent="1" vertex="1">
          <mxGeometry x="1765" y="-2073.5" width="195" height="120" as="geometry" />
        </mxCell>
        <mxCell id="Z3TldACRxIbbbuszhCg8-199" value="" style="edgeStyle=entityRelationEdgeStyle;fontSize=12;html=1;endArrow=ERoneToMany;startArrow=ERzeroToOne;rounded=0;entryX=0;entryY=0.5;entryDx=0;entryDy=0;" parent="1" target="Z3TldACRxIbbbuszhCg8-80" edge="1">
          <mxGeometry width="100" height="100" relative="1" as="geometry">
            <mxPoint x="1220" y="-2182.5" as="sourcePoint" />
            <mxPoint x="1160" y="-2865.5" as="targetPoint" />
          </mxGeometry>
        </mxCell>
        <mxCell id="Z3TldACRxIbbbuszhCg8-119" value="" style="edgeStyle=entityRelationEdgeStyle;fontSize=12;html=1;endArrow=ERoneToMany;rounded=0;entryX=1;entryY=0.5;entryDx=0;entryDy=0;" parent="1" source="Z3TldACRxIbbbuszhCg8-86" target="Z3TldACRxIbbbuszhCg8-118" edge="1">
          <mxGeometry width="100" height="100" relative="1" as="geometry">
            <mxPoint x="990" y="-2040.5" as="sourcePoint" />
            <mxPoint x="890.0000000000005" y="-2286.5" as="targetPoint" />
            <Array as="points">
              <mxPoint x="1060" y="-2133.5" />
            </Array>
          </mxGeometry>
        </mxCell>
        <mxCell id="ggjGAcgSAJ4QRRsHwEoL-1" value="conversations_interactions" style="swimlane;fontStyle=0;childLayout=stackLayout;horizontal=1;startSize=26;horizontalStack=0;resizeParent=1;resizeParentMax=0;resizeLast=0;collapsible=1;marginBottom=0;align=center;fontSize=14;" parent="1" vertex="1">
          <mxGeometry x="1230" y="-1973.5" width="190" height="250" as="geometry" />
        </mxCell>
        <mxCell id="ggjGAcgSAJ4QRRsHwEoL-2" value="cas_chat_id" style="text;strokeColor=none;fillColor=none;spacingLeft=4;spacingRight=4;overflow=hidden;rotatable=0;points=[[0,0.5],[1,0.5]];portConstraint=eastwest;fontSize=12;whiteSpace=wrap;html=1;" parent="ggjGAcgSAJ4QRRsHwEoL-1" vertex="1">
          <mxGeometry y="26" width="190" height="30" as="geometry" />
        </mxCell>
        <mxCell id="ggjGAcgSAJ4QRRsHwEoL-3" value="&amp;nbsp;type (salidas, entradas )" style="text;strokeColor=none;fillColor=none;spacingLeft=4;spacingRight=4;overflow=hidden;rotatable=0;points=[[0,0.5],[1,0.5]];portConstraint=eastwest;fontSize=12;whiteSpace=wrap;html=1;" parent="ggjGAcgSAJ4QRRsHwEoL-1" vertex="1">
          <mxGeometry y="56" width="190" height="30" as="geometry" />
        </mxCell>
        <mxCell id="ggjGAcgSAJ4QRRsHwEoL-4" value="mensaje" style="text;strokeColor=none;fillColor=none;spacingLeft=4;spacingRight=4;overflow=hidden;rotatable=0;points=[[0,0.5],[1,0.5]];portConstraint=eastwest;fontSize=12;whiteSpace=wrap;html=1;" parent="ggjGAcgSAJ4QRRsHwEoL-1" vertex="1">
          <mxGeometry y="86" width="190" height="30" as="geometry" />
        </mxCell>
        <mxCell id="ggjGAcgSAJ4QRRsHwEoL-5" value="url S3" style="text;strokeColor=none;fillColor=none;spacingLeft=4;spacingRight=4;overflow=hidden;rotatable=0;points=[[0,0.5],[1,0.5]];portConstraint=eastwest;fontSize=12;whiteSpace=wrap;html=1;" parent="ggjGAcgSAJ4QRRsHwEoL-1" vertex="1">
          <mxGeometry y="116" width="190" height="30" as="geometry" />
        </mxCell>
        <mxCell id="ggjGAcgSAJ4QRRsHwEoL-6" value="users_id&amp;nbsp;" style="text;strokeColor=none;fillColor=none;spacingLeft=4;spacingRight=4;overflow=hidden;rotatable=0;points=[[0,0.5],[1,0.5]];portConstraint=eastwest;fontSize=12;whiteSpace=wrap;html=1;" parent="ggjGAcgSAJ4QRRsHwEoL-1" vertex="1">
          <mxGeometry y="146" width="190" height="30" as="geometry" />
        </mxCell>
        <mxCell id="ggjGAcgSAJ4QRRsHwEoL-7" value="fecha" style="text;strokeColor=none;fillColor=none;spacingLeft=4;spacingRight=4;overflow=hidden;rotatable=0;points=[[0,0.5],[1,0.5]];portConstraint=eastwest;fontSize=12;whiteSpace=wrap;html=1;" parent="ggjGAcgSAJ4QRRsHwEoL-1" vertex="1">
          <mxGeometry y="176" width="190" height="30" as="geometry" />
        </mxCell>
        <mxCell id="ggjGAcgSAJ4QRRsHwEoL-8" value="tiempo_espera (dejar guardado para reportes mas faciles)" style="text;strokeColor=none;fillColor=none;spacingLeft=4;spacingRight=4;overflow=hidden;rotatable=0;points=[[0,0.5],[1,0.5]];portConstraint=eastwest;fontSize=12;whiteSpace=wrap;html=1;" parent="ggjGAcgSAJ4QRRsHwEoL-1" vertex="1">
          <mxGeometry y="206" width="190" height="44" as="geometry" />
        </mxCell>
        <mxCell id="ggjGAcgSAJ4QRRsHwEoL-10" value="" style="edgeStyle=entityRelationEdgeStyle;fontSize=12;html=1;endArrow=ERzeroToMany;startArrow=ERmandOne;rounded=0;entryX=0;entryY=0.5;entryDx=0;entryDy=0;" parent="1" source="Z3TldACRxIbbbuszhCg8-86" target="ggjGAcgSAJ4QRRsHwEoL-2" edge="1">
          <mxGeometry width="100" height="100" relative="1" as="geometry">
            <mxPoint x="1420" y="-1933.5" as="sourcePoint" />
            <mxPoint x="1510" y="-2033.5" as="targetPoint" />
            <Array as="points">
              <mxPoint x="1260" y="-2003.5" />
              <mxPoint x="1230" y="-1993.5" />
              <mxPoint x="1230" y="-1983.5" />
            </Array>
          </mxGeometry>
        </mxCell>
        <mxCell id="KwM5DHQT_85kAxJ4NMOj-3" style="edgeStyle=orthogonalEdgeStyle;rounded=0;orthogonalLoop=1;jettySize=auto;html=1;exitX=0;exitY=0;exitDx=55;exitDy=0;exitPerimeter=0;entryX=0.189;entryY=-0.04;entryDx=0;entryDy=0;entryPerimeter=0;" parent="1" source="Z3TldACRxIbbbuszhCg8-121" target="Z3TldACRxIbbbuszhCg8-121" edge="1">
          <mxGeometry relative="1" as="geometry" />
        </mxCell>
        <mxCell id="sGzbmqUjZjw-RyDDuB3r-1" value="&lt;div style=&quot;color: rgb(204, 204, 204); background-color: rgb(31, 31, 31); font-family: Consolas, &amp;quot;Courier New&amp;quot;, monospace; font-size: 14px; line-height: 19px;&quot;&gt;cas_service_types&lt;/div&gt;" style="swimlane;fontStyle=0;childLayout=stackLayout;horizontal=1;startSize=30;horizontalStack=0;resizeParent=1;resizeParentMax=0;resizeLast=0;collapsible=1;marginBottom=0;whiteSpace=wrap;html=1;fillColor=#0066CC;" parent="1" vertex="1">
          <mxGeometry x="-540" y="-3520" width="140" height="120" as="geometry" />
        </mxCell>
        <mxCell id="sGzbmqUjZjw-RyDDuB3r-2" value="id" style="text;strokeColor=none;fillColor=none;align=left;verticalAlign=middle;spacingLeft=4;spacingRight=4;overflow=hidden;points=[[0,0.5],[1,0.5]];portConstraint=eastwest;rotatable=0;whiteSpace=wrap;html=1;" parent="sGzbmqUjZjw-RyDDuB3r-1" vertex="1">
          <mxGeometry y="30" width="140" height="30" as="geometry" />
        </mxCell>
        <mxCell id="sGzbmqUjZjw-RyDDuB3r-3" value="name" style="text;strokeColor=none;fillColor=none;align=left;verticalAlign=middle;spacingLeft=4;spacingRight=4;overflow=hidden;points=[[0,0.5],[1,0.5]];portConstraint=eastwest;rotatable=0;whiteSpace=wrap;html=1;" parent="sGzbmqUjZjw-RyDDuB3r-1" vertex="1">
          <mxGeometry y="60" width="140" height="30" as="geometry" />
        </mxCell>
        <mxCell id="sGzbmqUjZjw-RyDDuB3r-4" value="descripcion&amp;nbsp;" style="text;strokeColor=none;fillColor=none;align=left;verticalAlign=middle;spacingLeft=4;spacingRight=4;overflow=hidden;points=[[0,0.5],[1,0.5]];portConstraint=eastwest;rotatable=0;whiteSpace=wrap;html=1;" parent="sGzbmqUjZjw-RyDDuB3r-1" vertex="1">
          <mxGeometry y="90" width="140" height="30" as="geometry" />
        </mxCell>
        <mxCell id="sGzbmqUjZjw-RyDDuB3r-5" value="empresa_user" style="swimlane;fontStyle=0;childLayout=stackLayout;horizontal=1;startSize=30;horizontalStack=0;resizeParent=1;resizeParentMax=0;resizeLast=0;collapsible=1;marginBottom=0;whiteSpace=wrap;html=1;fillColor=#0066CC;" parent="1" vertex="1">
          <mxGeometry x="84" y="-3570" width="140" height="110" as="geometry" />
        </mxCell>
        <mxCell id="sGzbmqUjZjw-RyDDuB3r-6" value="id" style="text;strokeColor=none;fillColor=none;align=left;verticalAlign=middle;spacingLeft=4;spacingRight=4;overflow=hidden;points=[[0,0.5],[1,0.5]];portConstraint=eastwest;rotatable=0;whiteSpace=wrap;html=1;" parent="sGzbmqUjZjw-RyDDuB3r-5" vertex="1">
          <mxGeometry y="30" width="140" height="30" as="geometry" />
        </mxCell>
        <mxCell id="sGzbmqUjZjw-RyDDuB3r-7" value="users_id" style="text;strokeColor=none;fillColor=none;align=left;verticalAlign=middle;spacingLeft=4;spacingRight=4;overflow=hidden;points=[[0,0.5],[1,0.5]];portConstraint=eastwest;rotatable=0;whiteSpace=wrap;html=1;" parent="sGzbmqUjZjw-RyDDuB3r-5" vertex="1">
          <mxGeometry y="60" width="140" height="30" as="geometry" />
        </mxCell>
        <mxCell id="sGzbmqUjZjw-RyDDuB3r-8" value="empresa_id" style="text;strokeColor=none;fillColor=none;align=left;verticalAlign=middle;spacingLeft=4;spacingRight=4;overflow=hidden;points=[[0,0.5],[1,0.5]];portConstraint=eastwest;rotatable=0;whiteSpace=wrap;html=1;" parent="sGzbmqUjZjw-RyDDuB3r-5" vertex="1">
          <mxGeometry y="90" width="140" height="20" as="geometry" />
        </mxCell>
        <mxCell id="sGzbmqUjZjw-RyDDuB3r-9" value="&lt;div style=&quot;color: rgb(204, 204, 204); background-color: rgb(31, 31, 31); font-family: Consolas, &amp;quot;Courier New&amp;quot;, monospace; font-size: 14px; line-height: 19px;&quot;&gt;cas_companies&lt;/div&gt;" style="swimlane;fontStyle=0;childLayout=stackLayout;horizontal=1;startSize=30;horizontalStack=0;resizeParent=1;resizeParentMax=0;resizeLast=0;collapsible=1;marginBottom=0;whiteSpace=wrap;html=1;fillColor=#0066CC;" parent="1" vertex="1">
          <mxGeometry x="-180" y="-3600" width="140" height="120" as="geometry" />
        </mxCell>
        <mxCell id="sGzbmqUjZjw-RyDDuB3r-10" value="id" style="text;strokeColor=none;fillColor=none;align=left;verticalAlign=middle;spacingLeft=4;spacingRight=4;overflow=hidden;points=[[0,0.5],[1,0.5]];portConstraint=eastwest;rotatable=0;whiteSpace=wrap;html=1;" parent="sGzbmqUjZjw-RyDDuB3r-9" vertex="1">
          <mxGeometry y="30" width="140" height="30" as="geometry" />
        </mxCell>
        <mxCell id="sGzbmqUjZjw-RyDDuB3r-11" value="service_type_id" style="text;strokeColor=none;fillColor=none;align=left;verticalAlign=middle;spacingLeft=4;spacingRight=4;overflow=hidden;points=[[0,0.5],[1,0.5]];portConstraint=eastwest;rotatable=0;whiteSpace=wrap;html=1;" parent="sGzbmqUjZjw-RyDDuB3r-9" vertex="1">
          <mxGeometry y="60" width="140" height="30" as="geometry" />
        </mxCell>
        <mxCell id="sGzbmqUjZjw-RyDDuB3r-12" value="name" style="text;strokeColor=none;fillColor=none;align=left;verticalAlign=middle;spacingLeft=4;spacingRight=4;overflow=hidden;points=[[0,0.5],[1,0.5]];portConstraint=eastwest;rotatable=0;whiteSpace=wrap;html=1;" parent="sGzbmqUjZjw-RyDDuB3r-9" vertex="1">
          <mxGeometry y="90" width="140" height="30" as="geometry" />
        </mxCell>
        <mxCell id="sGzbmqUjZjw-RyDDuB3r-13" value="Users&lt;br&gt;" style="swimlane;fontStyle=0;childLayout=stackLayout;horizontal=1;startSize=30;horizontalStack=0;resizeParent=1;resizeParentMax=0;resizeLast=0;collapsible=1;marginBottom=0;whiteSpace=wrap;html=1;fillColor=#0066CC;" parent="1" vertex="1">
          <mxGeometry x="280" y="-3490" width="140" height="90" as="geometry" />
        </mxCell>
        <mxCell id="sGzbmqUjZjw-RyDDuB3r-14" value="id" style="text;strokeColor=none;fillColor=none;align=left;verticalAlign=middle;spacingLeft=4;spacingRight=4;overflow=hidden;points=[[0,0.5],[1,0.5]];portConstraint=eastwest;rotatable=0;whiteSpace=wrap;html=1;" parent="sGzbmqUjZjw-RyDDuB3r-13" vertex="1">
          <mxGeometry y="30" width="140" height="30" as="geometry" />
        </mxCell>
        <mxCell id="sGzbmqUjZjw-RyDDuB3r-15" value="roles_id" style="text;strokeColor=none;fillColor=none;align=left;verticalAlign=middle;spacingLeft=4;spacingRight=4;overflow=hidden;points=[[0,0.5],[1,0.5]];portConstraint=eastwest;rotatable=0;whiteSpace=wrap;html=1;" parent="sGzbmqUjZjw-RyDDuB3r-13" vertex="1">
          <mxGeometry y="60" width="140" height="30" as="geometry" />
        </mxCell>
        <mxCell id="sGzbmqUjZjw-RyDDuB3r-16" value="&lt;div style=&quot;color: rgb(204, 204, 204); background-color: rgb(31, 31, 31); font-family: Consolas, &amp;quot;Courier New&amp;quot;, monospace; font-size: 14px; line-height: 19px;&quot;&gt;cas_ticket_types&lt;/div&gt;" style="swimlane;fontStyle=0;childLayout=stackLayout;horizontal=1;startSize=30;horizontalStack=0;resizeParent=1;resizeParentMax=0;resizeLast=0;collapsible=1;marginBottom=0;whiteSpace=wrap;html=1;fillColor=#0066CC;" parent="1" vertex="1">
          <mxGeometry x="-540" y="-3300" width="140" height="240" as="geometry" />
        </mxCell>
        <mxCell id="sGzbmqUjZjw-RyDDuB3r-17" value="id" style="text;strokeColor=none;fillColor=none;align=left;verticalAlign=middle;spacingLeft=4;spacingRight=4;overflow=hidden;points=[[0,0.5],[1,0.5]];portConstraint=eastwest;rotatable=0;whiteSpace=wrap;html=1;" parent="sGzbmqUjZjw-RyDDuB3r-16" vertex="1">
          <mxGeometry y="30" width="140" height="30" as="geometry" />
        </mxCell>
        <mxCell id="sGzbmqUjZjw-RyDDuB3r-18" value="name" style="text;strokeColor=none;fillColor=none;align=left;verticalAlign=middle;spacingLeft=4;spacingRight=4;overflow=hidden;points=[[0,0.5],[1,0.5]];portConstraint=eastwest;rotatable=0;whiteSpace=wrap;html=1;" parent="sGzbmqUjZjw-RyDDuB3r-16" vertex="1">
          <mxGeometry y="60" width="140" height="30" as="geometry" />
        </mxCell>
        <mxCell id="sGzbmqUjZjw-RyDDuB3r-19" value="descripcion" style="text;strokeColor=none;fillColor=none;align=left;verticalAlign=middle;spacingLeft=4;spacingRight=4;overflow=hidden;points=[[0,0.5],[1,0.5]];portConstraint=eastwest;rotatable=0;whiteSpace=wrap;html=1;" parent="sGzbmqUjZjw-RyDDuB3r-16" vertex="1">
          <mxGeometry y="90" width="140" height="30" as="geometry" />
        </mxCell>
        <mxCell id="sGzbmqUjZjw-RyDDuB3r-20" value="service_type_id" style="text;strokeColor=none;fillColor=none;align=left;verticalAlign=middle;spacingLeft=4;spacingRight=4;overflow=hidden;points=[[0,0.5],[1,0.5]];portConstraint=eastwest;rotatable=0;whiteSpace=wrap;html=1;" parent="sGzbmqUjZjw-RyDDuB3r-16" vertex="1">
          <mxGeometry y="120" width="140" height="30" as="geometry" />
        </mxCell>
        <mxCell id="sGzbmqUjZjw-RyDDuB3r-21" value="tiempo_de atenc" style="text;strokeColor=none;fillColor=none;align=left;verticalAlign=middle;spacingLeft=4;spacingRight=4;overflow=hidden;points=[[0,0.5],[1,0.5]];portConstraint=eastwest;rotatable=0;whiteSpace=wrap;html=1;" parent="sGzbmqUjZjw-RyDDuB3r-16" vertex="1">
          <mxGeometry y="150" width="140" height="30" as="geometry" />
        </mxCell>
        <mxCell id="sGzbmqUjZjw-RyDDuB3r-22" value="prioridad_id" style="text;strokeColor=none;fillColor=none;align=left;verticalAlign=middle;spacingLeft=4;spacingRight=4;overflow=hidden;points=[[0,0.5],[1,0.5]];portConstraint=eastwest;rotatable=0;whiteSpace=wrap;html=1;" parent="sGzbmqUjZjw-RyDDuB3r-16" vertex="1">
          <mxGeometry y="180" width="140" height="30" as="geometry" />
        </mxCell>
        <mxCell id="sGzbmqUjZjw-RyDDuB3r-23" value="empresa_id" style="text;strokeColor=none;fillColor=none;align=left;verticalAlign=middle;spacingLeft=4;spacingRight=4;overflow=hidden;points=[[0,0.5],[1,0.5]];portConstraint=eastwest;rotatable=0;whiteSpace=wrap;html=1;" parent="sGzbmqUjZjw-RyDDuB3r-16" vertex="1">
          <mxGeometry y="210" width="140" height="30" as="geometry" />
        </mxCell>
        <mxCell id="sGzbmqUjZjw-RyDDuB3r-24" value="" style="edgeStyle=entityRelationEdgeStyle;fontSize=12;html=1;endArrow=ERoneToMany;startArrow=ERzeroToOne;rounded=0;exitX=1;exitY=0.5;exitDx=0;exitDy=0;entryX=0;entryY=0.5;entryDx=0;entryDy=0;" parent="1" source="sGzbmqUjZjw-RyDDuB3r-2" target="sGzbmqUjZjw-RyDDuB3r-11" edge="1">
          <mxGeometry width="100" height="100" relative="1" as="geometry">
            <mxPoint x="-240" y="-3295" as="sourcePoint" />
            <mxPoint x="-160" y="-3340" as="targetPoint" />
            <Array as="points">
              <mxPoint x="-360" y="-3430" />
              <mxPoint x="-390" y="-3470" />
            </Array>
          </mxGeometry>
        </mxCell>
        <mxCell id="sGzbmqUjZjw-RyDDuB3r-25" value="Roles" style="swimlane;fontStyle=0;childLayout=stackLayout;horizontal=1;startSize=26;horizontalStack=0;resizeParent=1;resizeParentMax=0;resizeLast=0;collapsible=1;marginBottom=0;align=center;fontSize=14;fillColor=#0066CC;" parent="1" vertex="1">
          <mxGeometry x="165" y="-3270" width="110" height="56" as="geometry" />
        </mxCell>
        <mxCell id="sGzbmqUjZjw-RyDDuB3r-26" value="id" style="text;strokeColor=none;fillColor=none;spacingLeft=4;spacingRight=4;overflow=hidden;rotatable=0;points=[[0,0.5],[1,0.5]];portConstraint=eastwest;fontSize=12;whiteSpace=wrap;html=1;" parent="sGzbmqUjZjw-RyDDuB3r-25" vertex="1">
          <mxGeometry y="26" width="110" height="30" as="geometry" />
        </mxCell>
        <mxCell id="sGzbmqUjZjw-RyDDuB3r-27" value="" style="edgeStyle=entityRelationEdgeStyle;fontSize=12;html=1;endArrow=ERzeroToMany;endFill=1;rounded=0;exitX=1;exitY=0.5;exitDx=0;exitDy=0;" parent="1" source="sGzbmqUjZjw-RyDDuB3r-26" target="sGzbmqUjZjw-RyDDuB3r-14" edge="1">
          <mxGeometry width="100" height="100" relative="1" as="geometry">
            <mxPoint x="50" y="-3119.01" as="sourcePoint" />
            <mxPoint x="197" y="-3270" as="targetPoint" />
            <Array as="points">
              <mxPoint x="-20" y="-3234.01" />
              <mxPoint x="60" y="-3294.01" />
              <mxPoint x="60" y="-3244.01" />
            </Array>
          </mxGeometry>
        </mxCell>
        <mxCell id="sGzbmqUjZjw-RyDDuB3r-28" value="" style="edgeStyle=entityRelationEdgeStyle;fontSize=12;html=1;endArrow=ERzeroToMany;endFill=1;rounded=0;exitX=1;exitY=0.5;exitDx=0;exitDy=0;" parent="1" source="sGzbmqUjZjw-RyDDuB3r-2" target="sGzbmqUjZjw-RyDDuB3r-20" edge="1">
          <mxGeometry width="100" height="100" relative="1" as="geometry">
            <mxPoint x="-540" y="-3480" as="sourcePoint" />
            <mxPoint x="-460" y="-3000" as="targetPoint" />
            <Array as="points">
              <mxPoint x="-390" y="-3055" />
            </Array>
          </mxGeometry>
        </mxCell>
        <mxCell id="sGzbmqUjZjw-RyDDuB3r-29" value="" style="edgeStyle=orthogonalEdgeStyle;rounded=0;orthogonalLoop=1;jettySize=auto;html=1;" parent="1" source="sGzbmqUjZjw-RyDDuB3r-30" target="sGzbmqUjZjw-RyDDuB3r-22" edge="1">
          <mxGeometry relative="1" as="geometry" />
        </mxCell>
        <mxCell id="sGzbmqUjZjw-RyDDuB3r-30" value="cas_priorities" style="swimlane;fontStyle=0;childLayout=stackLayout;horizontal=1;startSize=26;horizontalStack=0;resizeParent=1;resizeParentMax=0;resizeLast=0;collapsible=1;marginBottom=0;align=center;fontSize=14;fillColor=#0066CC;" parent="1" vertex="1">
          <mxGeometry x="-610" y="-2980" width="160" height="146" as="geometry" />
        </mxCell>
        <mxCell id="sGzbmqUjZjw-RyDDuB3r-31" value="id" style="text;strokeColor=none;fillColor=none;spacingLeft=4;spacingRight=4;overflow=hidden;rotatable=0;points=[[0,0.5],[1,0.5]];portConstraint=eastwest;fontSize=12;whiteSpace=wrap;html=1;" parent="sGzbmqUjZjw-RyDDuB3r-30" vertex="1">
          <mxGeometry y="26" width="160" height="30" as="geometry" />
        </mxCell>
        <mxCell id="sGzbmqUjZjw-RyDDuB3r-32" value="name" style="text;strokeColor=none;fillColor=none;spacingLeft=4;spacingRight=4;overflow=hidden;rotatable=0;points=[[0,0.5],[1,0.5]];portConstraint=eastwest;fontSize=12;whiteSpace=wrap;html=1;" parent="sGzbmqUjZjw-RyDDuB3r-30" vertex="1">
          <mxGeometry y="56" width="160" height="30" as="geometry" />
        </mxCell>
        <mxCell id="sGzbmqUjZjw-RyDDuB3r-33" value="tiempo de atencion" style="text;strokeColor=none;fillColor=none;spacingLeft=4;spacingRight=4;overflow=hidden;rotatable=0;points=[[0,0.5],[1,0.5]];portConstraint=eastwest;fontSize=12;whiteSpace=wrap;html=1;" parent="sGzbmqUjZjw-RyDDuB3r-30" vertex="1">
          <mxGeometry y="86" width="160" height="30" as="geometry" />
        </mxCell>
        <mxCell id="sGzbmqUjZjw-RyDDuB3r-34" value="status&lt;br&gt;" style="text;strokeColor=none;fillColor=none;spacingLeft=4;spacingRight=4;overflow=hidden;rotatable=0;points=[[0,0.5],[1,0.5]];portConstraint=eastwest;fontSize=12;whiteSpace=wrap;html=1;" parent="sGzbmqUjZjw-RyDDuB3r-30" vertex="1">
          <mxGeometry y="116" width="160" height="30" as="geometry" />
        </mxCell>
        <mxCell id="sGzbmqUjZjw-RyDDuB3r-35" value="" style="edgeStyle=orthogonalEdgeStyle;rounded=0;orthogonalLoop=1;jettySize=auto;html=1;entryX=0.5;entryY=0;entryDx=0;entryDy=0;exitX=0.5;exitY=1;exitDx=0;exitDy=0;exitPerimeter=0;" parent="1" source="sGzbmqUjZjw-RyDDuB3r-36" target="sGzbmqUjZjw-RyDDuB3r-1" edge="1">
          <mxGeometry relative="1" as="geometry">
            <Array as="points">
              <mxPoint x="-475" y="-3520" />
            </Array>
            <mxPoint x="-475" y="-3600" as="sourcePoint" />
          </mxGeometry>
        </mxCell>
        <mxCell id="sGzbmqUjZjw-RyDDuB3r-36" value="esta tabla es para crear el tipo de de proveedor de servicio&amp;nbsp;" style="shape=note;whiteSpace=wrap;html=1;backgroundOutline=1;darkOpacity=0.05;fillColor=#33FF33;" parent="1" vertex="1">
          <mxGeometry x="-530" y="-3710" width="110" height="100" as="geometry" />
        </mxCell>
        <mxCell id="sGzbmqUjZjw-RyDDuB3r-37" value="" style="edgeStyle=orthogonalEdgeStyle;rounded=0;orthogonalLoop=1;jettySize=auto;html=1;entryX=0.379;entryY=1.033;entryDx=0;entryDy=0;entryPerimeter=0;" parent="1" source="sGzbmqUjZjw-RyDDuB3r-38" target="sGzbmqUjZjw-RyDDuB3r-12" edge="1">
          <mxGeometry relative="1" as="geometry">
            <mxPoint x="-195" y="-3370" as="targetPoint" />
          </mxGeometry>
        </mxCell>
        <mxCell id="sGzbmqUjZjw-RyDDuB3r-38" value="Esta tabla contiene las empresas, para la parte de los proveedores creamos una empresa genérica que diga Proveedores&lt;br&gt;&lt;br&gt;Proveedores : tendrá todos los usuarios que tengan el rol proveedor" style="shape=note;whiteSpace=wrap;html=1;backgroundOutline=1;darkOpacity=0.05;fillColor=#33FF33;" parent="1" vertex="1">
          <mxGeometry x="-281" y="-3370" width="270" height="120" as="geometry" />
        </mxCell>
        <mxCell id="sGzbmqUjZjw-RyDDuB3r-39" value="&lt;div style=&quot;color: rgb(204, 204, 204); background-color: rgb(31, 31, 31); font-family: Consolas, &amp;quot;Courier New&amp;quot;, monospace; font-size: 14px; line-height: 19px;&quot;&gt;cas_ticket_type_role&lt;/div&gt;" style="swimlane;fontStyle=0;childLayout=stackLayout;horizontal=1;startSize=30;horizontalStack=0;resizeParent=1;resizeParentMax=0;resizeLast=0;collapsible=1;marginBottom=0;whiteSpace=wrap;html=1;fillColor=#0066CC;" parent="1" vertex="1">
          <mxGeometry x="-90" y="-3230" width="190" height="120" as="geometry" />
        </mxCell>
        <mxCell id="sGzbmqUjZjw-RyDDuB3r-40" value="id" style="text;strokeColor=none;fillColor=none;align=left;verticalAlign=middle;spacingLeft=4;spacingRight=4;overflow=hidden;points=[[0,0.5],[1,0.5]];portConstraint=eastwest;rotatable=0;whiteSpace=wrap;html=1;" parent="sGzbmqUjZjw-RyDDuB3r-39" vertex="1">
          <mxGeometry y="30" width="190" height="30" as="geometry" />
        </mxCell>
        <mxCell id="sGzbmqUjZjw-RyDDuB3r-41" value="tipo_ticket_id" style="text;strokeColor=none;fillColor=none;align=left;verticalAlign=middle;spacingLeft=4;spacingRight=4;overflow=hidden;points=[[0,0.5],[1,0.5]];portConstraint=eastwest;rotatable=0;whiteSpace=wrap;html=1;" parent="sGzbmqUjZjw-RyDDuB3r-39" vertex="1">
          <mxGeometry y="60" width="190" height="30" as="geometry" />
        </mxCell>
        <mxCell id="sGzbmqUjZjw-RyDDuB3r-42" value="roles_id" style="text;strokeColor=none;fillColor=none;align=left;verticalAlign=middle;spacingLeft=4;spacingRight=4;overflow=hidden;points=[[0,0.5],[1,0.5]];portConstraint=eastwest;rotatable=0;whiteSpace=wrap;html=1;" parent="sGzbmqUjZjw-RyDDuB3r-39" vertex="1">
          <mxGeometry y="90" width="190" height="30" as="geometry" />
        </mxCell>
        <mxCell id="sGzbmqUjZjw-RyDDuB3r-43" value="" style="edgeStyle=orthogonalEdgeStyle;rounded=0;orthogonalLoop=1;jettySize=auto;html=1;entryX=0.514;entryY=1.033;entryDx=0;entryDy=0;entryPerimeter=0;" parent="1" source="sGzbmqUjZjw-RyDDuB3r-44" target="sGzbmqUjZjw-RyDDuB3r-42" edge="1">
          <mxGeometry relative="1" as="geometry" />
        </mxCell>
        <mxCell id="sGzbmqUjZjw-RyDDuB3r-44" value="&lt;br&gt;Esta tabla&amp;nbsp; asignamos que rol puede reportar cada tipo de ticket ejemplo: supplier -&amp;gt; error de recolecciones&amp;nbsp;&amp;nbsp;" style="shape=note;whiteSpace=wrap;html=1;backgroundOutline=1;darkOpacity=0.05;fillColor=#33FF33;" parent="1" vertex="1">
          <mxGeometry x="130" y="-3100" width="270" height="120" as="geometry" />
        </mxCell>
        <mxCell id="sGzbmqUjZjw-RyDDuB3r-45" value="" style="edgeStyle=entityRelationEdgeStyle;fontSize=12;html=1;endArrow=ERoneToMany;rounded=0;" parent="1" target="sGzbmqUjZjw-RyDDuB3r-41" edge="1">
          <mxGeometry width="100" height="100" relative="1" as="geometry">
            <mxPoint x="-400" y="-3160" as="sourcePoint" />
            <mxPoint x="-100" y="-3210" as="targetPoint" />
          </mxGeometry>
        </mxCell>
        <mxCell id="sGzbmqUjZjw-RyDDuB3r-46" value="" style="edgeStyle=entityRelationEdgeStyle;fontSize=12;html=1;endArrow=ERoneToMany;rounded=0;exitX=0;exitY=0.5;exitDx=0;exitDy=0;entryX=1;entryY=0.5;entryDx=0;entryDy=0;" parent="1" source="sGzbmqUjZjw-RyDDuB3r-26" target="sGzbmqUjZjw-RyDDuB3r-42" edge="1">
          <mxGeometry width="100" height="100" relative="1" as="geometry">
            <mxPoint x="-200" y="-3110" as="sourcePoint" />
            <mxPoint x="-100" y="-3210" as="targetPoint" />
            <Array as="points">
              <mxPoint x="10" y="-3190" />
            </Array>
          </mxGeometry>
        </mxCell>
        <mxCell id="sGzbmqUjZjw-RyDDuB3r-47" value="&lt;div style=&quot;color: rgb(204, 204, 204); background-color: rgb(31, 31, 31); font-family: Consolas, &amp;quot;Courier New&amp;quot;, monospace; font-size: 14px; line-height: 19px;&quot;&gt;cas_ticket_type_field&lt;/div&gt;" style="swimlane;fontStyle=0;childLayout=stackLayout;horizontal=1;startSize=30;horizontalStack=0;resizeParent=1;resizeParentMax=0;resizeLast=0;collapsible=1;marginBottom=0;whiteSpace=wrap;html=1;strokeColor=#0066CC;" parent="1" vertex="1">
          <mxGeometry x="-790" y="-3330" width="170" height="150" as="geometry" />
        </mxCell>
        <mxCell id="sGzbmqUjZjw-RyDDuB3r-48" value="id" style="text;strokeColor=none;fillColor=none;align=left;verticalAlign=middle;spacingLeft=4;spacingRight=4;overflow=hidden;points=[[0,0.5],[1,0.5]];portConstraint=eastwest;rotatable=0;whiteSpace=wrap;html=1;" parent="sGzbmqUjZjw-RyDDuB3r-47" vertex="1">
          <mxGeometry y="30" width="170" height="30" as="geometry" />
        </mxCell>
        <mxCell id="sGzbmqUjZjw-RyDDuB3r-49" value="tipo_ticket_id" style="text;strokeColor=none;fillColor=none;align=left;verticalAlign=middle;spacingLeft=4;spacingRight=4;overflow=hidden;points=[[0,0.5],[1,0.5]];portConstraint=eastwest;rotatable=0;whiteSpace=wrap;html=1;" parent="sGzbmqUjZjw-RyDDuB3r-47" vertex="1">
          <mxGeometry y="60" width="170" height="30" as="geometry" />
        </mxCell>
        <mxCell id="sGzbmqUjZjw-RyDDuB3r-50" value="campos_formulario_id" style="text;strokeColor=none;fillColor=none;align=left;verticalAlign=middle;spacingLeft=4;spacingRight=4;overflow=hidden;points=[[0,0.5],[1,0.5]];portConstraint=eastwest;rotatable=0;whiteSpace=wrap;html=1;" parent="sGzbmqUjZjw-RyDDuB3r-47" vertex="1">
          <mxGeometry y="90" width="170" height="30" as="geometry" />
        </mxCell>
        <mxCell id="sGzbmqUjZjw-RyDDuB3r-51" value="requiere (si el campo es requerido)" style="text;strokeColor=none;fillColor=none;align=left;verticalAlign=middle;spacingLeft=4;spacingRight=4;overflow=hidden;points=[[0,0.5],[1,0.5]];portConstraint=eastwest;rotatable=0;whiteSpace=wrap;html=1;" parent="sGzbmqUjZjw-RyDDuB3r-47" vertex="1">
          <mxGeometry y="120" width="170" height="30" as="geometry" />
        </mxCell>
        <mxCell id="sGzbmqUjZjw-RyDDuB3r-52" value="&lt;div style=&quot;color: rgb(204, 204, 204); background-color: rgb(31, 31, 31); font-family: Consolas, &amp;quot;Courier New&amp;quot;, monospace; font-size: 14px; line-height: 19px;&quot;&gt;cas_ticket_type_users&lt;/div&gt;" style="swimlane;fontStyle=0;childLayout=stackLayout;horizontal=1;startSize=30;horizontalStack=0;resizeParent=1;resizeParentMax=0;resizeLast=0;collapsible=1;marginBottom=0;whiteSpace=wrap;html=1;" parent="1" vertex="1">
          <mxGeometry x="470" y="-3180" width="170" height="150" as="geometry" />
        </mxCell>
        <mxCell id="sGzbmqUjZjw-RyDDuB3r-53" value="id" style="text;strokeColor=none;fillColor=none;align=left;verticalAlign=middle;spacingLeft=4;spacingRight=4;overflow=hidden;points=[[0,0.5],[1,0.5]];portConstraint=eastwest;rotatable=0;whiteSpace=wrap;html=1;" parent="sGzbmqUjZjw-RyDDuB3r-52" vertex="1">
          <mxGeometry y="30" width="170" height="30" as="geometry" />
        </mxCell>
        <mxCell id="sGzbmqUjZjw-RyDDuB3r-54" value="users_id" style="text;strokeColor=none;fillColor=none;align=left;verticalAlign=middle;spacingLeft=4;spacingRight=4;overflow=hidden;points=[[0,0.5],[1,0.5]];portConstraint=eastwest;rotatable=0;whiteSpace=wrap;html=1;" parent="sGzbmqUjZjw-RyDDuB3r-52" vertex="1">
          <mxGeometry y="60" width="170" height="30" as="geometry" />
        </mxCell>
        <mxCell id="sGzbmqUjZjw-RyDDuB3r-55" value="tipo_ticket_id" style="text;strokeColor=none;fillColor=none;align=left;verticalAlign=middle;spacingLeft=4;spacingRight=4;overflow=hidden;points=[[0,0.5],[1,0.5]];portConstraint=eastwest;rotatable=0;whiteSpace=wrap;html=1;" parent="sGzbmqUjZjw-RyDDuB3r-52" vertex="1">
          <mxGeometry y="90" width="170" height="30" as="geometry" />
        </mxCell>
        <mxCell id="sGzbmqUjZjw-RyDDuB3r-56" value="status" style="text;strokeColor=none;fillColor=none;align=left;verticalAlign=middle;spacingLeft=4;spacingRight=4;overflow=hidden;points=[[0,0.5],[1,0.5]];portConstraint=eastwest;rotatable=0;whiteSpace=wrap;html=1;" parent="sGzbmqUjZjw-RyDDuB3r-52" vertex="1">
          <mxGeometry y="120" width="170" height="30" as="geometry" />
        </mxCell>
        <mxCell id="sGzbmqUjZjw-RyDDuB3r-57" value="" style="edgeStyle=orthogonalEdgeStyle;rounded=0;orthogonalLoop=1;jettySize=auto;html=1;" parent="1" source="sGzbmqUjZjw-RyDDuB3r-58" target="sGzbmqUjZjw-RyDDuB3r-51" edge="1">
          <mxGeometry relative="1" as="geometry" />
        </mxCell>
        <mxCell id="sGzbmqUjZjw-RyDDuB3r-58" value="&lt;div style=&quot;color: rgb(204, 204, 204); background-color: rgb(31, 31, 31); font-family: Consolas, &amp;quot;Courier New&amp;quot;, monospace; font-size: 14px; line-height: 19px;&quot;&gt;cas_fields&lt;/div&gt;" style="swimlane;fontStyle=0;childLayout=stackLayout;horizontal=1;startSize=30;horizontalStack=0;resizeParent=1;resizeParentMax=0;resizeLast=0;collapsible=1;marginBottom=0;whiteSpace=wrap;html=1;fillColor=#0066CC;" parent="1" vertex="1">
          <mxGeometry x="-805" y="-3090" width="160" height="150" as="geometry" />
        </mxCell>
        <mxCell id="sGzbmqUjZjw-RyDDuB3r-59" value="ID" style="text;strokeColor=none;fillColor=none;align=left;verticalAlign=middle;spacingLeft=4;spacingRight=4;overflow=hidden;points=[[0,0.5],[1,0.5]];portConstraint=eastwest;rotatable=0;whiteSpace=wrap;html=1;" parent="sGzbmqUjZjw-RyDDuB3r-58" vertex="1">
          <mxGeometry y="30" width="160" height="30" as="geometry" />
        </mxCell>
        <mxCell id="sGzbmqUjZjw-RyDDuB3r-60" value="NAME" style="text;strokeColor=none;fillColor=none;align=left;verticalAlign=middle;spacingLeft=4;spacingRight=4;overflow=hidden;points=[[0,0.5],[1,0.5]];portConstraint=eastwest;rotatable=0;whiteSpace=wrap;html=1;" parent="sGzbmqUjZjw-RyDDuB3r-58" vertex="1">
          <mxGeometry y="60" width="160" height="30" as="geometry" />
        </mxCell>
        <mxCell id="sGzbmqUjZjw-RyDDuB3r-61" value="tipo_componente" style="text;strokeColor=none;fillColor=none;align=left;verticalAlign=middle;spacingLeft=4;spacingRight=4;overflow=hidden;points=[[0,0.5],[1,0.5]];portConstraint=eastwest;rotatable=0;whiteSpace=wrap;html=1;" parent="sGzbmqUjZjw-RyDDuB3r-58" vertex="1">
          <mxGeometry y="90" width="160" height="30" as="geometry" />
        </mxCell>
        <mxCell id="sGzbmqUjZjw-RyDDuB3r-62" value="html_nombre componente&lt;br&gt;" style="text;strokeColor=none;fillColor=none;align=left;verticalAlign=middle;spacingLeft=4;spacingRight=4;overflow=hidden;points=[[0,0.5],[1,0.5]];portConstraint=eastwest;rotatable=0;whiteSpace=wrap;html=1;" parent="sGzbmqUjZjw-RyDDuB3r-58" vertex="1">
          <mxGeometry y="120" width="160" height="30" as="geometry" />
        </mxCell>
        <mxCell id="sGzbmqUjZjw-RyDDuB3r-63" value="" style="edgeStyle=orthogonalEdgeStyle;rounded=0;orthogonalLoop=1;jettySize=auto;html=1;" parent="1" source="sGzbmqUjZjw-RyDDuB3r-64" target="sGzbmqUjZjw-RyDDuB3r-48" edge="1">
          <mxGeometry relative="1" as="geometry" />
        </mxCell>
        <mxCell id="sGzbmqUjZjw-RyDDuB3r-64" value="es la union de tipo_ticket con campo_formularios, esto es para crear campos dinamicos o formularios dinamicos" style="shape=note;whiteSpace=wrap;html=1;backgroundOutline=1;darkOpacity=0.05;fillColor=#33FF33;" parent="1" vertex="1">
          <mxGeometry x="-780" y="-3500" width="110" height="100" as="geometry" />
        </mxCell>
        <mxCell id="sGzbmqUjZjw-RyDDuB3r-65" value="" style="endArrow=classic;startArrow=classic;html=1;rounded=0;entryX=1;entryY=0.5;entryDx=0;entryDy=0;exitX=0;exitY=0.5;exitDx=0;exitDy=0;" parent="1" source="sGzbmqUjZjw-RyDDuB3r-17" target="sGzbmqUjZjw-RyDDuB3r-49" edge="1">
          <mxGeometry width="50" height="50" relative="1" as="geometry">
            <mxPoint x="-210" y="-3220" as="sourcePoint" />
            <mxPoint x="-160" y="-3270" as="targetPoint" />
          </mxGeometry>
        </mxCell>
        <mxCell id="sGzbmqUjZjw-RyDDuB3r-66" value="" style="edgeStyle=entityRelationEdgeStyle;fontSize=12;html=1;endArrow=ERmandOne;startArrow=ERmandOne;rounded=0;entryX=0.002;entryY=0.278;entryDx=0;entryDy=0;entryPerimeter=0;" parent="1" source="sGzbmqUjZjw-RyDDuB3r-7" target="sGzbmqUjZjw-RyDDuB3r-14" edge="1">
          <mxGeometry width="100" height="100" relative="1" as="geometry">
            <mxPoint x="300" y="-3490" as="sourcePoint" />
            <mxPoint x="429.99999999999955" y="-3310" as="targetPoint" />
          </mxGeometry>
        </mxCell>
        <mxCell id="sGzbmqUjZjw-RyDDuB3r-67" value="" style="edgeStyle=entityRelationEdgeStyle;fontSize=12;html=1;endArrow=ERoneToMany;startArrow=ERmandOne;rounded=0;entryX=0;entryY=0.5;entryDx=0;entryDy=0;exitX=1;exitY=0.5;exitDx=0;exitDy=0;" parent="1" source="sGzbmqUjZjw-RyDDuB3r-10" target="sGzbmqUjZjw-RyDDuB3r-8" edge="1">
          <mxGeometry width="100" height="100" relative="1" as="geometry">
            <mxPoint x="290" y="-3500" as="sourcePoint" />
            <mxPoint x="140" y="-3600" as="targetPoint" />
          </mxGeometry>
        </mxCell>
        <mxCell id="sGzbmqUjZjw-RyDDuB3r-68" value="user" style="swimlane;fontStyle=0;childLayout=stackLayout;horizontal=1;startSize=30;horizontalStack=0;resizeParent=1;resizeParentMax=0;resizeLast=0;collapsible=1;marginBottom=0;whiteSpace=wrap;html=1;fillColor=#0066CC;" parent="1" vertex="1">
          <mxGeometry x="310" y="-2433.5" width="160" height="120" as="geometry" />
        </mxCell>
        <mxCell id="sGzbmqUjZjw-RyDDuB3r-69" value="ID" style="text;strokeColor=none;fillColor=none;align=left;verticalAlign=middle;spacingLeft=4;spacingRight=4;overflow=hidden;points=[[0,0.5],[1,0.5]];portConstraint=eastwest;rotatable=0;whiteSpace=wrap;html=1;" parent="sGzbmqUjZjw-RyDDuB3r-68" vertex="1">
          <mxGeometry y="30" width="160" height="30" as="geometry" />
        </mxCell>
        <mxCell id="sGzbmqUjZjw-RyDDuB3r-70" value="NAME" style="text;strokeColor=none;fillColor=none;align=left;verticalAlign=middle;spacingLeft=4;spacingRight=4;overflow=hidden;points=[[0,0.5],[1,0.5]];portConstraint=eastwest;rotatable=0;whiteSpace=wrap;html=1;" parent="sGzbmqUjZjw-RyDDuB3r-68" vertex="1">
          <mxGeometry y="60" width="160" height="30" as="geometry" />
        </mxCell>
        <mxCell id="sGzbmqUjZjw-RyDDuB3r-71" value="ETC" style="text;strokeColor=none;fillColor=none;align=left;verticalAlign=middle;spacingLeft=4;spacingRight=4;overflow=hidden;points=[[0,0.5],[1,0.5]];portConstraint=eastwest;rotatable=0;whiteSpace=wrap;html=1;" parent="sGzbmqUjZjw-RyDDuB3r-68" vertex="1">
          <mxGeometry y="90" width="160" height="30" as="geometry" />
        </mxCell>
        <mxCell id="sGzbmqUjZjw-RyDDuB3r-72" value="login" style="swimlane;fontStyle=0;childLayout=stackLayout;horizontal=1;startSize=30;horizontalStack=0;resizeParent=1;resizeParentMax=0;resizeLast=0;collapsible=1;marginBottom=0;whiteSpace=wrap;html=1;fillColor=#0066CC;" parent="1" vertex="1">
          <mxGeometry x="530" y="-2210" width="160" height="150" as="geometry" />
        </mxCell>
        <mxCell id="sGzbmqUjZjw-RyDDuB3r-73" value="userID" style="text;strokeColor=none;fillColor=none;align=left;verticalAlign=middle;spacingLeft=4;spacingRight=4;overflow=hidden;points=[[0,0.5],[1,0.5]];portConstraint=eastwest;rotatable=0;whiteSpace=wrap;html=1;" parent="sGzbmqUjZjw-RyDDuB3r-72" vertex="1">
          <mxGeometry y="30" width="160" height="30" as="geometry" />
        </mxCell>
        <mxCell id="sGzbmqUjZjw-RyDDuB3r-74" value="email" style="text;strokeColor=none;fillColor=none;align=left;verticalAlign=middle;spacingLeft=4;spacingRight=4;overflow=hidden;points=[[0,0.5],[1,0.5]];portConstraint=eastwest;rotatable=0;whiteSpace=wrap;html=1;" parent="sGzbmqUjZjw-RyDDuB3r-72" vertex="1">
          <mxGeometry y="60" width="160" height="30" as="geometry" />
        </mxCell>
        <mxCell id="sGzbmqUjZjw-RyDDuB3r-75" value="password" style="text;strokeColor=none;fillColor=none;align=left;verticalAlign=middle;spacingLeft=4;spacingRight=4;overflow=hidden;points=[[0,0.5],[1,0.5]];portConstraint=eastwest;rotatable=0;whiteSpace=wrap;html=1;" parent="sGzbmqUjZjw-RyDDuB3r-72" vertex="1">
          <mxGeometry y="90" width="160" height="30" as="geometry" />
        </mxCell>
        <mxCell id="sGzbmqUjZjw-RyDDuB3r-164" value="loginStatusID" style="text;strokeColor=none;fillColor=none;align=left;verticalAlign=middle;spacingLeft=4;spacingRight=4;overflow=hidden;points=[[0,0.5],[1,0.5]];portConstraint=eastwest;rotatable=0;whiteSpace=wrap;html=1;" parent="sGzbmqUjZjw-RyDDuB3r-72" vertex="1">
          <mxGeometry y="120" width="160" height="30" as="geometry" />
        </mxCell>
        <mxCell id="sGzbmqUjZjw-RyDDuB3r-76" value="business_cas" style="swimlane;fontStyle=0;childLayout=stackLayout;horizontal=1;startSize=30;horizontalStack=0;resizeParent=1;resizeParentMax=0;resizeLast=0;collapsible=1;marginBottom=0;whiteSpace=wrap;html=1;fillColor=#0066CC;" parent="1" vertex="1">
          <mxGeometry x="-250" y="-2610.25" width="160" height="150" as="geometry" />
        </mxCell>
        <mxCell id="sGzbmqUjZjw-RyDDuB3r-77" value="id" style="text;strokeColor=none;fillColor=none;align=left;verticalAlign=middle;spacingLeft=4;spacingRight=4;overflow=hidden;points=[[0,0.5],[1,0.5]];portConstraint=eastwest;rotatable=0;whiteSpace=wrap;html=1;" parent="sGzbmqUjZjw-RyDDuB3r-76" vertex="1">
          <mxGeometry y="30" width="160" height="30" as="geometry" />
        </mxCell>
        <mxCell id="sGzbmqUjZjw-RyDDuB3r-78" value="name" style="text;strokeColor=none;fillColor=none;align=left;verticalAlign=middle;spacingLeft=4;spacingRight=4;overflow=hidden;points=[[0,0.5],[1,0.5]];portConstraint=eastwest;rotatable=0;whiteSpace=wrap;html=1;" parent="sGzbmqUjZjw-RyDDuB3r-76" vertex="1">
          <mxGeometry y="60" width="160" height="30" as="geometry" />
        </mxCell>
        <mxCell id="sGzbmqUjZjw-RyDDuB3r-79" value="countryCityID" style="text;strokeColor=none;fillColor=none;align=left;verticalAlign=middle;spacingLeft=4;spacingRight=4;overflow=hidden;points=[[0,0.5],[1,0.5]];portConstraint=eastwest;rotatable=0;whiteSpace=wrap;html=1;" parent="sGzbmqUjZjw-RyDDuB3r-76" vertex="1">
          <mxGeometry y="90" width="160" height="30" as="geometry" />
        </mxCell>
        <mxCell id="sGzbmqUjZjw-RyDDuB3r-134" value="businessStatusID" style="text;strokeColor=none;fillColor=none;align=left;verticalAlign=middle;spacingLeft=4;spacingRight=4;overflow=hidden;points=[[0,0.5],[1,0.5]];portConstraint=eastwest;rotatable=0;whiteSpace=wrap;html=1;" parent="sGzbmqUjZjw-RyDDuB3r-76" vertex="1">
          <mxGeometry y="120" width="160" height="30" as="geometry" />
        </mxCell>
        <mxCell id="sGzbmqUjZjw-RyDDuB3r-80" value="user_business&lt;br&gt;" style="swimlane;fontStyle=0;childLayout=stackLayout;horizontal=1;startSize=30;horizontalStack=0;resizeParent=1;resizeParentMax=0;resizeLast=0;collapsible=1;marginBottom=0;whiteSpace=wrap;html=1;fillColor=#0066CC;" parent="1" vertex="1">
          <mxGeometry x="-10" y="-2446.75" width="160" height="120" as="geometry" />
        </mxCell>
        <mxCell id="sGzbmqUjZjw-RyDDuB3r-81" value="business_casID" style="text;strokeColor=none;fillColor=none;align=left;verticalAlign=middle;spacingLeft=4;spacingRight=4;overflow=hidden;points=[[0,0.5],[1,0.5]];portConstraint=eastwest;rotatable=0;whiteSpace=wrap;html=1;" parent="sGzbmqUjZjw-RyDDuB3r-80" vertex="1">
          <mxGeometry y="30" width="160" height="30" as="geometry" />
        </mxCell>
        <mxCell id="sGzbmqUjZjw-RyDDuB3r-82" value="user_id" style="text;strokeColor=none;fillColor=none;align=left;verticalAlign=middle;spacingLeft=4;spacingRight=4;overflow=hidden;points=[[0,0.5],[1,0.5]];portConstraint=eastwest;rotatable=0;whiteSpace=wrap;html=1;" parent="sGzbmqUjZjw-RyDDuB3r-80" vertex="1">
          <mxGeometry y="60" width="160" height="30" as="geometry" />
        </mxCell>
        <mxCell id="sGzbmqUjZjw-RyDDuB3r-83" value="rolID" style="text;strokeColor=none;fillColor=none;align=left;verticalAlign=middle;spacingLeft=4;spacingRight=4;overflow=hidden;points=[[0,0.5],[1,0.5]];portConstraint=eastwest;rotatable=0;whiteSpace=wrap;html=1;" parent="sGzbmqUjZjw-RyDDuB3r-80" vertex="1">
          <mxGeometry y="90" width="160" height="30" as="geometry" />
        </mxCell>
        <mxCell id="sGzbmqUjZjw-RyDDuB3r-84" value="roles" style="swimlane;fontStyle=0;childLayout=stackLayout;horizontal=1;startSize=30;horizontalStack=0;resizeParent=1;resizeParentMax=0;resizeLast=0;collapsible=1;marginBottom=0;whiteSpace=wrap;html=1;fillColor=#0066CC;" parent="1" vertex="1">
          <mxGeometry x="-320" y="-2341.75" width="160" height="120" as="geometry" />
        </mxCell>
        <mxCell id="sGzbmqUjZjw-RyDDuB3r-85" value="id&lt;br&gt;" style="text;strokeColor=none;fillColor=none;align=left;verticalAlign=middle;spacingLeft=4;spacingRight=4;overflow=hidden;points=[[0,0.5],[1,0.5]];portConstraint=eastwest;rotatable=0;whiteSpace=wrap;html=1;" parent="sGzbmqUjZjw-RyDDuB3r-84" vertex="1">
          <mxGeometry y="30" width="160" height="30" as="geometry" />
        </mxCell>
        <mxCell id="sGzbmqUjZjw-RyDDuB3r-86" value="name" style="text;strokeColor=none;fillColor=none;align=left;verticalAlign=middle;spacingLeft=4;spacingRight=4;overflow=hidden;points=[[0,0.5],[1,0.5]];portConstraint=eastwest;rotatable=0;whiteSpace=wrap;html=1;" parent="sGzbmqUjZjw-RyDDuB3r-84" vertex="1">
          <mxGeometry y="60" width="160" height="30" as="geometry" />
        </mxCell>
        <mxCell id="sGzbmqUjZjw-RyDDuB3r-87" value="etc" style="text;strokeColor=none;fillColor=none;align=left;verticalAlign=middle;spacingLeft=4;spacingRight=4;overflow=hidden;points=[[0,0.5],[1,0.5]];portConstraint=eastwest;rotatable=0;whiteSpace=wrap;html=1;" parent="sGzbmqUjZjw-RyDDuB3r-84" vertex="1">
          <mxGeometry y="90" width="160" height="30" as="geometry" />
        </mxCell>
        <mxCell id="sGzbmqUjZjw-RyDDuB3r-88" value="permission_user_business&lt;br&gt;" style="swimlane;fontStyle=0;childLayout=stackLayout;horizontal=1;startSize=30;horizontalStack=0;resizeParent=1;resizeParentMax=0;resizeLast=0;collapsible=1;marginBottom=0;whiteSpace=wrap;html=1;fillColor=#0066CC;" parent="1" vertex="1">
          <mxGeometry x="44" y="-2237.75" width="160" height="120" as="geometry" />
        </mxCell>
        <mxCell id="sGzbmqUjZjw-RyDDuB3r-89" value="user_businessID" style="text;strokeColor=none;fillColor=none;align=left;verticalAlign=middle;spacingLeft=4;spacingRight=4;overflow=hidden;points=[[0,0.5],[1,0.5]];portConstraint=eastwest;rotatable=0;whiteSpace=wrap;html=1;" parent="sGzbmqUjZjw-RyDDuB3r-88" vertex="1">
          <mxGeometry y="30" width="160" height="30" as="geometry" />
        </mxCell>
        <mxCell id="sGzbmqUjZjw-RyDDuB3r-90" value="permission{ JSONB}" style="text;strokeColor=none;fillColor=none;align=left;verticalAlign=middle;spacingLeft=4;spacingRight=4;overflow=hidden;points=[[0,0.5],[1,0.5]];portConstraint=eastwest;rotatable=0;whiteSpace=wrap;html=1;" parent="sGzbmqUjZjw-RyDDuB3r-88" vertex="1">
          <mxGeometry y="60" width="160" height="30" as="geometry" />
        </mxCell>
        <mxCell id="sGzbmqUjZjw-RyDDuB3r-91" value="status" style="text;strokeColor=none;fillColor=none;align=left;verticalAlign=middle;spacingLeft=4;spacingRight=4;overflow=hidden;points=[[0,0.5],[1,0.5]];portConstraint=eastwest;rotatable=0;whiteSpace=wrap;html=1;" parent="sGzbmqUjZjw-RyDDuB3r-88" vertex="1">
          <mxGeometry y="90" width="160" height="30" as="geometry" />
        </mxCell>
        <mxCell id="sGzbmqUjZjw-RyDDuB3r-92" value="permission_roles" style="swimlane;fontStyle=0;childLayout=stackLayout;horizontal=1;startSize=30;horizontalStack=0;resizeParent=1;resizeParentMax=0;resizeLast=0;collapsible=1;marginBottom=0;whiteSpace=wrap;html=1;fillColor=#0066CC;" parent="1" vertex="1">
          <mxGeometry x="-130" y="-2115" width="160" height="120" as="geometry" />
        </mxCell>
        <mxCell id="sGzbmqUjZjw-RyDDuB3r-93" value="id" style="text;strokeColor=none;fillColor=none;align=left;verticalAlign=middle;spacingLeft=4;spacingRight=4;overflow=hidden;points=[[0,0.5],[1,0.5]];portConstraint=eastwest;rotatable=0;whiteSpace=wrap;html=1;" parent="sGzbmqUjZjw-RyDDuB3r-92" vertex="1">
          <mxGeometry y="30" width="160" height="30" as="geometry" />
        </mxCell>
        <mxCell id="sGzbmqUjZjw-RyDDuB3r-94" value="rolesID" style="text;strokeColor=none;fillColor=none;align=left;verticalAlign=middle;spacingLeft=4;spacingRight=4;overflow=hidden;points=[[0,0.5],[1,0.5]];portConstraint=eastwest;rotatable=0;whiteSpace=wrap;html=1;" parent="sGzbmqUjZjw-RyDDuB3r-92" vertex="1">
          <mxGeometry y="60" width="160" height="30" as="geometry" />
        </mxCell>
        <mxCell id="sGzbmqUjZjw-RyDDuB3r-95" value="permissionID{jsonb}" style="text;strokeColor=none;fillColor=none;align=left;verticalAlign=middle;spacingLeft=4;spacingRight=4;overflow=hidden;points=[[0,0.5],[1,0.5]];portConstraint=eastwest;rotatable=0;whiteSpace=wrap;html=1;" parent="sGzbmqUjZjw-RyDDuB3r-92" vertex="1">
          <mxGeometry y="90" width="160" height="30" as="geometry" />
        </mxCell>
        <mxCell id="sGzbmqUjZjw-RyDDuB3r-96" value="permission" style="swimlane;fontStyle=0;childLayout=stackLayout;horizontal=1;startSize=30;horizontalStack=0;resizeParent=1;resizeParentMax=0;resizeLast=0;collapsible=1;marginBottom=0;whiteSpace=wrap;html=1;fillColor=#0066CC;" parent="1" vertex="1">
          <mxGeometry x="300" y="-2130" width="160" height="150" as="geometry" />
        </mxCell>
        <mxCell id="sGzbmqUjZjw-RyDDuB3r-97" value="id" style="text;strokeColor=none;fillColor=none;align=left;verticalAlign=middle;spacingLeft=4;spacingRight=4;overflow=hidden;points=[[0,0.5],[1,0.5]];portConstraint=eastwest;rotatable=0;whiteSpace=wrap;html=1;" parent="sGzbmqUjZjw-RyDDuB3r-96" vertex="1">
          <mxGeometry y="30" width="160" height="30" as="geometry" />
        </mxCell>
        <mxCell id="sGzbmqUjZjw-RyDDuB3r-98" value="name" style="text;strokeColor=none;fillColor=none;align=left;verticalAlign=middle;spacingLeft=4;spacingRight=4;overflow=hidden;points=[[0,0.5],[1,0.5]];portConstraint=eastwest;rotatable=0;whiteSpace=wrap;html=1;" parent="sGzbmqUjZjw-RyDDuB3r-96" vertex="1">
          <mxGeometry y="60" width="160" height="30" as="geometry" />
        </mxCell>
        <mxCell id="sGzbmqUjZjw-RyDDuB3r-99" value="country" style="text;strokeColor=none;fillColor=none;align=left;verticalAlign=middle;spacingLeft=4;spacingRight=4;overflow=hidden;points=[[0,0.5],[1,0.5]];portConstraint=eastwest;rotatable=0;whiteSpace=wrap;html=1;" parent="sGzbmqUjZjw-RyDDuB3r-96" vertex="1">
          <mxGeometry y="90" width="160" height="30" as="geometry" />
        </mxCell>
        <mxCell id="sGzbmqUjZjw-RyDDuB3r-108" value="permissionStatusID" style="text;strokeColor=none;fillColor=none;align=left;verticalAlign=middle;spacingLeft=4;spacingRight=4;overflow=hidden;points=[[0,0.5],[1,0.5]];portConstraint=eastwest;rotatable=0;whiteSpace=wrap;html=1;" parent="sGzbmqUjZjw-RyDDuB3r-96" vertex="1">
          <mxGeometry y="120" width="160" height="30" as="geometry" />
        </mxCell>
        <mxCell id="sGzbmqUjZjw-RyDDuB3r-100" value="" style="edgeStyle=entityRelationEdgeStyle;fontSize=12;html=1;endArrow=ERoneToMany;startArrow=ERoneToMany;rounded=0;entryX=0;entryY=0.5;entryDx=0;entryDy=0;exitX=0.996;exitY=0.182;exitDx=0;exitDy=0;exitPerimeter=0;" parent="1" source="sGzbmqUjZjw-RyDDuB3r-68" target="Z3TldACRxIbbbuszhCg8-75" edge="1">
          <mxGeometry width="100" height="100" relative="1" as="geometry">
            <mxPoint x="360" y="-2310" as="sourcePoint" />
            <mxPoint x="460" y="-2410" as="targetPoint" />
            <Array as="points">
              <mxPoint x="640" y="-2560" />
              <mxPoint x="650" y="-2570" />
              <mxPoint x="660" y="-2560" />
            </Array>
          </mxGeometry>
        </mxCell>
        <mxCell id="sGzbmqUjZjw-RyDDuB3r-101" value="" style="edgeStyle=entityRelationEdgeStyle;fontSize=12;html=1;endArrow=ERone;endFill=1;rounded=0;" parent="1" source="sGzbmqUjZjw-RyDDuB3r-73" target="sGzbmqUjZjw-RyDDuB3r-69" edge="1">
          <mxGeometry width="100" height="100" relative="1" as="geometry">
            <mxPoint x="520" y="-2091.75" as="sourcePoint" />
            <mxPoint x="370" y="-2146.75" as="targetPoint" />
          </mxGeometry>
        </mxCell>
        <mxCell id="sGzbmqUjZjw-RyDDuB3r-102" value="" style="edgeStyle=entityRelationEdgeStyle;fontSize=12;html=1;endArrow=ERzeroToMany;startArrow=ERzeroToOne;rounded=0;exitX=-0.006;exitY=0.111;exitDx=0;exitDy=0;exitPerimeter=0;entryX=1;entryY=0.5;entryDx=0;entryDy=0;" parent="1" source="sGzbmqUjZjw-RyDDuB3r-69" target="sGzbmqUjZjw-RyDDuB3r-81" edge="1">
          <mxGeometry width="100" height="100" relative="1" as="geometry">
            <mxPoint x="270" y="-2046.75" as="sourcePoint" />
            <mxPoint x="370" y="-2146.75" as="targetPoint" />
          </mxGeometry>
        </mxCell>
        <mxCell id="sGzbmqUjZjw-RyDDuB3r-103" value="" style="edgeStyle=entityRelationEdgeStyle;fontSize=12;html=1;endArrow=ERzeroToMany;startArrow=ERmandOne;rounded=0;exitX=1.02;exitY=-0.05;exitDx=0;exitDy=0;exitPerimeter=0;entryX=0.009;entryY=0.272;entryDx=0;entryDy=0;entryPerimeter=0;" parent="1" source="sGzbmqUjZjw-RyDDuB3r-77" target="sGzbmqUjZjw-RyDDuB3r-81" edge="1">
          <mxGeometry width="100" height="100" relative="1" as="geometry">
            <mxPoint x="270" y="-2196.75" as="sourcePoint" />
            <mxPoint x="370" y="-2296.75" as="targetPoint" />
          </mxGeometry>
        </mxCell>
        <mxCell id="sGzbmqUjZjw-RyDDuB3r-104" value="" style="edgeStyle=entityRelationEdgeStyle;fontSize=12;html=1;endArrow=ERoneToMany;startArrow=ERzeroToMany;rounded=0;exitX=0.999;exitY=0.05;exitDx=0;exitDy=0;exitPerimeter=0;" parent="1" source="sGzbmqUjZjw-RyDDuB3r-83" target="sGzbmqUjZjw-RyDDuB3r-89" edge="1">
          <mxGeometry width="100" height="100" relative="1" as="geometry">
            <mxPoint x="270" y="-2196.75" as="sourcePoint" />
            <mxPoint x="370" y="-2296.75" as="targetPoint" />
          </mxGeometry>
        </mxCell>
        <mxCell id="sGzbmqUjZjw-RyDDuB3r-105" value="" style="edgeStyle=entityRelationEdgeStyle;fontSize=12;html=1;endArrow=ERzeroToMany;startArrow=ERzeroToOne;rounded=0;" parent="1" source="sGzbmqUjZjw-RyDDuB3r-85" target="sGzbmqUjZjw-RyDDuB3r-83" edge="1">
          <mxGeometry width="100" height="100" relative="1" as="geometry">
            <mxPoint x="270" y="-2196.75" as="sourcePoint" />
            <mxPoint x="370" y="-2296.75" as="targetPoint" />
          </mxGeometry>
        </mxCell>
        <mxCell id="sGzbmqUjZjw-RyDDuB3r-106" value="" style="edgeStyle=entityRelationEdgeStyle;fontSize=12;html=1;endArrow=ERmany;startArrow=ERmany;rounded=0;entryX=-0.011;entryY=0.689;entryDx=0;entryDy=0;entryPerimeter=0;" parent="1" source="sGzbmqUjZjw-RyDDuB3r-85" target="sGzbmqUjZjw-RyDDuB3r-94" edge="1">
          <mxGeometry width="100" height="100" relative="1" as="geometry">
            <mxPoint x="270" y="-2196.75" as="sourcePoint" />
            <mxPoint x="370" y="-2296.75" as="targetPoint" />
          </mxGeometry>
        </mxCell>
        <mxCell id="sGzbmqUjZjw-RyDDuB3r-107" value="" style="edgeStyle=entityRelationEdgeStyle;fontSize=12;html=1;endArrow=ERmany;startArrow=ERmany;rounded=0;entryX=-0.011;entryY=0.261;entryDx=0;entryDy=0;entryPerimeter=0;" parent="1" source="sGzbmqUjZjw-RyDDuB3r-95" target="sGzbmqUjZjw-RyDDuB3r-97" edge="1">
          <mxGeometry width="100" height="100" relative="1" as="geometry">
            <mxPoint x="270" y="-2196.75" as="sourcePoint" />
            <mxPoint x="370" y="-2296.75" as="targetPoint" />
          </mxGeometry>
        </mxCell>
        <mxCell id="sGzbmqUjZjw-RyDDuB3r-110" value="" style="edgeStyle=entityRelationEdgeStyle;fontSize=12;html=1;endArrow=ERzeroToMany;endFill=1;startArrow=ERzeroToMany;rounded=0;exitX=1;exitY=0.5;exitDx=0;exitDy=0;" parent="1" source="sGzbmqUjZjw-RyDDuB3r-90" target="sGzbmqUjZjw-RyDDuB3r-97" edge="1">
          <mxGeometry width="100" height="100" relative="1" as="geometry">
            <mxPoint x="270" y="-2196.75" as="sourcePoint" />
            <mxPoint x="370" y="-2296.75" as="targetPoint" />
          </mxGeometry>
        </mxCell>
        <mxCell id="sGzbmqUjZjw-RyDDuB3r-111" value="&lt;font style=&quot;font-size: 18px;&quot;&gt;User Login Permisos Roles&lt;/font&gt;" style="ellipse;shape=cloud;whiteSpace=wrap;html=1;align=center;" parent="1" vertex="1">
          <mxGeometry x="-196" y="-2873.5" width="400" height="90" as="geometry" />
        </mxCell>
        <mxCell id="sGzbmqUjZjw-RyDDuB3r-112" value="&lt;font style=&quot;font-size: 18px;&quot;&gt;Sistema CAS&lt;/font&gt;" style="ellipse;shape=cloud;whiteSpace=wrap;html=1;align=center;" parent="1" vertex="1">
          <mxGeometry x="990" y="-3000" width="325" height="60" as="geometry" />
        </mxCell>
        <mxCell id="sGzbmqUjZjw-RyDDuB3r-113" value="&lt;font style=&quot;font-size: 18px;&quot;&gt;PARAMETRIZACION&amp;nbsp;&lt;/font&gt;" style="ellipse;shape=cloud;whiteSpace=wrap;html=1;align=center;" parent="1" vertex="1">
          <mxGeometry x="-411" y="-3780" width="400" height="90" as="geometry" />
        </mxCell>
        <mxCell id="sGzbmqUjZjw-RyDDuB3r-114" value="" style="edgeStyle=entityRelationEdgeStyle;fontSize=12;html=1;endArrow=ERoneToMany;rounded=0;exitX=1;exitY=0.983;exitDx=0;exitDy=0;exitPerimeter=0;entryX=-0.018;entryY=0.122;entryDx=0;entryDy=0;entryPerimeter=0;" parent="1" source="sGzbmqUjZjw-RyDDuB3r-23" target="Z3TldACRxIbbbuszhCg8-72" edge="1">
          <mxGeometry width="100" height="100" relative="1" as="geometry">
            <mxPoint x="-410" y="-3340" as="sourcePoint" />
            <mxPoint x="-100" y="-3335" as="targetPoint" />
          </mxGeometry>
        </mxCell>
        <mxCell id="sGzbmqUjZjw-RyDDuB3r-115" value="superviseCas_colaboradorCas" style="swimlane;fontStyle=0;childLayout=stackLayout;horizontal=1;startSize=30;horizontalStack=0;resizeParent=1;resizeParentMax=0;resizeLast=0;collapsible=1;marginBottom=0;whiteSpace=wrap;html=1;fillColor=#0066CC;" parent="1" vertex="1">
          <mxGeometry x="235" y="-2719.5" width="230" height="150" as="geometry" />
        </mxCell>
        <mxCell id="sGzbmqUjZjw-RyDDuB3r-116" value="ID" style="text;strokeColor=none;fillColor=none;align=left;verticalAlign=middle;spacingLeft=4;spacingRight=4;overflow=hidden;points=[[0,0.5],[1,0.5]];portConstraint=eastwest;rotatable=0;whiteSpace=wrap;html=1;" parent="sGzbmqUjZjw-RyDDuB3r-115" vertex="1">
          <mxGeometry y="30" width="230" height="30" as="geometry" />
        </mxCell>
        <mxCell id="sGzbmqUjZjw-RyDDuB3r-117" value="superviseCas" style="text;strokeColor=none;fillColor=none;align=left;verticalAlign=middle;spacingLeft=4;spacingRight=4;overflow=hidden;points=[[0,0.5],[1,0.5]];portConstraint=eastwest;rotatable=0;whiteSpace=wrap;html=1;" parent="sGzbmqUjZjw-RyDDuB3r-115" vertex="1">
          <mxGeometry y="60" width="230" height="30" as="geometry" />
        </mxCell>
        <mxCell id="sGzbmqUjZjw-RyDDuB3r-118" value="colaboradorCas" style="text;strokeColor=none;fillColor=none;align=left;verticalAlign=middle;spacingLeft=4;spacingRight=4;overflow=hidden;points=[[0,0.5],[1,0.5]];portConstraint=eastwest;rotatable=0;whiteSpace=wrap;html=1;" parent="sGzbmqUjZjw-RyDDuB3r-115" vertex="1">
          <mxGeometry y="90" width="230" height="30" as="geometry" />
        </mxCell>
        <mxCell id="sGzbmqUjZjw-RyDDuB3r-119" value="status" style="text;strokeColor=none;fillColor=none;align=left;verticalAlign=middle;spacingLeft=4;spacingRight=4;overflow=hidden;points=[[0,0.5],[1,0.5]];portConstraint=eastwest;rotatable=0;whiteSpace=wrap;html=1;" parent="sGzbmqUjZjw-RyDDuB3r-115" vertex="1">
          <mxGeometry y="120" width="230" height="30" as="geometry" />
        </mxCell>
        <mxCell id="sGzbmqUjZjw-RyDDuB3r-121" value="colaboradorCas" style="edgeStyle=entityRelationEdgeStyle;fontSize=12;html=1;endArrow=ERoneToMany;startArrow=ERzeroToMany;rounded=0;exitX=0.75;exitY=0;exitDx=0;exitDy=0;" parent="1" source="sGzbmqUjZjw-RyDDuB3r-68" target="sGzbmqUjZjw-RyDDuB3r-115" edge="1">
          <mxGeometry width="100" height="100" relative="1" as="geometry">
            <mxPoint x="420" y="-2420" as="sourcePoint" />
            <mxPoint x="271" y="-2601" as="targetPoint" />
            <mxPoint as="offset" />
          </mxGeometry>
        </mxCell>
        <mxCell id="sGzbmqUjZjw-RyDDuB3r-120" value="superviseCas" style="edgeStyle=entityRelationEdgeStyle;fontSize=12;html=1;endArrow=ERoneToMany;startArrow=ERzeroToMany;rounded=0;" parent="1" source="sGzbmqUjZjw-RyDDuB3r-68" target="sGzbmqUjZjw-RyDDuB3r-116" edge="1">
          <mxGeometry width="100" height="100" relative="1" as="geometry">
            <mxPoint x="431" y="-2433.5" as="sourcePoint" />
            <mxPoint x="320" y="-2681.75" as="targetPoint" />
            <Array as="points">
              <mxPoint x="440" y="-2420" />
            </Array>
          </mxGeometry>
        </mxCell>
        <mxCell id="sGzbmqUjZjw-RyDDuB3r-122" value="cas_country" style="swimlane;fontStyle=0;childLayout=stackLayout;horizontal=1;startSize=30;horizontalStack=0;resizeParent=1;resizeParentMax=0;resizeLast=0;collapsible=1;marginBottom=0;whiteSpace=wrap;html=1;fillColor=#0066CC;" parent="1" vertex="1">
          <mxGeometry x="-680" y="-2745.5" width="160" height="120" as="geometry" />
        </mxCell>
        <mxCell id="sGzbmqUjZjw-RyDDuB3r-123" value="id" style="text;strokeColor=none;fillColor=none;align=left;verticalAlign=middle;spacingLeft=4;spacingRight=4;overflow=hidden;points=[[0,0.5],[1,0.5]];portConstraint=eastwest;rotatable=0;whiteSpace=wrap;html=1;" parent="sGzbmqUjZjw-RyDDuB3r-122" vertex="1">
          <mxGeometry y="30" width="160" height="30" as="geometry" />
        </mxCell>
        <mxCell id="sGzbmqUjZjw-RyDDuB3r-124" value="name" style="text;strokeColor=none;fillColor=none;align=left;verticalAlign=middle;spacingLeft=4;spacingRight=4;overflow=hidden;points=[[0,0.5],[1,0.5]];portConstraint=eastwest;rotatable=0;whiteSpace=wrap;html=1;" parent="sGzbmqUjZjw-RyDDuB3r-122" vertex="1">
          <mxGeometry y="60" width="160" height="30" as="geometry" />
        </mxCell>
        <mxCell id="sGzbmqUjZjw-RyDDuB3r-133" value="status&lt;br&gt;" style="text;strokeColor=none;fillColor=none;align=left;verticalAlign=middle;spacingLeft=4;spacingRight=4;overflow=hidden;points=[[0,0.5],[1,0.5]];portConstraint=eastwest;rotatable=0;whiteSpace=wrap;html=1;" parent="sGzbmqUjZjw-RyDDuB3r-122" vertex="1">
          <mxGeometry y="90" width="160" height="30" as="geometry" />
        </mxCell>
        <mxCell id="sGzbmqUjZjw-RyDDuB3r-126" value="cas_city" style="swimlane;fontStyle=0;childLayout=stackLayout;horizontal=1;startSize=30;horizontalStack=0;resizeParent=1;resizeParentMax=0;resizeLast=0;collapsible=1;marginBottom=0;whiteSpace=wrap;html=1;fillColor=#0066CC;" parent="1" vertex="1">
          <mxGeometry x="-700" y="-2533.5" width="160" height="120" as="geometry" />
        </mxCell>
        <mxCell id="sGzbmqUjZjw-RyDDuB3r-127" value="id" style="text;strokeColor=none;fillColor=none;align=left;verticalAlign=middle;spacingLeft=4;spacingRight=4;overflow=hidden;points=[[0,0.5],[1,0.5]];portConstraint=eastwest;rotatable=0;whiteSpace=wrap;html=1;" parent="sGzbmqUjZjw-RyDDuB3r-126" vertex="1">
          <mxGeometry y="30" width="160" height="30" as="geometry" />
        </mxCell>
        <mxCell id="sGzbmqUjZjw-RyDDuB3r-128" value="name" style="text;strokeColor=none;fillColor=none;align=left;verticalAlign=middle;spacingLeft=4;spacingRight=4;overflow=hidden;points=[[0,0.5],[1,0.5]];portConstraint=eastwest;rotatable=0;whiteSpace=wrap;html=1;" parent="sGzbmqUjZjw-RyDDuB3r-126" vertex="1">
          <mxGeometry y="60" width="160" height="30" as="geometry" />
        </mxCell>
        <mxCell id="sGzbmqUjZjw-RyDDuB3r-132" value="status" style="text;strokeColor=none;fillColor=none;align=left;verticalAlign=middle;spacingLeft=4;spacingRight=4;overflow=hidden;points=[[0,0.5],[1,0.5]];portConstraint=eastwest;rotatable=0;whiteSpace=wrap;html=1;" parent="sGzbmqUjZjw-RyDDuB3r-126" vertex="1">
          <mxGeometry y="90" width="160" height="30" as="geometry" />
        </mxCell>
        <mxCell id="sGzbmqUjZjw-RyDDuB3r-129" value="country_city" style="swimlane;fontStyle=0;childLayout=stackLayout;horizontal=1;startSize=30;horizontalStack=0;resizeParent=1;resizeParentMax=0;resizeLast=0;collapsible=1;marginBottom=0;whiteSpace=wrap;html=1;fillColor=#0066CC;" parent="1" vertex="1">
          <mxGeometry x="-470" y="-2580.25" width="160" height="90" as="geometry" />
        </mxCell>
        <mxCell id="sGzbmqUjZjw-RyDDuB3r-130" value="countryID" style="text;strokeColor=none;fillColor=none;align=left;verticalAlign=middle;spacingLeft=4;spacingRight=4;overflow=hidden;points=[[0,0.5],[1,0.5]];portConstraint=eastwest;rotatable=0;whiteSpace=wrap;html=1;" parent="sGzbmqUjZjw-RyDDuB3r-129" vertex="1">
          <mxGeometry y="30" width="160" height="30" as="geometry" />
        </mxCell>
        <mxCell id="sGzbmqUjZjw-RyDDuB3r-131" value="cutyID" style="text;strokeColor=none;fillColor=none;align=left;verticalAlign=middle;spacingLeft=4;spacingRight=4;overflow=hidden;points=[[0,0.5],[1,0.5]];portConstraint=eastwest;rotatable=0;whiteSpace=wrap;html=1;" parent="sGzbmqUjZjw-RyDDuB3r-129" vertex="1">
          <mxGeometry y="60" width="160" height="30" as="geometry" />
        </mxCell>
        <mxCell id="sGzbmqUjZjw-RyDDuB3r-136" value="" style="edgeStyle=entityRelationEdgeStyle;fontSize=12;html=1;endArrow=ERoneToMany;startArrow=ERoneToMany;rounded=0;entryX=0;entryY=0.5;entryDx=0;entryDy=0;exitX=1;exitY=0.169;exitDx=0;exitDy=0;exitPerimeter=0;" parent="1" source="sGzbmqUjZjw-RyDDuB3r-126" target="sGzbmqUjZjw-RyDDuB3r-131" edge="1">
          <mxGeometry width="100" height="100" relative="1" as="geometry">
            <mxPoint x="-850" y="-2463.5" as="sourcePoint" />
            <mxPoint x="-750" y="-2563.5" as="targetPoint" />
          </mxGeometry>
        </mxCell>
        <mxCell id="sGzbmqUjZjw-RyDDuB3r-137" value="" style="edgeStyle=entityRelationEdgeStyle;fontSize=12;html=1;endArrow=ERoneToMany;startArrow=ERoneToMany;rounded=0;entryX=0.016;entryY=0.733;entryDx=0;entryDy=0;exitX=1.005;exitY=0.267;exitDx=0;exitDy=0;exitPerimeter=0;entryPerimeter=0;" parent="1" source="sGzbmqUjZjw-RyDDuB3r-123" target="sGzbmqUjZjw-RyDDuB3r-130" edge="1">
          <mxGeometry width="100" height="100" relative="1" as="geometry">
            <mxPoint x="-670" y="-2430" as="sourcePoint" />
            <mxPoint x="-520" y="-2495" as="targetPoint" />
          </mxGeometry>
        </mxCell>
        <mxCell id="sGzbmqUjZjw-RyDDuB3r-138" value="" style="edgeStyle=entityRelationEdgeStyle;fontSize=12;html=1;endArrow=ERoneToMany;startArrow=ERoneToMany;rounded=0;exitX=1;exitY=0.25;exitDx=0;exitDy=0;" parent="1" source="sGzbmqUjZjw-RyDDuB3r-129" target="sGzbmqUjZjw-RyDDuB3r-79" edge="1">
          <mxGeometry width="100" height="100" relative="1" as="geometry">
            <mxPoint x="-420" y="-2590" as="sourcePoint" />
            <mxPoint x="-320" y="-2690" as="targetPoint" />
          </mxGeometry>
        </mxCell>
        <mxCell id="sGzbmqUjZjw-RyDDuB3r-139" value="user_status&lt;br&gt;" style="swimlane;fontStyle=0;childLayout=stackLayout;horizontal=1;startSize=30;horizontalStack=0;resizeParent=1;resizeParentMax=0;resizeLast=0;collapsible=1;marginBottom=0;whiteSpace=wrap;html=1;fillColor=#0066CC;" parent="1" vertex="1">
          <mxGeometry x="570" y="-2403.5" width="160" height="90" as="geometry" />
        </mxCell>
        <mxCell id="sGzbmqUjZjw-RyDDuB3r-140" value="userID" style="text;strokeColor=none;fillColor=none;align=left;verticalAlign=middle;spacingLeft=4;spacingRight=4;overflow=hidden;points=[[0,0.5],[1,0.5]];portConstraint=eastwest;rotatable=0;whiteSpace=wrap;html=1;" parent="sGzbmqUjZjw-RyDDuB3r-139" vertex="1">
          <mxGeometry y="30" width="160" height="30" as="geometry" />
        </mxCell>
        <mxCell id="sGzbmqUjZjw-RyDDuB3r-141" value="status" style="text;strokeColor=none;fillColor=none;align=left;verticalAlign=middle;spacingLeft=4;spacingRight=4;overflow=hidden;points=[[0,0.5],[1,0.5]];portConstraint=eastwest;rotatable=0;whiteSpace=wrap;html=1;" parent="sGzbmqUjZjw-RyDDuB3r-139" vertex="1">
          <mxGeometry y="60" width="160" height="30" as="geometry" />
        </mxCell>
        <mxCell id="sGzbmqUjZjw-RyDDuB3r-143" value="" style="edgeStyle=entityRelationEdgeStyle;fontSize=12;html=1;endArrow=ERzeroToMany;endFill=1;startArrow=ERzeroToMany;rounded=0;" parent="1" source="sGzbmqUjZjw-RyDDuB3r-70" target="sGzbmqUjZjw-RyDDuB3r-140" edge="1">
          <mxGeometry width="100" height="100" relative="1" as="geometry">
            <mxPoint x="214" y="-2153" as="sourcePoint" />
            <mxPoint x="270" y="-1955" as="targetPoint" />
          </mxGeometry>
        </mxCell>
        <mxCell id="sGzbmqUjZjw-RyDDuB3r-144" value="business_status" style="swimlane;fontStyle=0;childLayout=stackLayout;horizontal=1;startSize=30;horizontalStack=0;resizeParent=1;resizeParentMax=0;resizeLast=0;collapsible=1;marginBottom=0;whiteSpace=wrap;html=1;fillColor=#0066CC;" parent="1" vertex="1">
          <mxGeometry x="-260" y="-2745.5" width="160" height="90" as="geometry" />
        </mxCell>
        <mxCell id="sGzbmqUjZjw-RyDDuB3r-145" value="businessCasID" style="text;strokeColor=none;fillColor=none;align=left;verticalAlign=middle;spacingLeft=4;spacingRight=4;overflow=hidden;points=[[0,0.5],[1,0.5]];portConstraint=eastwest;rotatable=0;whiteSpace=wrap;html=1;" parent="sGzbmqUjZjw-RyDDuB3r-144" vertex="1">
          <mxGeometry y="30" width="160" height="30" as="geometry" />
        </mxCell>
        <mxCell id="sGzbmqUjZjw-RyDDuB3r-146" value="status" style="text;strokeColor=none;fillColor=none;align=left;verticalAlign=middle;spacingLeft=4;spacingRight=4;overflow=hidden;points=[[0,0.5],[1,0.5]];portConstraint=eastwest;rotatable=0;whiteSpace=wrap;html=1;" parent="sGzbmqUjZjw-RyDDuB3r-144" vertex="1">
          <mxGeometry y="60" width="160" height="30" as="geometry" />
        </mxCell>
        <mxCell id="sGzbmqUjZjw-RyDDuB3r-147" value="" style="edgeStyle=entityRelationEdgeStyle;fontSize=12;html=1;endArrow=ERoneToMany;startArrow=ERoneToMany;rounded=0;exitX=1;exitY=0.5;exitDx=0;exitDy=0;" parent="1" source="sGzbmqUjZjw-RyDDuB3r-145" target="sGzbmqUjZjw-RyDDuB3r-134" edge="1">
          <mxGeometry width="100" height="100" relative="1" as="geometry">
            <mxPoint x="-360" y="-2547" as="sourcePoint" />
            <mxPoint x="-240" y="-2495" as="targetPoint" />
          </mxGeometry>
        </mxCell>
        <mxCell id="sGzbmqUjZjw-RyDDuB3r-148" value="city_status" style="swimlane;fontStyle=0;childLayout=stackLayout;horizontal=1;startSize=30;horizontalStack=0;resizeParent=1;resizeParentMax=0;resizeLast=0;collapsible=1;marginBottom=0;whiteSpace=wrap;html=1;fillColor=#0066CC;" parent="1" vertex="1">
          <mxGeometry x="-930" y="-2533.5" width="160" height="90" as="geometry" />
        </mxCell>
        <mxCell id="sGzbmqUjZjw-RyDDuB3r-149" value="cityID" style="text;strokeColor=none;fillColor=none;align=left;verticalAlign=middle;spacingLeft=4;spacingRight=4;overflow=hidden;points=[[0,0.5],[1,0.5]];portConstraint=eastwest;rotatable=0;whiteSpace=wrap;html=1;" parent="sGzbmqUjZjw-RyDDuB3r-148" vertex="1">
          <mxGeometry y="30" width="160" height="30" as="geometry" />
        </mxCell>
        <mxCell id="sGzbmqUjZjw-RyDDuB3r-150" value="status" style="text;strokeColor=none;fillColor=none;align=left;verticalAlign=middle;spacingLeft=4;spacingRight=4;overflow=hidden;points=[[0,0.5],[1,0.5]];portConstraint=eastwest;rotatable=0;whiteSpace=wrap;html=1;" parent="sGzbmqUjZjw-RyDDuB3r-148" vertex="1">
          <mxGeometry y="60" width="160" height="30" as="geometry" />
        </mxCell>
        <mxCell id="sGzbmqUjZjw-RyDDuB3r-151" value="" style="edgeStyle=entityRelationEdgeStyle;fontSize=12;html=1;endArrow=ERoneToMany;startArrow=ERoneToMany;rounded=0;entryX=0;entryY=0.5;entryDx=0;entryDy=0;exitX=1;exitY=0.5;exitDx=0;exitDy=0;" parent="1" source="sGzbmqUjZjw-RyDDuB3r-149" target="sGzbmqUjZjw-RyDDuB3r-127" edge="1">
          <mxGeometry width="100" height="100" relative="1" as="geometry">
            <mxPoint x="-670" y="-2430" as="sourcePoint" />
            <mxPoint x="-520" y="-2495" as="targetPoint" />
          </mxGeometry>
        </mxCell>
        <mxCell id="sGzbmqUjZjw-RyDDuB3r-152" value="roles_status" style="swimlane;fontStyle=0;childLayout=stackLayout;horizontal=1;startSize=30;horizontalStack=0;resizeParent=1;resizeParentMax=0;resizeLast=0;collapsible=1;marginBottom=0;whiteSpace=wrap;html=1;fillColor=#0066CC;" parent="1" vertex="1">
          <mxGeometry x="-530" y="-2220" width="160" height="90" as="geometry" />
        </mxCell>
        <mxCell id="sGzbmqUjZjw-RyDDuB3r-153" value="rolesID" style="text;strokeColor=none;fillColor=none;align=left;verticalAlign=middle;spacingLeft=4;spacingRight=4;overflow=hidden;points=[[0,0.5],[1,0.5]];portConstraint=eastwest;rotatable=0;whiteSpace=wrap;html=1;" parent="sGzbmqUjZjw-RyDDuB3r-152" vertex="1">
          <mxGeometry y="30" width="160" height="30" as="geometry" />
        </mxCell>
        <mxCell id="sGzbmqUjZjw-RyDDuB3r-154" value="status" style="text;strokeColor=none;fillColor=none;align=left;verticalAlign=middle;spacingLeft=4;spacingRight=4;overflow=hidden;points=[[0,0.5],[1,0.5]];portConstraint=eastwest;rotatable=0;whiteSpace=wrap;html=1;" parent="sGzbmqUjZjw-RyDDuB3r-152" vertex="1">
          <mxGeometry y="60" width="160" height="30" as="geometry" />
        </mxCell>
        <mxCell id="sGzbmqUjZjw-RyDDuB3r-155" value="" style="edgeStyle=entityRelationEdgeStyle;fontSize=12;html=1;endArrow=ERoneToMany;startArrow=ERoneToMany;rounded=0;entryX=-0.005;entryY=0.347;entryDx=0;entryDy=0;entryPerimeter=0;" parent="1" source="sGzbmqUjZjw-RyDDuB3r-153" target="sGzbmqUjZjw-RyDDuB3r-85" edge="1">
          <mxGeometry width="100" height="100" relative="1" as="geometry">
            <mxPoint x="-930" y="-2212" as="sourcePoint" />
            <mxPoint x="-830" y="-2405" as="targetPoint" />
          </mxGeometry>
        </mxCell>
        <mxCell id="sGzbmqUjZjw-RyDDuB3r-156" value="permission_status" style="swimlane;fontStyle=0;childLayout=stackLayout;horizontal=1;startSize=30;horizontalStack=0;resizeParent=1;resizeParentMax=0;resizeLast=0;collapsible=1;marginBottom=0;whiteSpace=wrap;html=1;fillColor=#0066CC;" parent="1" vertex="1">
          <mxGeometry x="540" y="-2010" width="160" height="90" as="geometry" />
        </mxCell>
        <mxCell id="sGzbmqUjZjw-RyDDuB3r-157" value="permissionID" style="text;strokeColor=none;fillColor=none;align=left;verticalAlign=middle;spacingLeft=4;spacingRight=4;overflow=hidden;points=[[0,0.5],[1,0.5]];portConstraint=eastwest;rotatable=0;whiteSpace=wrap;html=1;" parent="sGzbmqUjZjw-RyDDuB3r-156" vertex="1">
          <mxGeometry y="30" width="160" height="30" as="geometry" />
        </mxCell>
        <mxCell id="sGzbmqUjZjw-RyDDuB3r-158" value="status" style="text;strokeColor=none;fillColor=none;align=left;verticalAlign=middle;spacingLeft=4;spacingRight=4;overflow=hidden;points=[[0,0.5],[1,0.5]];portConstraint=eastwest;rotatable=0;whiteSpace=wrap;html=1;" parent="sGzbmqUjZjw-RyDDuB3r-156" vertex="1">
          <mxGeometry y="60" width="160" height="30" as="geometry" />
        </mxCell>
        <mxCell id="sGzbmqUjZjw-RyDDuB3r-159" value="" style="edgeStyle=entityRelationEdgeStyle;fontSize=12;html=1;endArrow=ERzeroToMany;endFill=1;startArrow=ERzeroToMany;rounded=0;exitX=1;exitY=0.5;exitDx=0;exitDy=0;entryX=0.016;entryY=0.317;entryDx=0;entryDy=0;entryPerimeter=0;" parent="1" source="sGzbmqUjZjw-RyDDuB3r-108" target="sGzbmqUjZjw-RyDDuB3r-157" edge="1">
          <mxGeometry width="100" height="100" relative="1" as="geometry">
            <mxPoint x="214" y="-2153" as="sourcePoint" />
            <mxPoint x="270" y="-1955" as="targetPoint" />
          </mxGeometry>
        </mxCell>
        <mxCell id="sGzbmqUjZjw-RyDDuB3r-160" value="login_status" style="swimlane;fontStyle=0;childLayout=stackLayout;horizontal=1;startSize=30;horizontalStack=0;resizeParent=1;resizeParentMax=0;resizeLast=0;collapsible=1;marginBottom=0;whiteSpace=wrap;html=1;fillColor=#0066CC;" parent="1" vertex="1">
          <mxGeometry x="740" y="-2207.75" width="160" height="90" as="geometry" />
        </mxCell>
        <mxCell id="sGzbmqUjZjw-RyDDuB3r-161" value="loginID" style="text;strokeColor=none;fillColor=none;align=left;verticalAlign=middle;spacingLeft=4;spacingRight=4;overflow=hidden;points=[[0,0.5],[1,0.5]];portConstraint=eastwest;rotatable=0;whiteSpace=wrap;html=1;" parent="sGzbmqUjZjw-RyDDuB3r-160" vertex="1">
          <mxGeometry y="30" width="160" height="30" as="geometry" />
        </mxCell>
        <mxCell id="sGzbmqUjZjw-RyDDuB3r-162" value="status" style="text;strokeColor=none;fillColor=none;align=left;verticalAlign=middle;spacingLeft=4;spacingRight=4;overflow=hidden;points=[[0,0.5],[1,0.5]];portConstraint=eastwest;rotatable=0;whiteSpace=wrap;html=1;" parent="sGzbmqUjZjw-RyDDuB3r-160" vertex="1">
          <mxGeometry y="60" width="160" height="30" as="geometry" />
        </mxCell>
        <mxCell id="sGzbmqUjZjw-RyDDuB3r-165" value="" style="edgeStyle=entityRelationEdgeStyle;fontSize=12;html=1;endArrow=ERzeroToMany;endFill=1;startArrow=ERzeroToMany;rounded=0;exitX=1;exitY=0.5;exitDx=0;exitDy=0;entryX=0;entryY=0.5;entryDx=0;entryDy=0;" parent="1" source="sGzbmqUjZjw-RyDDuB3r-164" target="sGzbmqUjZjw-RyDDuB3r-161" edge="1">
          <mxGeometry width="100" height="100" relative="1" as="geometry">
            <mxPoint x="214" y="-2153" as="sourcePoint" />
            <mxPoint x="270" y="-1955" as="targetPoint" />
          </mxGeometry>
        </mxCell>
        <mxCell id="OBiVA5M0ynd2VpOiKMQu-2" value="" style="sketch=0;outlineConnect=0;fontColor=#232F3E;gradientColor=none;fillColor=#7AA116;strokeColor=none;dashed=0;verticalLabelPosition=bottom;verticalAlign=top;align=center;html=1;fontSize=12;fontStyle=0;aspect=fixed;pointerEvents=1;shape=mxgraph.aws4.file_cache_on_premises_nfs_linked_datasets;" parent="1" vertex="1">
          <mxGeometry x="-2280" y="-4230" width="78" height="78" as="geometry" />
        </mxCell>
      </root>
    </mxGraphModel>
  </diagram>
  <diagram id="63Hzkk0HB2egqQU1Mt12" name="Arquitectura CAS">
    <mxGraphModel dx="1619" dy="1615" grid="1" gridSize="10" guides="1" tooltips="1" connect="1" arrows="1" fold="1" page="1" pageScale="1" pageWidth="1169" pageHeight="827" math="0" shadow="0">
      <root>
        <mxCell id="0" />
        <mxCell id="1" parent="0" />
        <object placeholders="1" c4Name="CAS" c4Type="SystemScopeBoundary" c4Application="DROPI CORE" label="&lt;font style=&quot;font-size: 16px&quot;&gt;&lt;b&gt;&lt;div style=&quot;text-align: left&quot;&gt;%c4Name%&lt;/div&gt;&lt;/b&gt;&lt;/font&gt;&lt;div style=&quot;text-align: left&quot;&gt;[%c4Application%]&lt;/div&gt;" id="tTOVVw9utxca3KkvQjdO-2">
          <mxCell style="rounded=1;fontSize=11;whiteSpace=wrap;html=1;dashed=1;arcSize=20;fillColor=none;strokeColor=#666666;fontColor=#333333;labelBackgroundColor=none;align=left;verticalAlign=bottom;labelBorderColor=none;spacingTop=0;spacing=10;dashPattern=8 4;metaEdit=1;rotatable=0;perimeter=rectanglePerimeter;noLabel=0;labelPadding=0;allowArrows=0;connectable=0;expand=0;recursiveResize=0;editable=1;pointerEvents=0;absoluteArcSize=1;points=[[0.25,0,0],[0.5,0,0],[0.75,0,0],[1,0.25,0],[1,0.5,0],[1,0.75,0],[0.75,1,0],[0.5,1,0],[0.25,1,0],[0,0.75,0],[0,0.5,0],[0,0.25,0]];" parent="1" vertex="1">
            <mxGeometry x="35" y="180" width="615" height="320" as="geometry" />
          </mxCell>
        </object>
        <object placeholders="1" c4Name="BACKEND" c4Type="Software System" c4Description="BACKEND" label="&lt;font style=&quot;font-size: 16px&quot;&gt;&lt;b&gt;%c4Name%&lt;/b&gt;&lt;/font&gt;&lt;div&gt;[%c4Type%]&lt;/div&gt;&lt;br&gt;&lt;div&gt;&lt;font style=&quot;font-size: 11px&quot;&gt;&lt;font color=&quot;#cccccc&quot;&gt;%c4Description%&lt;/font&gt;&lt;/div&gt;" id="tTOVVw9utxca3KkvQjdO-3">
          <mxCell style="rounded=1;whiteSpace=wrap;html=1;labelBackgroundColor=none;fillColor=#1061B0;fontColor=#ffffff;align=center;arcSize=10;strokeColor=#0D5091;metaEdit=1;resizable=0;points=[[0.25,0,0],[0.5,0,0],[0.75,0,0],[1,0.25,0],[1,0.5,0],[1,0.75,0],[0.75,1,0],[0.5,1,0],[0.25,1,0],[0,0.75,0],[0,0.5,0],[0,0.25,0]];" parent="1" vertex="1">
            <mxGeometry x="60" y="210" width="240" height="120" as="geometry" />
          </mxCell>
        </object>
        <object placeholders="1" c4Name="FRONTEND" c4Type="Software System" c4Description="FRONTEND" label="&lt;font style=&quot;font-size: 16px&quot;&gt;&lt;b&gt;%c4Name%&lt;/b&gt;&lt;/font&gt;&lt;div&gt;[%c4Type%]&lt;/div&gt;&lt;br&gt;&lt;div&gt;&lt;font style=&quot;font-size: 11px&quot;&gt;&lt;font color=&quot;#cccccc&quot;&gt;%c4Description%&lt;/font&gt;&lt;/div&gt;" id="tTOVVw9utxca3KkvQjdO-4">
          <mxCell style="rounded=1;whiteSpace=wrap;html=1;labelBackgroundColor=none;fillColor=#1061B0;fontColor=#ffffff;align=center;arcSize=10;strokeColor=#0D5091;metaEdit=1;resizable=0;points=[[0.25,0,0],[0.5,0,0],[0.75,0,0],[1,0.25,0],[1,0.5,0],[1,0.75,0],[0.75,1,0],[0.5,1,0],[0.25,1,0],[0,0.75,0],[0,0.5,0],[0,0.25,0]];" parent="1" vertex="1">
            <mxGeometry x="345" y="354" width="240" height="120" as="geometry" />
          </mxCell>
        </object>
        <object placeholders="1" c4Type="BD DROPI" c4Container="PostgreSql" c4Technology="PostgreSql " c4Description="ALMACENA TABLAS DE PARAMETRIZACIONES" label="&lt;font style=&quot;font-size: 16px&quot;&gt;&lt;b&gt;%c4Type%&lt;/b&gt;&lt;/font&gt;&lt;div&gt;[%c4Container%:&amp;nbsp;%c4Technology%]&lt;/div&gt;&lt;br&gt;&lt;div&gt;&lt;font style=&quot;font-size: 11px&quot;&gt;&lt;font color=&quot;#E6E6E6&quot;&gt;%c4Description%&lt;/font&gt;&lt;/div&gt;" id="tTOVVw9utxca3KkvQjdO-6">
          <mxCell style="shape=cylinder3;size=15;whiteSpace=wrap;html=1;boundedLbl=1;rounded=0;labelBackgroundColor=none;fillColor=#23A2D9;fontSize=12;fontColor=#ffffff;align=center;strokeColor=#0E7DAD;metaEdit=1;points=[[0.5,0,0],[1,0.25,0],[1,0.5,0],[1,0.75,0],[0.5,1,0],[0,0.75,0],[0,0.5,0],[0,0.25,0]];resizable=0;" parent="1" vertex="1">
            <mxGeometry x="60" y="-80" width="240" height="120" as="geometry" />
          </mxCell>
        </object>
        <mxCell id="tTOVVw9utxca3KkvQjdO-7" value="dispatch" style="html=1;verticalAlign=bottom;endArrow=block;curved=0;rounded=0;" parent="1" source="tTOVVw9utxca3KkvQjdO-3" target="tTOVVw9utxca3KkvQjdO-6" edge="1">
          <mxGeometry width="80" relative="1" as="geometry">
            <mxPoint x="470" y="260" as="sourcePoint" />
            <mxPoint x="550" y="260" as="targetPoint" />
          </mxGeometry>
        </mxCell>
        <object placeholders="1" c4Type="MONGO DB" c4Container="MONGO DB" c4Technology="ATLAS" c4Description="ALMACENA SISTEMA CONVERSACIONAL" label="&lt;font style=&quot;font-size: 16px&quot;&gt;&lt;b&gt;%c4Type%&lt;/b&gt;&lt;/font&gt;&lt;div&gt;[%c4Container%:&amp;nbsp;%c4Technology%]&lt;/div&gt;&lt;br&gt;&lt;div&gt;&lt;font style=&quot;font-size: 11px&quot;&gt;&lt;font color=&quot;#E6E6E6&quot;&gt;%c4Description%&lt;/font&gt;&lt;/div&gt;" id="tTOVVw9utxca3KkvQjdO-8">
          <mxCell style="shape=cylinder3;size=15;whiteSpace=wrap;html=1;boundedLbl=1;rounded=0;labelBackgroundColor=none;fillColor=#23A2D9;fontSize=12;fontColor=#ffffff;align=center;strokeColor=#0E7DAD;metaEdit=1;points=[[0.5,0,0],[1,0.25,0],[1,0.5,0],[1,0.75,0],[0.5,1,0],[0,0.75,0],[0,0.5,0],[0,0.25,0]];resizable=0;" parent="1" vertex="1">
            <mxGeometry x="500" y="-80" width="240" height="120" as="geometry" />
          </mxCell>
        </object>
        <mxCell id="tTOVVw9utxca3KkvQjdO-11" value="" style="outlineConnect=0;dashed=0;verticalLabelPosition=bottom;verticalAlign=top;align=center;html=1;shape=mxgraph.aws3.android;fillColor=#8CC64F;gradientColor=none;" parent="1" vertex="1">
          <mxGeometry x="936.5" y="-10" width="73.5" height="84" as="geometry" />
        </mxCell>
        <mxCell id="tTOVVw9utxca3KkvQjdO-12" value="API REST / SOCKET IO SERVER" style="text;html=1;align=center;verticalAlign=middle;resizable=0;points=[];autosize=1;strokeColor=none;fillColor=none;" parent="1" vertex="1">
          <mxGeometry x="868.25" y="-60" width="210" height="30" as="geometry" />
        </mxCell>
        <object placeholders="1" c4Type="Relationship" c4Technology="e.g. JSON/HTTP" c4Description="e.g. Makes API calls" label="&lt;div style=&quot;text-align: left&quot;&gt;&lt;div style=&quot;text-align: center&quot;&gt;&lt;b&gt;%c4Description%&lt;/b&gt;&lt;/div&gt;&lt;div style=&quot;text-align: center&quot;&gt;[%c4Technology%]&lt;/div&gt;&lt;/div&gt;" id="tTOVVw9utxca3KkvQjdO-14">
          <mxCell style="endArrow=blockThin;html=1;fontSize=10;fontColor=#404040;strokeWidth=1;endFill=1;strokeColor=#828282;elbow=vertical;metaEdit=1;endSize=14;startSize=14;jumpStyle=arc;jumpSize=16;rounded=0;edgeStyle=orthogonalEdgeStyle;entryX=0;entryY=0.75;entryDx=0;entryDy=0;entryPerimeter=0;" parent="1" source="tTOVVw9utxca3KkvQjdO-4" target="tTOVVw9utxca3KkvQjdO-11" edge="1">
            <mxGeometry width="240" relative="1" as="geometry">
              <mxPoint x="310" y="280" as="sourcePoint" />
              <mxPoint x="850" y="320" as="targetPoint" />
              <Array as="points">
                <mxPoint x="550" y="240" />
                <mxPoint x="880" y="240" />
                <mxPoint x="880" y="53" />
              </Array>
            </mxGeometry>
          </mxCell>
        </object>
        <object placeholders="1" c4Type="Relationship" c4Technology="Web Socket" c4Description="Notifica un evento" label="&lt;div style=&quot;text-align: left&quot;&gt;&lt;div style=&quot;text-align: center&quot;&gt;&lt;b&gt;%c4Description%&lt;/b&gt;&lt;/div&gt;&lt;div style=&quot;text-align: center&quot;&gt;[%c4Technology%]&lt;/div&gt;&lt;/div&gt;" id="tTOVVw9utxca3KkvQjdO-15">
          <mxCell style="endArrow=blockThin;html=1;fontSize=10;fontColor=#404040;strokeWidth=1;endFill=1;strokeColor=#828282;elbow=vertical;metaEdit=1;endSize=14;startSize=14;jumpStyle=arc;jumpSize=16;rounded=0;edgeStyle=orthogonalEdgeStyle;exitX=1;exitY=0.75;exitDx=0;exitDy=0;exitPerimeter=0;" parent="1" source="tTOVVw9utxca3KkvQjdO-11" target="tTOVVw9utxca3KkvQjdO-4" edge="1">
            <mxGeometry width="240" relative="1" as="geometry">
              <mxPoint x="520" y="290" as="sourcePoint" />
              <mxPoint x="760" y="290" as="targetPoint" />
              <Array as="points">
                <mxPoint x="1010" y="20" />
                <mxPoint x="1090" y="20" />
                <mxPoint x="1090" y="200" />
                <mxPoint x="1020" y="200" />
                <mxPoint x="1020" y="460" />
              </Array>
            </mxGeometry>
          </mxCell>
        </object>
        <object placeholders="1" c4Type="Relationship" id="tTOVVw9utxca3KkvQjdO-16">
          <mxCell style="endArrow=blockThin;html=1;fontSize=10;fontColor=#404040;strokeWidth=1;endFill=1;strokeColor=#828282;elbow=vertical;metaEdit=1;endSize=14;startSize=14;jumpStyle=arc;jumpSize=16;rounded=0;edgeStyle=orthogonalEdgeStyle;entryX=1;entryY=0.5;entryDx=0;entryDy=0;entryPerimeter=0;exitX=0.5;exitY=0;exitDx=0;exitDy=0;exitPerimeter=0;" parent="1" source="tTOVVw9utxca3KkvQjdO-11" target="tTOVVw9utxca3KkvQjdO-8" edge="1">
            <mxGeometry width="240" relative="1" as="geometry">
              <mxPoint x="520" y="190" as="sourcePoint" />
              <mxPoint x="760" y="190" as="targetPoint" />
            </mxGeometry>
          </mxCell>
        </object>
        <object placeholders="1" c4Type="Relationship" c4Technology="e.g. JSON/HTTP" c4Description="e.g. Makes API calls" label="&lt;div style=&quot;text-align: left&quot;&gt;&lt;div style=&quot;text-align: center&quot;&gt;&lt;b&gt;%c4Description%&lt;/b&gt;&lt;/div&gt;&lt;div style=&quot;text-align: center&quot;&gt;[%c4Technology%]&lt;/div&gt;&lt;/div&gt;" id="tTOVVw9utxca3KkvQjdO-17">
          <mxCell style="endArrow=blockThin;html=1;fontSize=10;fontColor=#404040;strokeWidth=1;endFill=1;strokeColor=#828282;elbow=vertical;metaEdit=1;endSize=14;startSize=14;jumpStyle=arc;jumpSize=16;rounded=0;edgeStyle=orthogonalEdgeStyle;entryX=1;entryY=0.5;entryDx=0;entryDy=0;entryPerimeter=0;exitX=0.625;exitY=0;exitDx=0;exitDy=0;exitPerimeter=0;" parent="1" source="tTOVVw9utxca3KkvQjdO-4" target="tTOVVw9utxca3KkvQjdO-3" edge="1">
            <mxGeometry width="240" relative="1" as="geometry">
              <mxPoint x="520" y="190" as="sourcePoint" />
              <mxPoint x="760" y="190" as="targetPoint" />
            </mxGeometry>
          </mxCell>
        </object>
      </root>
    </mxGraphModel>
  </diagram>
  <diagram id="d4Nsw_AFqOxLPEv77a1B" name="Flujo  Cas ">
    <mxGraphModel dx="4520" dy="2520" grid="1" gridSize="10" guides="1" tooltips="1" connect="1" arrows="1" fold="1" page="1" pageScale="1" pageWidth="827" pageHeight="1169" math="0" shadow="0">
      <root>
        <mxCell id="0" />
        <mxCell id="1" parent="0" />
        <mxCell id="OqTpMwvWIf5yQaUmz5_c-20" value="" style="verticalLabelPosition=bottom;verticalAlign=top;html=1;shape=mxgraph.basic.patternFillRect;fillStyle=hor;step=5;fillStrokeWidth=0.2;fillStrokeColor=#dddddd;fillColor=#E6D0DE;" vertex="1" parent="1">
          <mxGeometry x="1215" y="460" width="1060" height="610" as="geometry" />
        </mxCell>
        <mxCell id="OqTpMwvWIf5yQaUmz5_c-19" value="" style="verticalLabelPosition=bottom;verticalAlign=top;html=1;shape=mxgraph.basic.patternFillRect;fillStyle=hor;step=5;fillStrokeWidth=0.2;fillStrokeColor=#dddddd;fillColor=#E6D0DE;" vertex="1" parent="1">
          <mxGeometry x="1220" y="-195" width="1060" height="610" as="geometry" />
        </mxCell>
        <mxCell id="lZkJR_y29X51eTwyJJMO-68" value="" style="whiteSpace=wrap;html=1;aspect=fixed;fillColor=#CCCCCC;" parent="1" vertex="1">
          <mxGeometry x="-120" y="-120" width="1172" height="1172" as="geometry" />
        </mxCell>
        <mxCell id="lZkJR_y29X51eTwyJJMO-1" value="Actor" style="shape=umlActor;verticalLabelPosition=bottom;verticalAlign=top;html=1;outlineConnect=0;" parent="1" vertex="1">
          <mxGeometry x="-290" y="370" width="40" height="90" as="geometry" />
        </mxCell>
        <mxCell id="lZkJR_y29X51eTwyJJMO-2" value="" style="shape=flexArrow;endArrow=classic;html=1;rounded=0;fillColor=#F19C99;entryX=0.002;entryY=0.435;entryDx=0;entryDy=0;entryPerimeter=0;" parent="1" source="lZkJR_y29X51eTwyJJMO-1" target="lZkJR_y29X51eTwyJJMO-68" edge="1">
          <mxGeometry width="50" height="50" relative="1" as="geometry">
            <mxPoint x="-220" y="420" as="sourcePoint" />
            <mxPoint x="-150" y="420" as="targetPoint" />
            <Array as="points" />
          </mxGeometry>
        </mxCell>
        <mxCell id="lZkJR_y29X51eTwyJJMO-77" value="Inicio" style="edgeLabel;html=1;align=center;verticalAlign=middle;resizable=0;points=[];" parent="lZkJR_y29X51eTwyJJMO-2" vertex="1" connectable="0">
          <mxGeometry x="-0.2596" y="-3" relative="1" as="geometry">
            <mxPoint x="1" y="-2" as="offset" />
          </mxGeometry>
        </mxCell>
        <mxCell id="lZkJR_y29X51eTwyJJMO-3" value="user" style="shape=card;whiteSpace=wrap;html=1;fillColor=#66B2FF;" parent="1" vertex="1">
          <mxGeometry x="310" y="360" width="60" height="55" as="geometry" />
        </mxCell>
        <mxCell id="lZkJR_y29X51eTwyJJMO-62" style="edgeStyle=orthogonalEdgeStyle;rounded=0;orthogonalLoop=1;jettySize=auto;html=1;exitX=1;exitY=0.5;exitDx=0;exitDy=0;exitPerimeter=0;" parent="1" source="lZkJR_y29X51eTwyJJMO-4" edge="1">
          <mxGeometry relative="1" as="geometry">
            <mxPoint x="860" y="655" as="targetPoint" />
          </mxGeometry>
        </mxCell>
        <mxCell id="lZkJR_y29X51eTwyJJMO-66" style="edgeStyle=orthogonalEdgeStyle;rounded=0;orthogonalLoop=1;jettySize=auto;html=1;" parent="1" source="lZkJR_y29X51eTwyJJMO-4" edge="1">
          <mxGeometry relative="1" as="geometry">
            <mxPoint x="960" y="655" as="targetPoint" />
          </mxGeometry>
        </mxCell>
        <mxCell id="lZkJR_y29X51eTwyJJMO-4" value="permission user bussines" style="shape=card;whiteSpace=wrap;html=1;fillColor=#66B2FF;" parent="1" vertex="1">
          <mxGeometry x="180" y="610" width="80" height="90" as="geometry" />
        </mxCell>
        <mxCell id="lZkJR_y29X51eTwyJJMO-5" value="permission" style="shape=card;whiteSpace=wrap;html=1;fillColor=#66B2FF;" parent="1" vertex="1">
          <mxGeometry x="750" y="455" width="70" height="70" as="geometry" />
        </mxCell>
        <mxCell id="lZkJR_y29X51eTwyJJMO-6" value="validar usuario" style="rhombus;whiteSpace=wrap;html=1;" parent="1" vertex="1">
          <mxGeometry x="-70" y="318" width="90" height="82" as="geometry" />
        </mxCell>
        <mxCell id="lZkJR_y29X51eTwyJJMO-7" value="" style="endArrow=classic;html=1;rounded=0;entryX=0.5;entryY=1;entryDx=0;entryDy=0;" parent="1" source="lZkJR_y29X51eTwyJJMO-6" target="lZkJR_y29X51eTwyJJMO-9" edge="1">
          <mxGeometry width="50" height="50" relative="1" as="geometry">
            <mxPoint x="180" y="520" as="sourcePoint" />
            <mxPoint x="190" y="490" as="targetPoint" />
          </mxGeometry>
        </mxCell>
        <mxCell id="lZkJR_y29X51eTwyJJMO-79" style="edgeStyle=orthogonalEdgeStyle;rounded=0;orthogonalLoop=1;jettySize=auto;html=1;exitX=1;exitY=0.5;exitDx=0;exitDy=0;" parent="1" source="lZkJR_y29X51eTwyJJMO-9" target="lZkJR_y29X51eTwyJJMO-11" edge="1">
          <mxGeometry relative="1" as="geometry" />
        </mxCell>
        <mxCell id="lZkJR_y29X51eTwyJJMO-9" value="No existe" style="text;html=1;align=center;verticalAlign=middle;whiteSpace=wrap;rounded=0;fillColor=#33FF33;" parent="1" vertex="1">
          <mxGeometry x="45" y="370" width="60" height="30" as="geometry" />
        </mxCell>
        <mxCell id="lZkJR_y29X51eTwyJJMO-11" value="creamos el usuario&amp;nbsp;" style="shape=parallelogram;perimeter=parallelogramPerimeter;whiteSpace=wrap;html=1;fixedSize=1;fillColor=#FFCCFF;" parent="1" vertex="1">
          <mxGeometry x="150" y="370" width="90" height="50" as="geometry" />
        </mxCell>
        <mxCell id="lZkJR_y29X51eTwyJJMO-14" style="edgeStyle=orthogonalEdgeStyle;rounded=0;orthogonalLoop=1;jettySize=auto;html=1;entryX=0;entryY=0;entryDx=0;entryDy=30;entryPerimeter=0;" parent="1" source="lZkJR_y29X51eTwyJJMO-11" target="lZkJR_y29X51eTwyJJMO-3" edge="1">
          <mxGeometry relative="1" as="geometry" />
        </mxCell>
        <mxCell id="lZkJR_y29X51eTwyJJMO-15" value="validamos estado de los permisión que llegan&amp;nbsp;" style="shape=parallelogram;perimeter=parallelogramPerimeter;whiteSpace=wrap;html=1;fixedSize=1;" parent="1" vertex="1">
          <mxGeometry x="290" y="476" width="174" height="40" as="geometry" />
        </mxCell>
        <mxCell id="lZkJR_y29X51eTwyJJMO-20" style="edgeStyle=orthogonalEdgeStyle;rounded=0;orthogonalLoop=1;jettySize=auto;html=1;" parent="1" source="lZkJR_y29X51eTwyJJMO-17" target="lZkJR_y29X51eTwyJJMO-19" edge="1">
          <mxGeometry relative="1" as="geometry" />
        </mxCell>
        <mxCell id="lZkJR_y29X51eTwyJJMO-17" value="consulta todos los&amp;nbsp;&lt;div&gt;permisos por&amp;nbsp;&lt;/div&gt;&lt;div&gt;empresa&lt;div&gt;&amp;nbsp;si existe o se&lt;/div&gt;&lt;div&gt;tiene que crear&amp;nbsp;&lt;/div&gt;&lt;/div&gt;" style="text;html=1;align=center;verticalAlign=middle;resizable=0;points=[];autosize=1;strokeColor=none;fillColor=none;" parent="1" vertex="1">
          <mxGeometry x="510" y="415" width="120" height="90" as="geometry" />
        </mxCell>
        <mxCell id="lZkJR_y29X51eTwyJJMO-18" style="edgeStyle=orthogonalEdgeStyle;rounded=0;orthogonalLoop=1;jettySize=auto;html=1;exitX=1;exitY=0.5;exitDx=0;exitDy=0;entryX=0.01;entryY=0.4;entryDx=0;entryDy=0;entryPerimeter=0;" parent="1" source="lZkJR_y29X51eTwyJJMO-15" target="lZkJR_y29X51eTwyJJMO-17" edge="1">
          <mxGeometry relative="1" as="geometry" />
        </mxCell>
        <mxCell id="lZkJR_y29X51eTwyJJMO-25" style="edgeStyle=orthogonalEdgeStyle;rounded=0;orthogonalLoop=1;jettySize=auto;html=1;" parent="1" source="lZkJR_y29X51eTwyJJMO-19" target="lZkJR_y29X51eTwyJJMO-23" edge="1">
          <mxGeometry relative="1" as="geometry" />
        </mxCell>
        <mxCell id="lZkJR_y29X51eTwyJJMO-19" value="si existe" style="text;html=1;align=center;verticalAlign=middle;resizable=0;points=[];autosize=1;strokeColor=none;fillColor=#33FF33;" parent="1" vertex="1">
          <mxGeometry x="640" y="360" width="70" height="30" as="geometry" />
        </mxCell>
        <mxCell id="lZkJR_y29X51eTwyJJMO-22" value="permission_user_business_roles" style="shape=note;whiteSpace=wrap;html=1;backgroundOutline=1;darkOpacity=0.05;fillColor=#66B2FF;" parent="1" vertex="1">
          <mxGeometry x="390" y="80" width="190" height="80" as="geometry" />
        </mxCell>
        <mxCell id="lZkJR_y29X51eTwyJJMO-61" style="edgeStyle=orthogonalEdgeStyle;rounded=0;orthogonalLoop=1;jettySize=auto;html=1;" parent="1" source="lZkJR_y29X51eTwyJJMO-23" edge="1">
          <mxGeometry relative="1" as="geometry">
            <mxPoint x="860" y="650" as="targetPoint" />
            <Array as="points">
              <mxPoint x="861" y="313" />
              <mxPoint x="861" y="660" />
              <mxPoint x="860" y="660" />
            </Array>
          </mxGeometry>
        </mxCell>
        <mxCell id="lZkJR_y29X51eTwyJJMO-23" value="&lt;font style=&quot;font-size: 8px;&quot;&gt;enviamos la lista de id de los permisión asignados al user&amp;nbsp;&lt;/font&gt;" style="text;html=1;align=center;verticalAlign=middle;resizable=0;points=[];autosize=1;strokeColor=none;fillColor=none;" parent="1" vertex="1">
          <mxGeometry x="560" y="298" width="230" height="30" as="geometry" />
        </mxCell>
        <mxCell id="lZkJR_y29X51eTwyJJMO-26" style="edgeStyle=orthogonalEdgeStyle;rounded=0;orthogonalLoop=1;jettySize=auto;html=1;entryX=0;entryY=0;entryDx=190;entryDy=55;entryPerimeter=0;" parent="1" source="lZkJR_y29X51eTwyJJMO-23" target="lZkJR_y29X51eTwyJJMO-22" edge="1">
          <mxGeometry relative="1" as="geometry" />
        </mxCell>
        <mxCell id="lZkJR_y29X51eTwyJJMO-27" value="roles" style="shape=card;whiteSpace=wrap;html=1;fillColor=#66B2FF;" parent="1" vertex="1">
          <mxGeometry x="-90" y="80" width="60" height="60" as="geometry" />
        </mxCell>
        <mxCell id="lZkJR_y29X51eTwyJJMO-28" value="validamos si exite el tipo de rol" style="text;html=1;align=center;verticalAlign=middle;resizable=0;points=[];autosize=1;strokeColor=none;fillColor=none;" parent="1" vertex="1">
          <mxGeometry x="220" y="310" width="190" height="30" as="geometry" />
        </mxCell>
        <mxCell id="lZkJR_y29X51eTwyJJMO-31" style="edgeStyle=orthogonalEdgeStyle;rounded=0;orthogonalLoop=1;jettySize=auto;html=1;entryX=0.996;entryY=0.54;entryDx=0;entryDy=0;entryPerimeter=0;" parent="1" source="lZkJR_y29X51eTwyJJMO-29" target="lZkJR_y29X51eTwyJJMO-30" edge="1">
          <mxGeometry relative="1" as="geometry" />
        </mxCell>
        <mxCell id="lZkJR_y29X51eTwyJJMO-29" value="No existe" style="text;html=1;align=center;verticalAlign=middle;resizable=0;points=[];autosize=1;strokeColor=none;fillColor=#33FF33;" parent="1" vertex="1">
          <mxGeometry x="40" y="280" width="70" height="30" as="geometry" />
        </mxCell>
        <mxCell id="lZkJR_y29X51eTwyJJMO-30" value="creamos el rol&amp;nbsp;" style="text;html=1;align=center;verticalAlign=middle;resizable=0;points=[];autosize=1;strokeColor=none;fillColor=#FFCCFF;" parent="1" vertex="1">
          <mxGeometry x="-110" y="250" width="100" height="30" as="geometry" />
        </mxCell>
        <mxCell id="lZkJR_y29X51eTwyJJMO-33" style="edgeStyle=orthogonalEdgeStyle;rounded=0;orthogonalLoop=1;jettySize=auto;html=1;entryX=1.023;entryY=0.42;entryDx=0;entryDy=0;entryPerimeter=0;" parent="1" source="lZkJR_y29X51eTwyJJMO-28" target="lZkJR_y29X51eTwyJJMO-29" edge="1">
          <mxGeometry relative="1" as="geometry" />
        </mxCell>
        <mxCell id="lZkJR_y29X51eTwyJJMO-34" style="edgeStyle=orthogonalEdgeStyle;rounded=0;orthogonalLoop=1;jettySize=auto;html=1;entryX=0.724;entryY=0.012;entryDx=0;entryDy=0;entryPerimeter=0;" parent="1" source="lZkJR_y29X51eTwyJJMO-28" target="lZkJR_y29X51eTwyJJMO-11" edge="1">
          <mxGeometry relative="1" as="geometry" />
        </mxCell>
        <mxCell id="lZkJR_y29X51eTwyJJMO-38" value="No existe" style="text;html=1;align=center;verticalAlign=middle;resizable=0;points=[];autosize=1;strokeColor=none;fillColor=#33FF33;" parent="1" vertex="1">
          <mxGeometry x="620" y="520" width="70" height="30" as="geometry" />
        </mxCell>
        <mxCell id="lZkJR_y29X51eTwyJJMO-40" style="edgeStyle=orthogonalEdgeStyle;rounded=0;orthogonalLoop=1;jettySize=auto;html=1;entryX=0;entryY=0.66;entryDx=0;entryDy=0;entryPerimeter=0;" parent="1" source="lZkJR_y29X51eTwyJJMO-17" target="lZkJR_y29X51eTwyJJMO-38" edge="1">
          <mxGeometry relative="1" as="geometry" />
        </mxCell>
        <mxCell id="lZkJR_y29X51eTwyJJMO-45" style="edgeStyle=orthogonalEdgeStyle;rounded=0;orthogonalLoop=1;jettySize=auto;html=1;" parent="1" source="lZkJR_y29X51eTwyJJMO-41" edge="1">
          <mxGeometry relative="1" as="geometry">
            <mxPoint x="790" y="530" as="targetPoint" />
          </mxGeometry>
        </mxCell>
        <mxCell id="lZkJR_y29X51eTwyJJMO-41" value="creamos permission" style="text;html=1;align=center;verticalAlign=middle;resizable=0;points=[];autosize=1;strokeColor=none;fillColor=#FFCCFF;" parent="1" vertex="1">
          <mxGeometry x="595" y="585" width="130" height="30" as="geometry" />
        </mxCell>
        <mxCell id="lZkJR_y29X51eTwyJJMO-43" style="edgeStyle=orthogonalEdgeStyle;rounded=0;orthogonalLoop=1;jettySize=auto;html=1;entryX=0.451;entryY=0;entryDx=0;entryDy=0;entryPerimeter=0;" parent="1" source="lZkJR_y29X51eTwyJJMO-38" target="lZkJR_y29X51eTwyJJMO-41" edge="1">
          <mxGeometry relative="1" as="geometry" />
        </mxCell>
        <mxCell id="lZkJR_y29X51eTwyJJMO-46" style="edgeStyle=orthogonalEdgeStyle;rounded=0;orthogonalLoop=1;jettySize=auto;html=1;entryX=0.836;entryY=1.073;entryDx=0;entryDy=0;entryPerimeter=0;" parent="1" source="lZkJR_y29X51eTwyJJMO-5" target="lZkJR_y29X51eTwyJJMO-23" edge="1">
          <mxGeometry relative="1" as="geometry" />
        </mxCell>
        <mxCell id="lZkJR_y29X51eTwyJJMO-47" style="edgeStyle=orthogonalEdgeStyle;rounded=0;orthogonalLoop=1;jettySize=auto;html=1;entryX=0.06;entryY=1.037;entryDx=0;entryDy=0;entryPerimeter=0;" parent="1" source="lZkJR_y29X51eTwyJJMO-30" target="lZkJR_y29X51eTwyJJMO-27" edge="1">
          <mxGeometry relative="1" as="geometry" />
        </mxCell>
        <mxCell id="lZkJR_y29X51eTwyJJMO-49" style="edgeStyle=orthogonalEdgeStyle;rounded=0;orthogonalLoop=1;jettySize=auto;html=1;entryX=0;entryY=0.5;entryDx=0;entryDy=0;entryPerimeter=0;" parent="1" source="lZkJR_y29X51eTwyJJMO-36" target="lZkJR_y29X51eTwyJJMO-22" edge="1">
          <mxGeometry relative="1" as="geometry" />
        </mxCell>
        <mxCell id="lZkJR_y29X51eTwyJJMO-50" value="si existe&amp;nbsp;" style="text;html=1;align=center;verticalAlign=middle;resizable=0;points=[];autosize=1;strokeColor=none;fillColor=#33FF33;" parent="1" vertex="1">
          <mxGeometry x="250" y="235" width="70" height="30" as="geometry" />
        </mxCell>
        <mxCell id="lZkJR_y29X51eTwyJJMO-52" style="edgeStyle=orthogonalEdgeStyle;rounded=0;orthogonalLoop=1;jettySize=auto;html=1;entryX=0.689;entryY=-0.033;entryDx=0;entryDy=0;entryPerimeter=0;" parent="1" source="lZkJR_y29X51eTwyJJMO-28" target="lZkJR_y29X51eTwyJJMO-50" edge="1">
          <mxGeometry relative="1" as="geometry" />
        </mxCell>
        <mxCell id="lZkJR_y29X51eTwyJJMO-56" style="edgeStyle=orthogonalEdgeStyle;rounded=0;orthogonalLoop=1;jettySize=auto;html=1;" parent="1" source="lZkJR_y29X51eTwyJJMO-54" target="lZkJR_y29X51eTwyJJMO-36" edge="1">
          <mxGeometry relative="1" as="geometry" />
        </mxCell>
        <mxCell id="lZkJR_y29X51eTwyJJMO-54" value="&lt;font style=&quot;font-size: 8px;&quot;&gt;enviamos el id del rol&amp;nbsp;&lt;/font&gt;" style="text;html=1;align=center;verticalAlign=middle;resizable=0;points=[];autosize=1;strokeColor=none;fillColor=none;" parent="1" vertex="1">
          <mxGeometry x="100" y="200" width="100" height="30" as="geometry" />
        </mxCell>
        <mxCell id="lZkJR_y29X51eTwyJJMO-55" style="edgeStyle=orthogonalEdgeStyle;rounded=0;orthogonalLoop=1;jettySize=auto;html=1;entryX=0.498;entryY=1.02;entryDx=0;entryDy=0;entryPerimeter=0;" parent="1" source="lZkJR_y29X51eTwyJJMO-50" target="lZkJR_y29X51eTwyJJMO-54" edge="1">
          <mxGeometry relative="1" as="geometry" />
        </mxCell>
        <mxCell id="lZkJR_y29X51eTwyJJMO-60" style="edgeStyle=orthogonalEdgeStyle;rounded=0;orthogonalLoop=1;jettySize=auto;html=1;entryX=0;entryY=0;entryDx=45;entryDy=0;entryPerimeter=0;" parent="1" source="lZkJR_y29X51eTwyJJMO-11" target="lZkJR_y29X51eTwyJJMO-4" edge="1">
          <mxGeometry relative="1" as="geometry" />
        </mxCell>
        <mxCell id="lZkJR_y29X51eTwyJJMO-64" style="edgeStyle=orthogonalEdgeStyle;rounded=0;orthogonalLoop=1;jettySize=auto;html=1;" parent="1" source="lZkJR_y29X51eTwyJJMO-63" target="lZkJR_y29X51eTwyJJMO-22" edge="1">
          <mxGeometry relative="1" as="geometry" />
        </mxCell>
        <mxCell id="lZkJR_y29X51eTwyJJMO-65" style="edgeStyle=orthogonalEdgeStyle;rounded=0;orthogonalLoop=1;jettySize=auto;html=1;" parent="1" source="lZkJR_y29X51eTwyJJMO-63" edge="1">
          <mxGeometry relative="1" as="geometry">
            <mxPoint x="960" y="660" as="targetPoint" />
            <Array as="points">
              <mxPoint x="960" y="650" />
              <mxPoint x="960" y="650" />
            </Array>
          </mxGeometry>
        </mxCell>
        <mxCell id="lZkJR_y29X51eTwyJJMO-63" value="Business" style="shape=process;whiteSpace=wrap;html=1;backgroundOutline=1;fillColor=#66B2FF;" parent="1" vertex="1">
          <mxGeometry x="900" y="220" width="120" height="60" as="geometry" />
        </mxCell>
        <mxCell id="lZkJR_y29X51eTwyJJMO-67" value="&lt;font style=&quot;font-size: 18px;&quot;&gt;Para crear usuarios o JWT&lt;/font&gt;" style="text;html=1;align=center;verticalAlign=middle;resizable=0;points=[];autosize=1;strokeColor=none;fillColor=#97D077;" parent="1" vertex="1">
          <mxGeometry x="290" y="30" width="240" height="40" as="geometry" />
        </mxCell>
        <mxCell id="lZkJR_y29X51eTwyJJMO-70" style="edgeStyle=orthogonalEdgeStyle;rounded=0;orthogonalLoop=1;jettySize=auto;html=1;" parent="1" edge="1">
          <mxGeometry relative="1" as="geometry">
            <mxPoint x="-185.29" y="420" as="targetPoint" />
            <mxPoint x="-185.29" y="481" as="sourcePoint" />
          </mxGeometry>
        </mxCell>
        <mxCell id="lZkJR_y29X51eTwyJJMO-69" value="Petición&amp;nbsp;" style="text;html=1;align=center;verticalAlign=middle;resizable=0;points=[];autosize=1;strokeColor=none;fillColor=none;" parent="1" vertex="1">
          <mxGeometry x="-220" y="481" width="70" height="30" as="geometry" />
        </mxCell>
        <mxCell id="lZkJR_y29X51eTwyJJMO-71" value="" style="shape=flexArrow;endArrow=classic;html=1;rounded=0;exitX=0;exitY=0.361;exitDx=0;exitDy=0;exitPerimeter=0;strokeColor=#FF99CC;" parent="1" source="lZkJR_y29X51eTwyJJMO-68" target="lZkJR_y29X51eTwyJJMO-1" edge="1">
          <mxGeometry width="50" height="50" relative="1" as="geometry">
            <mxPoint x="-220" y="339.43" as="sourcePoint" />
            <mxPoint x="-150" y="339.43" as="targetPoint" />
            <Array as="points">
              <mxPoint x="-150" y="340" />
            </Array>
          </mxGeometry>
        </mxCell>
        <mxCell id="lZkJR_y29X51eTwyJJMO-78" value="Respuesta" style="edgeLabel;html=1;align=center;verticalAlign=middle;resizable=0;points=[];" parent="lZkJR_y29X51eTwyJJMO-71" vertex="1" connectable="0">
          <mxGeometry x="-0.0353" y="3" relative="1" as="geometry">
            <mxPoint x="-7" y="3" as="offset" />
          </mxGeometry>
        </mxCell>
        <mxCell id="lZkJR_y29X51eTwyJJMO-73" style="edgeStyle=orthogonalEdgeStyle;rounded=0;orthogonalLoop=1;jettySize=auto;html=1;" parent="1" source="lZkJR_y29X51eTwyJJMO-72" edge="1">
          <mxGeometry relative="1" as="geometry">
            <mxPoint x="-200" y="360" as="targetPoint" />
          </mxGeometry>
        </mxCell>
        <mxCell id="lZkJR_y29X51eTwyJJMO-72" value="jwt con la data del usuario&amp;nbsp;" style="text;html=1;align=center;verticalAlign=middle;resizable=0;points=[];autosize=1;strokeColor=none;fillColor=none;" parent="1" vertex="1">
          <mxGeometry x="-320" y="280" width="170" height="30" as="geometry" />
        </mxCell>
        <mxCell id="lZkJR_y29X51eTwyJJMO-75" value="1" style="text;html=1;align=center;verticalAlign=middle;resizable=0;points=[];autosize=1;strokeColor=none;fillColor=none;" parent="1" vertex="1">
          <mxGeometry x="-195" y="388" width="30" height="30" as="geometry" />
        </mxCell>
        <mxCell id="lZkJR_y29X51eTwyJJMO-76" value="2" style="text;html=1;align=center;verticalAlign=middle;resizable=0;points=[];autosize=1;strokeColor=none;fillColor=none;" parent="1" vertex="1">
          <mxGeometry x="-205" y="318" width="30" height="30" as="geometry" />
        </mxCell>
        <mxCell id="lZkJR_y29X51eTwyJJMO-81" style="edgeStyle=orthogonalEdgeStyle;rounded=0;orthogonalLoop=1;jettySize=auto;html=1;entryX=0;entryY=0.5;entryDx=0;entryDy=0;" parent="1" source="lZkJR_y29X51eTwyJJMO-80" target="lZkJR_y29X51eTwyJJMO-6" edge="1">
          <mxGeometry relative="1" as="geometry" />
        </mxCell>
        <mxCell id="lZkJR_y29X51eTwyJJMO-82" style="edgeStyle=orthogonalEdgeStyle;rounded=0;orthogonalLoop=1;jettySize=auto;html=1;exitX=1;exitY=0.5;exitDx=0;exitDy=0;entryX=0;entryY=0.5;entryDx=0;entryDy=0;fillColor=#FF3333;" parent="1" source="lZkJR_y29X51eTwyJJMO-80" target="lZkJR_y29X51eTwyJJMO-15" edge="1">
          <mxGeometry relative="1" as="geometry" />
        </mxCell>
        <mxCell id="lZkJR_y29X51eTwyJJMO-80" value="inicio" style="ellipse;whiteSpace=wrap;html=1;aspect=fixed;" parent="1" vertex="1">
          <mxGeometry x="-120" y="400" width="80" height="80" as="geometry" />
        </mxCell>
        <mxCell id="lZkJR_y29X51eTwyJJMO-83" value="" style="edgeStyle=orthogonalEdgeStyle;rounded=0;orthogonalLoop=1;jettySize=auto;html=1;entryX=0;entryY=0.5;entryDx=0;entryDy=0;entryPerimeter=0;" parent="1" source="lZkJR_y29X51eTwyJJMO-27" target="lZkJR_y29X51eTwyJJMO-36" edge="1">
          <mxGeometry relative="1" as="geometry">
            <mxPoint x="-30" y="110" as="sourcePoint" />
            <mxPoint x="390" y="120" as="targetPoint" />
          </mxGeometry>
        </mxCell>
        <mxCell id="lZkJR_y29X51eTwyJJMO-36" value="&lt;font style=&quot;font-size: 8px;&quot;&gt;Asignamos roles al usuario ID&lt;/font&gt;" style="text;html=1;align=center;verticalAlign=middle;resizable=0;points=[];autosize=1;strokeColor=none;fillColor=none;" parent="1" vertex="1">
          <mxGeometry x="170" y="100" width="130" height="30" as="geometry" />
        </mxCell>
        <mxCell id="OqTpMwvWIf5yQaUmz5_c-6" value="&lt;font style=&quot;font-size: 18px;&quot;&gt;El join para octener data del usuario&lt;/font&gt;" style="text;html=1;align=center;verticalAlign=middle;resizable=0;points=[];autosize=1;strokeColor=none;fillColor=none;" vertex="1" parent="1">
          <mxGeometry x="1625" y="-185" width="310" height="40" as="geometry" />
        </mxCell>
        <mxCell id="OqTpMwvWIf5yQaUmz5_c-7" value="USER" style="shape=note;whiteSpace=wrap;html=1;backgroundOutline=1;darkOpacity=0.05;fillColor=#66B2FF;" vertex="1" parent="1">
          <mxGeometry x="1350" y="-160" width="80" height="100" as="geometry" />
        </mxCell>
        <mxCell id="OqTpMwvWIf5yQaUmz5_c-9" value="ROL" style="shape=note;whiteSpace=wrap;html=1;backgroundOutline=1;darkOpacity=0.05;fillColor=#66B2FF;" vertex="1" parent="1">
          <mxGeometry x="1870" y="280" width="80" height="100" as="geometry" />
        </mxCell>
        <mxCell id="OqTpMwvWIf5yQaUmz5_c-10" value="BUSSINES" style="shape=card;whiteSpace=wrap;html=1;fillColor=#66B2FF;" vertex="1" parent="1">
          <mxGeometry x="2120" y="-120" width="80" height="100" as="geometry" />
        </mxCell>
        <mxCell id="OqTpMwvWIf5yQaUmz5_c-12" style="edgeStyle=orthogonalEdgeStyle;rounded=0;orthogonalLoop=1;jettySize=auto;html=1;" edge="1" parent="1" source="OqTpMwvWIf5yQaUmz5_c-11" target="OqTpMwvWIf5yQaUmz5_c-10">
          <mxGeometry relative="1" as="geometry" />
        </mxCell>
        <mxCell id="OqTpMwvWIf5yQaUmz5_c-13" style="edgeStyle=orthogonalEdgeStyle;rounded=0;orthogonalLoop=1;jettySize=auto;html=1;" edge="1" parent="1" source="OqTpMwvWIf5yQaUmz5_c-11" target="OqTpMwvWIf5yQaUmz5_c-9">
          <mxGeometry relative="1" as="geometry" />
        </mxCell>
        <mxCell id="OqTpMwvWIf5yQaUmz5_c-11" value="PERMISSION_BUSINESS_ROL_USER" style="shape=card;whiteSpace=wrap;html=1;fillColor=#FF3333;" vertex="1" parent="1">
          <mxGeometry x="1620" y="-10" width="250" height="120" as="geometry" />
        </mxCell>
        <mxCell id="OqTpMwvWIf5yQaUmz5_c-15" style="edgeStyle=orthogonalEdgeStyle;rounded=0;orthogonalLoop=1;jettySize=auto;html=1;entryX=0;entryY=0;entryDx=100;entryDy=0;entryPerimeter=0;" edge="1" parent="1" source="OqTpMwvWIf5yQaUmz5_c-7" target="OqTpMwvWIf5yQaUmz5_c-11">
          <mxGeometry relative="1" as="geometry" />
        </mxCell>
        <mxCell id="OqTpMwvWIf5yQaUmz5_c-16" value="PERMISSION" style="shape=note;whiteSpace=wrap;html=1;backgroundOutline=1;darkOpacity=0.05;fillColor=#66B2FF;" vertex="1" parent="1">
          <mxGeometry x="1530" y="278" width="130" height="110" as="geometry" />
        </mxCell>
        <mxCell id="OqTpMwvWIf5yQaUmz5_c-17" style="edgeStyle=orthogonalEdgeStyle;rounded=0;orthogonalLoop=1;jettySize=auto;html=1;entryX=0;entryY=0;entryDx=0;entryDy=75;entryPerimeter=0;" edge="1" parent="1" source="OqTpMwvWIf5yQaUmz5_c-16" target="OqTpMwvWIf5yQaUmz5_c-11">
          <mxGeometry relative="1" as="geometry" />
        </mxCell>
        <mxCell id="OqTpMwvWIf5yQaUmz5_c-21" value="&lt;font style=&quot;font-size: 18px;&quot;&gt;EL SQUEME DE USER DEBE TENER LA DATA FICA QUE NO TENDRA MUCHO CAMBIO EN EL TIEMPO&amp;nbsp;&lt;/font&gt;&lt;div&gt;&lt;br&gt;&lt;/div&gt;" style="text;html=1;align=center;verticalAlign=middle;resizable=0;points=[];autosize=1;strokeColor=none;fillColor=none;" vertex="1" parent="1">
          <mxGeometry x="1260" y="500" width="890" height="50" as="geometry" />
        </mxCell>
        <mxCell id="OqTpMwvWIf5yQaUmz5_c-24" value="ROL" style="shape=note;whiteSpace=wrap;html=1;backgroundOutline=1;darkOpacity=0.05;fillColor=#66B2FF;" vertex="1" parent="1">
          <mxGeometry x="1460" y="850" width="80" height="100" as="geometry" />
        </mxCell>
        <mxCell id="OqTpMwvWIf5yQaUmz5_c-29" style="edgeStyle=orthogonalEdgeStyle;rounded=0;orthogonalLoop=1;jettySize=auto;html=1;" edge="1" parent="1" source="OqTpMwvWIf5yQaUmz5_c-22" target="OqTpMwvWIf5yQaUmz5_c-24">
          <mxGeometry relative="1" as="geometry" />
        </mxCell>
        <mxCell id="OqTpMwvWIf5yQaUmz5_c-22" value="USER" style="shape=note;whiteSpace=wrap;html=1;backgroundOutline=1;darkOpacity=0.05;fillColor=#66B2FF;" vertex="1" parent="1">
          <mxGeometry x="1460" y="610" width="80" height="100" as="geometry" />
        </mxCell>
        <mxCell id="OqTpMwvWIf5yQaUmz5_c-30" value="USER" style="swimlane;fontStyle=0;childLayout=stackLayout;horizontal=1;startSize=26;fillColor=#66CC00;horizontalStack=0;resizeParent=1;resizeParentMax=0;resizeLast=0;collapsible=1;marginBottom=0;html=1;" vertex="1" parent="1">
          <mxGeometry x="1568" y="615" width="500" height="110" as="geometry" />
        </mxCell>
        <mxCell id="OqTpMwvWIf5yQaUmz5_c-31" value="PERMISSION JSONB(EL ULTIMO PERMISO REGISTRADO )" style="text;strokeColor=none;fillColor=none;align=left;verticalAlign=top;spacingLeft=4;spacingRight=4;overflow=hidden;rotatable=0;points=[[0,0.5],[1,0.5]];portConstraint=eastwest;whiteSpace=wrap;html=1;" vertex="1" parent="OqTpMwvWIf5yQaUmz5_c-30">
          <mxGeometry y="26" width="500" height="26" as="geometry" />
        </mxCell>
        <mxCell id="OqTpMwvWIf5yQaUmz5_c-32" value="BUSSINES JSONB{} (EL ULTIMO REGISTRO DE LA EMPRESA QUE PERTENESCA)" style="text;strokeColor=none;fillColor=none;align=left;verticalAlign=top;spacingLeft=4;spacingRight=4;overflow=hidden;rotatable=0;points=[[0,0.5],[1,0.5]];portConstraint=eastwest;whiteSpace=wrap;html=1;" vertex="1" parent="OqTpMwvWIf5yQaUmz5_c-30">
          <mxGeometry y="52" width="500" height="26" as="geometry" />
        </mxCell>
        <mxCell id="OqTpMwvWIf5yQaUmz5_c-33" value="ROL JSONB{TENDRA EL ULTIMO REGISTRO DEL ROL}" style="text;strokeColor=none;fillColor=none;align=left;verticalAlign=top;spacingLeft=4;spacingRight=4;overflow=hidden;rotatable=0;points=[[0,0.5],[1,0.5]];portConstraint=eastwest;whiteSpace=wrap;html=1;" vertex="1" parent="OqTpMwvWIf5yQaUmz5_c-30">
          <mxGeometry y="78" width="500" height="32" as="geometry" />
        </mxCell>
        <mxCell id="OqTpMwvWIf5yQaUmz5_c-34" style="edgeStyle=orthogonalEdgeStyle;rounded=0;orthogonalLoop=1;jettySize=auto;html=1;entryX=0.288;entryY=0.733;entryDx=0;entryDy=0;entryPerimeter=0;" edge="1" parent="1" source="OqTpMwvWIf5yQaUmz5_c-24" target="OqTpMwvWIf5yQaUmz5_c-20">
          <mxGeometry relative="1" as="geometry" />
        </mxCell>
        <mxCell id="OqTpMwvWIf5yQaUmz5_c-35" style="edgeStyle=orthogonalEdgeStyle;rounded=0;orthogonalLoop=1;jettySize=auto;html=1;entryX=0.288;entryY=0.363;entryDx=0;entryDy=0;entryPerimeter=0;" edge="1" parent="1" source="OqTpMwvWIf5yQaUmz5_c-22" target="OqTpMwvWIf5yQaUmz5_c-20">
          <mxGeometry relative="1" as="geometry" />
        </mxCell>
        <mxCell id="OqTpMwvWIf5yQaUmz5_c-36" style="edgeStyle=orthogonalEdgeStyle;rounded=0;orthogonalLoop=1;jettySize=auto;html=1;entryX=0.312;entryY=0.338;entryDx=0;entryDy=0;entryPerimeter=0;" edge="1" parent="1" source="OqTpMwvWIf5yQaUmz5_c-31" target="OqTpMwvWIf5yQaUmz5_c-20">
          <mxGeometry relative="1" as="geometry" />
        </mxCell>
      </root>
    </mxGraphModel>
  </diagram>
  <diagram id="r537ciN8taLzaP97ahgX" name="BD integraciones">
    <mxGraphModel dx="2446" dy="1957" grid="1" gridSize="10" guides="1" tooltips="1" connect="1" arrows="1" fold="1" page="1" pageScale="1" pageWidth="827" pageHeight="1169" math="0" shadow="0">
      <root>
        <mxCell id="0" />
        <mxCell id="1" parent="0" />
        <mxCell id="szSIDD4giV2YJQMpPc7q-1" value="" style="shape=ext;double=1;rounded=0;whiteSpace=wrap;html=1;" vertex="1" parent="1">
          <mxGeometry x="-270" y="-140" width="1230" height="880" as="geometry" />
        </mxCell>
        <mxCell id="szSIDD4giV2YJQMpPc7q-62" value="&lt;div style=&quot;color: rgb(171, 178, 191); background-color: rgb(35, 39, 46); font-family: Consolas, &amp;quot;Courier New&amp;quot;, monospace; font-size: 14px; line-height: 19px; white-space: pre;&quot;&gt;&lt;span style=&quot;color: #98c379;&quot;&gt;integration_types&lt;/span&gt;&lt;/div&gt;" style="swimlane;fontStyle=0;childLayout=stackLayout;horizontal=1;startSize=30;horizontalStack=0;resizeParent=1;resizeParentMax=0;resizeLast=0;collapsible=1;marginBottom=0;whiteSpace=wrap;html=1;" vertex="1" parent="1">
          <mxGeometry x="-30" y="10" width="140" height="240" as="geometry" />
        </mxCell>
        <mxCell id="szSIDD4giV2YJQMpPc7q-63" value="id" style="text;strokeColor=none;fillColor=none;align=left;verticalAlign=middle;spacingLeft=4;spacingRight=4;overflow=hidden;points=[[0,0.5],[1,0.5]];portConstraint=eastwest;rotatable=0;whiteSpace=wrap;html=1;" vertex="1" parent="szSIDD4giV2YJQMpPc7q-62">
          <mxGeometry y="30" width="140" height="30" as="geometry" />
        </mxCell>
        <mxCell id="szSIDD4giV2YJQMpPc7q-64" value="&lt;div style=&quot;color: rgb(171, 178, 191); background-color: rgb(35, 39, 46); font-family: Consolas, &amp;quot;Courier New&amp;quot;, monospace; font-size: 14px; line-height: 19px; white-space: pre;&quot;&gt;&lt;span style=&quot;color: #98c379;&quot;&gt;shop_type&lt;/span&gt;&lt;/div&gt;" style="text;strokeColor=none;fillColor=none;align=left;verticalAlign=middle;spacingLeft=4;spacingRight=4;overflow=hidden;points=[[0,0.5],[1,0.5]];portConstraint=eastwest;rotatable=0;whiteSpace=wrap;html=1;" vertex="1" parent="szSIDD4giV2YJQMpPc7q-62">
          <mxGeometry y="60" width="140" height="30" as="geometry" />
        </mxCell>
        <mxCell id="szSIDD4giV2YJQMpPc7q-65" value="&lt;div style=&quot;color: rgb(171, 178, 191); background-color: rgb(35, 39, 46); font-family: Consolas, &amp;quot;Courier New&amp;quot;, monospace; font-size: 14px; line-height: 19px; white-space: pre;&quot;&gt;&lt;span style=&quot;color: #98c379;&quot;&gt;webhook_global&lt;/span&gt;&lt;/div&gt;" style="text;strokeColor=none;fillColor=none;align=left;verticalAlign=middle;spacingLeft=4;spacingRight=4;overflow=hidden;points=[[0,0.5],[1,0.5]];portConstraint=eastwest;rotatable=0;whiteSpace=wrap;html=1;" vertex="1" parent="szSIDD4giV2YJQMpPc7q-62">
          <mxGeometry y="90" width="140" height="30" as="geometry" />
        </mxCell>
        <mxCell id="szSIDD4giV2YJQMpPc7q-66" value="&lt;div style=&quot;color: rgb(171, 178, 191); background-color: rgb(35, 39, 46); font-family: Consolas, &amp;quot;Courier New&amp;quot;, monospace; font-size: 14px; line-height: 19px; white-space: pre;&quot;&gt;&lt;div style=&quot;line-height: 19px;&quot;&gt;&lt;span style=&quot;color: #98c379;&quot;&gt;webhook_validate&lt;/span&gt;&lt;/div&gt;&lt;/div&gt;" style="text;strokeColor=none;fillColor=none;align=left;verticalAlign=middle;spacingLeft=4;spacingRight=4;overflow=hidden;points=[[0,0.5],[1,0.5]];portConstraint=eastwest;rotatable=0;whiteSpace=wrap;html=1;" vertex="1" parent="szSIDD4giV2YJQMpPc7q-62">
          <mxGeometry y="120" width="140" height="30" as="geometry" />
        </mxCell>
        <mxCell id="szSIDD4giV2YJQMpPc7q-67" value="&lt;div style=&quot;color: rgb(171, 178, 191); background-color: rgb(35, 39, 46); font-family: Consolas, &amp;quot;Courier New&amp;quot;, monospace; font-size: 14px; line-height: 19px; white-space: pre;&quot;&gt;&lt;div style=&quot;line-height: 19px;&quot;&gt;&lt;span style=&quot;color: #98c379;&quot;&gt;private&lt;/span&gt;&lt;/div&gt;&lt;/div&gt;" style="text;strokeColor=none;fillColor=none;align=left;verticalAlign=middle;spacingLeft=4;spacingRight=4;overflow=hidden;points=[[0,0.5],[1,0.5]];portConstraint=eastwest;rotatable=0;whiteSpace=wrap;html=1;" vertex="1" parent="szSIDD4giV2YJQMpPc7q-62">
          <mxGeometry y="150" width="140" height="30" as="geometry" />
        </mxCell>
        <mxCell id="szSIDD4giV2YJQMpPc7q-68" value="&lt;div style=&quot;color: rgb(171, 178, 191); background-color: rgb(35, 39, 46); font-family: Consolas, &amp;quot;Courier New&amp;quot;, monospace; font-size: 14px; line-height: 19px; white-space: pre;&quot;&gt;&lt;div style=&quot;line-height: 19px;&quot;&gt;&lt;span style=&quot;color: #98c379;&quot;&gt;some_users&lt;/span&gt;&lt;/div&gt;&lt;/div&gt;" style="text;strokeColor=none;fillColor=none;align=left;verticalAlign=middle;spacingLeft=4;spacingRight=4;overflow=hidden;points=[[0,0.5],[1,0.5]];portConstraint=eastwest;rotatable=0;whiteSpace=wrap;html=1;" vertex="1" parent="szSIDD4giV2YJQMpPc7q-62">
          <mxGeometry y="180" width="140" height="30" as="geometry" />
        </mxCell>
        <mxCell id="szSIDD4giV2YJQMpPc7q-69" value="&lt;div style=&quot;color: rgb(171, 178, 191); background-color: rgb(35, 39, 46); font-family: Consolas, &amp;quot;Courier New&amp;quot;, monospace; font-size: 14px; line-height: 19px; white-space: pre;&quot;&gt;&lt;div style=&quot;line-height: 19px;&quot;&gt;&lt;div style=&quot;line-height: 19px;&quot;&gt;&lt;span style=&quot;color: #98c379;&quot;&gt;user_id&lt;/span&gt;&lt;/div&gt;&lt;/div&gt;&lt;/div&gt;" style="text;strokeColor=none;fillColor=none;align=left;verticalAlign=middle;spacingLeft=4;spacingRight=4;overflow=hidden;points=[[0,0.5],[1,0.5]];portConstraint=eastwest;rotatable=0;whiteSpace=wrap;html=1;" vertex="1" parent="szSIDD4giV2YJQMpPc7q-62">
          <mxGeometry y="210" width="140" height="30" as="geometry" />
        </mxCell>
        <mxCell id="szSIDD4giV2YJQMpPc7q-71" value="user" style="swimlane;fontStyle=0;childLayout=stackLayout;horizontal=1;startSize=30;horizontalStack=0;resizeParent=1;resizeParentMax=0;resizeLast=0;collapsible=1;marginBottom=0;whiteSpace=wrap;html=1;" vertex="1" parent="1">
          <mxGeometry x="-240" width="140" height="60" as="geometry" />
        </mxCell>
        <mxCell id="szSIDD4giV2YJQMpPc7q-72" value="id" style="text;strokeColor=none;fillColor=none;align=left;verticalAlign=middle;spacingLeft=4;spacingRight=4;overflow=hidden;points=[[0,0.5],[1,0.5]];portConstraint=eastwest;rotatable=0;whiteSpace=wrap;html=1;" vertex="1" parent="szSIDD4giV2YJQMpPc7q-71">
          <mxGeometry y="30" width="140" height="30" as="geometry" />
        </mxCell>
        <mxCell id="szSIDD4giV2YJQMpPc7q-75" style="edgeStyle=orthogonalEdgeStyle;rounded=0;orthogonalLoop=1;jettySize=auto;html=1;entryX=0;entryY=0.5;entryDx=0;entryDy=0;" edge="1" parent="1" source="szSIDD4giV2YJQMpPc7q-72" target="szSIDD4giV2YJQMpPc7q-69">
          <mxGeometry relative="1" as="geometry" />
        </mxCell>
        <mxCell id="szSIDD4giV2YJQMpPc7q-76" value="&lt;div style=&quot;color: rgb(171, 178, 191); background-color: rgb(35, 39, 46); font-family: Consolas, &amp;quot;Courier New&amp;quot;, monospace; font-size: 14px; line-height: 19px; white-space: pre;&quot;&gt;&lt;span style=&quot;color: #98c379;&quot;&gt;integration_user_permissions&lt;/span&gt;&lt;/div&gt;" style="swimlane;fontStyle=0;childLayout=stackLayout;horizontal=1;startSize=30;horizontalStack=0;resizeParent=1;resizeParentMax=0;resizeLast=0;collapsible=1;marginBottom=0;whiteSpace=wrap;html=1;" vertex="1" parent="1">
          <mxGeometry x="250" y="70" width="140" height="120" as="geometry" />
        </mxCell>
        <mxCell id="szSIDD4giV2YJQMpPc7q-77" value="Item 1" style="text;strokeColor=none;fillColor=none;align=left;verticalAlign=middle;spacingLeft=4;spacingRight=4;overflow=hidden;points=[[0,0.5],[1,0.5]];portConstraint=eastwest;rotatable=0;whiteSpace=wrap;html=1;" vertex="1" parent="szSIDD4giV2YJQMpPc7q-76">
          <mxGeometry y="30" width="140" height="30" as="geometry" />
        </mxCell>
        <mxCell id="szSIDD4giV2YJQMpPc7q-78" value="Item 2" style="text;strokeColor=none;fillColor=none;align=left;verticalAlign=middle;spacingLeft=4;spacingRight=4;overflow=hidden;points=[[0,0.5],[1,0.5]];portConstraint=eastwest;rotatable=0;whiteSpace=wrap;html=1;" vertex="1" parent="szSIDD4giV2YJQMpPc7q-76">
          <mxGeometry y="60" width="140" height="30" as="geometry" />
        </mxCell>
        <mxCell id="szSIDD4giV2YJQMpPc7q-79" value="Item 3" style="text;strokeColor=none;fillColor=none;align=left;verticalAlign=middle;spacingLeft=4;spacingRight=4;overflow=hidden;points=[[0,0.5],[1,0.5]];portConstraint=eastwest;rotatable=0;whiteSpace=wrap;html=1;" vertex="1" parent="szSIDD4giV2YJQMpPc7q-76">
          <mxGeometry y="90" width="140" height="30" as="geometry" />
        </mxCell>
      </root>
    </mxGraphModel>
  </diagram>
</mxfile>
